<?xml version="1.0" encoding="UTF-8" standalone="no"?>
<!-- Generator: Adobe Illustrator 25.2.0, SVG Export Plug-In . SVG Version: 6.00 Build 0)  -->

<svg
   version="1.1"
   id="svg2"
   x="0px"
   y="0px"
   viewBox="0 0 420.6 261.5"
   xml:space="preserve"
   sodipodi:docname="mcloud-home-dark-links.svg"
   inkscape:version="1.2.1 (9c6d41e410, 2022-07-14)"
   width="420.60001"
   height="261.5"
   xmlns:inkscape="http://www.inkscape.org/namespaces/inkscape"
   xmlns:sodipodi="http://sodipodi.sourceforge.net/DTD/sodipodi-0.dtd"
   xmlns:xlink="http://www.w3.org/1999/xlink"
   xmlns="http://www.w3.org/2000/svg"
   xmlns:svg="http://www.w3.org/2000/svg"><defs
   id="defs77" />
<style
   type="text/css"
   id="style2">
	.st0{fill:#FFFFFF;}
	.st1{fill:#D21F15;}
	.st2{fill:#231F20;}
	.st3{fill:none;stroke:#CCCCCC;stroke-width:4.1907;stroke-linecap:round;stroke-linejoin:round;}
	.st4{fill:none;stroke:#3B3A3C;stroke-width:3.2537;stroke-linecap:round;stroke-linejoin:round;stroke-miterlimit:3.379;}
	.st5{fill:none;stroke:#3B3A3C;stroke-width:3.8517;stroke-linecap:round;stroke-linejoin:round;}
	.st6{fill:none;stroke:#3B3A3C;stroke-width:4.1455;stroke-linecap:round;stroke-linejoin:round;stroke-miterlimit:4.305;}
	.st7{fill:#3C3738;stroke:#000000;stroke-width:0.2268;stroke-miterlimit:9.0723;}
</style>

<sodipodi:namedview
   bordercolor="#666666"
   borderopacity="1"
   fit-margin-bottom="0"
   fit-margin-left="0"
   fit-margin-right="0"
   fit-margin-top="0"
   gridtolerance="10"
   guidetolerance="10"
   id="namedview27"
   inkscape:current-layer="svg2"
   inkscape:cx="204.96541"
   inkscape:cy="98.039401"
   inkscape:pageopacity="0"
   inkscape:pageshadow="2"
   inkscape:snap-text-baseline="true"
   inkscape:window-height="1161"
   inkscape:window-maximized="0"
   inkscape:window-width="1920"
   inkscape:window-x="0"
   inkscape:window-y="0"
   inkscape:zoom="1.7441967"
   objecttolerance="10"
   pagecolor="#ffffff"
   showgrid="false"
   inkscape:showpageshadow="2"
   inkscape:pagecheckerboard="0"
   inkscape:deskcolor="#d1d1d1"
   showguides="true">
	<sodipodi:guide
   position="0.27325865,14.435552"
   orientation="0,-1"
   id="guide957"
   inkscape:locked="false" /></sodipodi:namedview>
<path
   id="path4"
   inkscape:connector-curvature="0"
   class="st0"
   d="M 60.115432,129.01445 V 107.3105 h 3.989697 l 7.500631,11.17115 7.500631,-11.17115 h 3.989697 v 21.70395 h -4.468461 v -13.24579 l -7.021867,10.21362 -7.021867,-10.21362 v 13.24579 z m 34.79016,-7.50063 h 6.383518 l -3.19176,-7.81981 z m -7.979394,7.50063 8.936922,-21.70395 h 4.30887 l 8.93692,21.70395 h -5.10681 l -1.43629,-3.67052 h -9.096509 l -1.436291,3.67052 z m 28.087472,0 v -17.39508 h -5.90476 v -4.30887 h 16.43756 v 4.30887 h -5.74517 v 17.39508 z m 14.20332,0 V 107.3105 h 14.84167 v 4.30887 h -10.05404 v 4.14929 h 9.41569 v 4.30887 h -9.41569 v 4.62805 h 10.21363 v 4.30887 z m 25.21488,-11.49033 h 3.83011 c 1.91505,0 3.19176,-1.11711 3.19176,-3.03217 0,-1.59588 -1.11712,-2.87258 -2.713,-2.87258 h -4.14928 z m -4.78763,11.49033 V 107.3105 h 9.0965 c 2.07465,0 3.83011,0.63835 5.2664,2.07464 1.43629,1.43629 2.23423,3.03217 2.23423,5.10681 0,2.713 -1.59587,5.10682 -3.83011,6.22393 l 5.26641,8.45816 h -5.42599 l -4.46846,-7.18146 h -3.19176 v 7.18146 z m 21.86353,-21.70395 h 4.78764 v 21.70395 h -4.78764 z m 16.59714,14.20332 h 6.38352 l -3.19176,-7.81981 z m -7.97939,7.50063 8.93692,-21.70395 h 4.30888 l 8.93692,21.70395 h -5.10682 l -1.43629,-3.67052 h -9.09651 l -1.43629,3.67052 z m 26.01283,0 V 107.3105 h 4.78763 v 17.39508 h 8.45816 v 4.30887 z m 19.78889,-6.86228 c 1.11712,1.91506 3.03217,2.87258 5.42599,2.87258 2.23423,0 3.19176,-0.95752 3.19176,-2.07464 0,-0.79794 -0.47876,-1.43629 -1.11711,-1.75547 -0.47877,-0.31917 -1.27671,-0.63835 -1.91506,-0.79793 -0.47876,-0.15959 -1.75547,-0.63836 -2.39382,-0.79794 -3.35134,-1.27671 -5.2664,-3.03217 -5.2664,-6.22393 0,-1.91506 0.63835,-3.35135 2.07464,-4.46846 1.4363,-1.11712 3.19176,-1.75547 5.10682,-1.75547 3.19176,0 5.58557,1.11712 7.18145,3.51093 l -3.19176,2.39382 c -0.79793,-1.11711 -2.23423,-1.75546 -3.8301,-1.75546 -1.59587,0 -2.55341,0.79794 -2.55341,1.75546 0,0.63835 0.15959,1.11712 0.79794,1.59588 0.31918,0.15959 0.63835,0.31918 0.95753,0.47876 l 1.59587,0.47877 c 0.63836,0.31917 1.27671,0.47876 1.91506,0.63835 3.9897,1.43629 5.58558,3.35135 5.58558,6.38352 0,3.98969 -2.713,6.70269 -8.13899,6.70269 -4.46846,0 -7.50063,-1.91506 -8.93692,-4.78764 z m 36.54563,-11.49033 -1.59588,1.4363 c -1.75546,-1.91506 -3.83011,-2.87259 -6.70269,-2.87259 -2.5534,0 -4.62805,0.79794 -6.38351,2.55341 -1.75547,1.75547 -2.55341,3.83011 -2.55341,6.38351 0,2.55341 0.79794,4.78764 2.55341,6.54311 1.75546,1.75547 3.83011,2.5534 6.38351,2.5534 2.87258,0 5.10681,-0.95752 6.70269,-3.03217 l 1.59588,1.4363 c -2.23422,2.5534 -4.94722,3.83011 -8.45816,3.83011 -3.19175,0 -5.90475,-1.11712 -7.97939,-3.19176 -2.23423,-2.23423 -3.19176,-4.78764 -3.19176,-8.13899 0,-3.19175 1.11712,-5.90475 3.19176,-7.97939 2.23423,-2.07464 4.94722,-3.19176 7.97939,-3.19176 3.51094,0 6.38352,1.11712 8.45816,3.67052 m 5.10681,18.35261 V 107.3105 h 2.39382 v 19.46972 h 8.93692 v 2.23423 z m 16.27797,-10.85198 c 0,2.55341 0.79794,4.78764 2.55341,6.54311 1.75546,1.75547 3.8301,2.5534 6.38351,2.5534 2.55341,0 4.62805,-0.79793 6.38352,-2.5534 1.75546,-1.75547 2.5534,-3.83011 2.5534,-6.54311 0,-2.5534 -0.79794,-4.78763 -2.5534,-6.38351 -1.75547,-1.75547 -3.83011,-2.55341 -6.38352,-2.55341 -2.55341,0 -4.62805,0.79794 -6.38351,2.55341 -1.75547,1.75547 -2.55341,3.83011 -2.55341,6.38351 m -2.39382,0 c 0,-3.19175 1.11712,-5.90475 3.19176,-7.97939 2.23423,-2.07464 4.94722,-3.19176 7.97939,-3.19176 3.19176,0 5.90475,1.11712 7.9794,3.19176 2.23423,2.07464 3.35134,4.78764 3.35134,7.97939 0,3.19176 -1.11711,5.90476 -3.35134,8.13899 -2.23423,2.07464 -4.78764,3.19176 -7.9794,3.19176 -3.19175,0 -5.90475,-1.11712 -7.97939,-3.19176 -2.07464,-2.23423 -3.19176,-4.94723 -3.19176,-8.13899 m 28.24706,-10.85197 h 2.39382 v 13.88414 c 0,3.83011 2.23423,6.06434 5.74516,6.06434 3.51093,0 5.74516,-2.07464 5.74516,-6.06434 V 107.3105 h 2.39382 v 14.20332 c 0,2.55341 -0.79794,4.46846 -2.23423,5.90475 -1.43629,1.43629 -3.51093,2.07465 -5.90475,2.07465 -2.39382,0 -4.46846,-0.63836 -5.90475,-2.07465 -1.43629,-1.43629 -2.23423,-3.35134 -2.23423,-5.90475 z m 25.53406,19.46972 h 4.46846 c 5.90475,0 8.93692,-3.35134 8.93692,-8.61775 0,-5.2664 -3.03217,-8.61774 -8.93692,-8.61774 h -4.30887 z m -2.39382,2.23423 V 107.3105 h 7.02187 c 3.51093,0 6.22393,0.95752 8.13898,3.03217 2.07464,2.07464 3.03217,4.62805 3.03217,7.8198 0,3.35135 -0.95753,5.90476 -3.03217,7.81981 -2.07464,1.91506 -4.78764,3.03217 -8.13898,3.03217 z"
   style="stroke-width:1" />
<path
   id="path6"
   inkscape:connector-curvature="0"
   class="st1"
   d="m 230.71488,76.510035 h -15.63961 c -3.19176,-0.159588 -4.30887,-2.553406 -2.87258,-4.947224 l 16.27796,-26.810766 c 0.31918,-0.478763 0.79794,-0.638351 1.75547,-0.638351 v 0 0 c 2.87258,0.478763 5.2664,-1.276703 6.38351,-2.712994 0.79794,-0.957528 1.91506,-0.79794 2.39382,-0.638352 6.38352,3.03217 10.5328,9.575273 10.5328,16.916316 0,10.373213 -8.45816,18.831371 -18.83137,18.831371 m -21.0656,-9.256097 c -1.11712,1.915054 -2.55341,3.989697 -4.30887,3.989697 -1.91506,0 -3.19176,-1.915055 -4.30888,-3.989697 L 187.14739,44.273282 c -1.91506,-3.191758 0.15959,-5.425989 2.5534,-5.425989 h 31.59841 c 2.39381,0 4.30887,2.234231 2.5534,5.266401 z m -4.30887,14.682085 c -1.75547,0 -3.19176,-1.436291 -3.19176,-3.191757 0,-1.755467 1.43629,-3.191758 3.19176,-3.191758 1.75546,0 3.19175,1.436291 3.19175,3.191758 0,1.755466 -1.43629,3.191757 -3.19175,3.191757 m -10.37322,-5.425988 h -15.00126 c -10.37321,0 -18.83137,-8.458158 -18.83137,-18.831371 0,-7.341043 4.14929,-13.724558 10.5328,-16.916316 0.47877,-0.159588 1.59588,-0.478764 2.39382,0.478764 1.11712,1.436291 2.55341,2.553406 4.78764,2.872582 0.79794,0.159588 1.59588,0 1.59588,0 1.2767,-0.159588 1.75546,0.478763 1.91505,0.797939 l 15.63961,25.853238 c 1.91506,3.03217 0.79794,5.745164 -3.03217,5.745164 m -15.00126,-43.08873 c 1.75547,0 3.19176,1.436291 3.19176,3.191758 0,1.755467 -1.43629,3.191758 -3.19176,3.191758 -1.75546,0 -3.19176,-1.436291 -3.19176,-3.191758 0,-1.755467 1.4363,-3.191758 3.19176,-3.191758 m 3.67052,-5.2664 c 3.51094,-8.777335 11.9691,-14.682086 21.70396,-14.682086 9.57527,0 18.19302,6.064339 21.70395,14.682086 0.63835,1.755466 -0.47876,2.393818 -0.47876,2.393818 -1.59588,1.117115 -2.23423,2.393818 -2.39382,2.712994 v 0 c -0.15959,0.319176 -0.47877,1.117115 -1.43629,1.117115 h -34.63058 c -0.95752,0 -1.11711,-0.478763 -1.43629,-1.117115 0,-0.159588 -0.47876,-1.436291 -2.39381,-2.712994 -0.63836,-0.319176 -1.11712,-0.797939 -0.63836,-2.393818 m 47.07843,5.2664 c 1.75547,0 3.19176,1.436291 3.19176,3.191758 0,1.755467 -1.43629,3.191758 -3.19176,3.191758 -1.75547,0 -3.19176,-1.436291 -3.19176,-3.191758 0,-1.755467 1.43629,-3.191758 3.19176,-3.191758 m 8.77734,2.712994 v 0 c -0.95753,-0.319176 -1.27671,-0.957527 -1.59588,-1.915054 -0.79794,-2.234231 -2.39382,-3.83011 -4.46846,-4.468461 -1.11712,-0.478764 -1.75547,-1.436291 -1.91506,-1.915055 v 0 C 227.68271,16.824164 217.14991,9.004358 205.34041,9.004358 c -11.96909,0 -22.5019,7.660218 -26.17242,18.831371 v 0 c -0.15958,0.319176 -0.79794,1.436291 -1.91505,1.915055 -2.07464,0.797939 -3.51094,2.074642 -4.30887,4.628048 -0.31918,0.957528 -0.63836,1.595879 -1.59588,1.915055 v 0 c -8.61775,3.510934 -14.5225,11.969092 -14.5225,21.544365 0,12.767031 10.37321,23.299832 23.29983,23.299832 h 15.7992 c 2.23423,0 2.55341,0.638351 3.35135,1.915055 1.2767,2.074642 3.67052,3.351345 6.22392,3.351345 2.87259,0 5.26641,-1.595879 6.54311,-3.989697 0.47876,-0.638352 1.11711,-1.276703 3.03217,-1.276703 h 15.79921 c 12.76703,0 23.29982,-10.373213 23.29982,-23.299832 -0.15959,-9.734861 -6.06433,-18.193019 -14.68207,-21.703953"
   style="stroke-width:1" />
<path
   id="path8"
   inkscape:connector-curvature="0"
   class="st2"
   d="M 60.115432,129.01445 V 107.3105 h 3.989697 l 7.500631,11.17115 7.500631,-11.17115 h 3.989697 v 21.70395 h -4.468461 v -13.24579 l -7.021867,10.21362 -7.021867,-10.21362 v 13.24579 z m 34.79016,-7.50063 h 6.383518 l -3.19176,-7.81981 z m -7.979394,7.50063 8.936922,-21.70395 h 4.30887 l 8.93692,21.70395 h -5.10681 l -1.43629,-3.67052 h -9.096509 l -1.436291,3.67052 z m 28.087472,0 v -17.39508 h -5.90476 v -4.30887 h 16.43756 v 4.30887 h -5.74517 v 17.39508 z m 14.20332,0 V 107.3105 h 14.84167 v 4.30887 h -10.05404 v 4.14929 h 9.41569 v 4.30887 h -9.41569 v 4.62805 h 10.21363 v 4.30887 z m 25.21488,-11.49033 h 3.83011 c 1.91505,0 3.19176,-1.11711 3.19176,-3.03217 0,-1.59588 -1.11712,-2.87258 -2.713,-2.87258 h -4.14928 z m -4.78763,11.49033 V 107.3105 h 9.0965 c 2.07465,0 3.83011,0.63835 5.2664,2.07464 1.43629,1.43629 2.23423,3.03217 2.23423,5.10681 0,2.713 -1.59587,5.10682 -3.83011,6.22393 l 5.26641,8.45816 h -5.42599 l -4.46846,-7.18146 h -3.19176 v 7.18146 z m 21.86353,-21.70395 h 4.78764 v 21.70395 h -4.78764 z m 16.59714,14.20332 h 6.38352 l -3.19176,-7.81981 z m -7.97939,7.50063 8.93692,-21.70395 h 4.30888 l 8.93692,21.70395 h -5.10682 l -1.43629,-3.67052 h -9.09651 l -1.43629,3.67052 z m 26.01283,0 V 107.3105 h 4.78763 v 17.39508 h 8.45816 v 4.30887 z m 19.78889,-6.86228 c 1.11712,1.91506 3.03217,2.87258 5.42599,2.87258 2.23423,0 3.19176,-0.95752 3.19176,-2.07464 0,-0.79794 -0.47876,-1.43629 -1.11711,-1.75547 -0.47877,-0.31917 -1.27671,-0.63835 -1.91506,-0.79793 -0.47876,-0.15959 -1.75547,-0.63836 -2.39382,-0.79794 -3.35134,-1.27671 -5.2664,-3.03217 -5.2664,-6.22393 0,-1.91506 0.63835,-3.35135 2.07464,-4.46846 1.4363,-1.11712 3.19176,-1.75547 5.10682,-1.75547 3.19176,0 5.58557,1.11712 7.18145,3.51093 l -3.19176,2.39382 c -0.79793,-1.11711 -2.23423,-1.75546 -3.8301,-1.75546 -1.59587,0 -2.55341,0.79794 -2.55341,1.75546 0,0.63835 0.15959,1.11712 0.79794,1.59588 0.31918,0.15959 0.63835,0.31918 0.95753,0.47876 l 1.59587,0.47877 c 0.63836,0.31917 1.27671,0.47876 1.91506,0.63835 3.9897,1.43629 5.58558,3.35135 5.58558,6.38352 0,3.98969 -2.713,6.70269 -8.13899,6.70269 -4.46846,0 -7.50063,-1.91506 -8.93692,-4.78764 z m 36.54563,-11.49033 -1.59588,1.4363 c -1.75546,-1.91506 -3.83011,-2.87259 -6.70269,-2.87259 -2.5534,0 -4.62805,0.79794 -6.38351,2.55341 -1.75547,1.75547 -2.55341,3.83011 -2.55341,6.38351 0,2.55341 0.79794,4.78764 2.55341,6.54311 1.75546,1.75547 3.83011,2.5534 6.38351,2.5534 2.87258,0 5.10681,-0.95752 6.70269,-3.03217 l 1.59588,1.4363 c -2.23422,2.5534 -4.94722,3.83011 -8.45816,3.83011 -3.19175,0 -5.90475,-1.11712 -7.97939,-3.19176 -2.23423,-2.23423 -3.19176,-4.78764 -3.19176,-8.13899 0,-3.19175 1.11712,-5.90475 3.19176,-7.97939 2.23423,-2.07464 4.94722,-3.19176 7.97939,-3.19176 3.51094,0 6.38352,1.11712 8.45816,3.67052 m 5.10681,18.35261 V 107.3105 h 2.39382 v 19.46972 h 8.93692 v 2.23423 z m 16.27797,-10.85198 c 0,2.55341 0.79794,4.78764 2.55341,6.54311 1.75546,1.75547 3.8301,2.5534 6.38351,2.5534 2.55341,0 4.62805,-0.79793 6.38352,-2.5534 1.75546,-1.75547 2.5534,-3.83011 2.5534,-6.54311 0,-2.5534 -0.79794,-4.78763 -2.5534,-6.38351 -1.75547,-1.75547 -3.83011,-2.55341 -6.38352,-2.55341 -2.55341,0 -4.62805,0.79794 -6.38351,2.55341 -1.75547,1.75547 -2.55341,3.83011 -2.55341,6.38351 m -2.39382,0 c 0,-3.19175 1.11712,-5.90475 3.19176,-7.97939 2.23423,-2.07464 4.94722,-3.19176 7.97939,-3.19176 3.19176,0 5.90475,1.11712 7.9794,3.19176 2.23423,2.07464 3.35134,4.78764 3.35134,7.97939 0,3.19176 -1.11711,5.90476 -3.35134,8.13899 -2.23423,2.07464 -4.78764,3.19176 -7.9794,3.19176 -3.19175,0 -5.90475,-1.11712 -7.97939,-3.19176 -2.07464,-2.23423 -3.19176,-4.94723 -3.19176,-8.13899 m 28.24706,-10.85197 h 2.39382 v 13.88414 c 0,3.83011 2.23423,6.06434 5.74516,6.06434 3.51093,0 5.74516,-2.07464 5.74516,-6.06434 V 107.3105 h 2.39382 v 14.20332 c 0,2.55341 -0.79794,4.46846 -2.23423,5.90475 -1.43629,1.43629 -3.51093,2.07465 -5.90475,2.07465 -2.39382,0 -4.46846,-0.63836 -5.90475,-2.07465 -1.43629,-1.43629 -2.23423,-3.35134 -2.23423,-5.90475 z m 25.53406,19.46972 h 4.46846 c 5.90475,0 8.93692,-3.35134 8.93692,-8.61775 0,-5.2664 -3.03217,-8.61774 -8.93692,-8.61774 h -4.30887 z m -2.39382,2.23423 V 107.3105 h 7.02187 c 3.51093,0 6.22393,0.95752 8.13898,3.03217 2.07464,2.07464 3.03217,4.62805 3.03217,7.8198 0,3.35135 -0.95753,5.90476 -3.03217,7.81981 -2.07464,1.91506 -4.78764,3.03217 -8.13898,3.03217 z"
   style="stroke-width:1" />
<path
   id="path10"
   inkscape:connector-curvature="0"
   class="st1"
   d="m 230.71488,76.510035 h -15.63961 c -3.19176,-0.159588 -4.30887,-2.553406 -2.87258,-4.947224 l 16.27796,-26.810766 c 0.31918,-0.478763 0.79794,-0.638351 1.75547,-0.638351 v 0 0 c 2.87258,0.478763 5.2664,-1.276703 6.38351,-2.712994 0.79794,-0.957528 1.91506,-0.79794 2.39382,-0.638352 6.38352,3.03217 10.5328,9.575273 10.5328,16.916316 0,10.373213 -8.45816,18.831371 -18.83137,18.831371 m -21.0656,-9.256097 c -1.11712,1.915054 -2.55341,3.989697 -4.30887,3.989697 -1.91506,0 -3.19176,-1.915055 -4.30888,-3.989697 L 187.14739,44.273282 c -1.91506,-3.191758 0.15959,-5.425989 2.5534,-5.425989 h 31.59841 c 2.39381,0 4.30887,2.234231 2.5534,5.266401 z m -4.30887,14.682085 c -1.75547,0 -3.19176,-1.436291 -3.19176,-3.191757 0,-1.755467 1.43629,-3.191758 3.19176,-3.191758 1.75546,0 3.19175,1.436291 3.19175,3.191758 0,1.755466 -1.43629,3.191757 -3.19175,3.191757 m -10.37322,-5.425988 h -15.00126 c -10.37321,0 -18.83137,-8.458158 -18.83137,-18.831371 0,-7.341043 4.14929,-13.724558 10.5328,-16.916316 0.47877,-0.159588 1.59588,-0.478764 2.39382,0.478764 1.11712,1.436291 2.55341,2.553406 4.78764,2.872582 0.79794,0.159588 1.59588,0 1.59588,0 1.2767,-0.159588 1.75546,0.478763 1.91505,0.797939 l 15.63961,25.853238 c 1.91506,3.03217 0.79794,5.745164 -3.03217,5.745164 m -15.00126,-43.08873 c 1.75547,0 3.19176,1.436291 3.19176,3.191758 0,1.755467 -1.43629,3.191758 -3.19176,3.191758 -1.75546,0 -3.19176,-1.436291 -3.19176,-3.191758 0,-1.755467 1.4363,-3.191758 3.19176,-3.191758 m 3.67052,-5.2664 c 3.51094,-8.777335 11.9691,-14.682086 21.70396,-14.682086 9.57527,0 18.19302,6.064339 21.70395,14.682086 0.63835,1.755466 -0.47876,2.393818 -0.47876,2.393818 -1.59588,1.117115 -2.23423,2.393818 -2.39382,2.712994 v 0 c -0.15959,0.319176 -0.47877,1.117115 -1.43629,1.117115 h -34.63058 c -0.95752,0 -1.11711,-0.478763 -1.43629,-1.117115 0,-0.159588 -0.47876,-1.436291 -2.39381,-2.712994 -0.63836,-0.319176 -1.11712,-0.797939 -0.63836,-2.393818 m 47.07843,5.2664 c 1.75547,0 3.19176,1.436291 3.19176,3.191758 0,1.755467 -1.43629,3.191758 -3.19176,3.191758 -1.75547,0 -3.19176,-1.436291 -3.19176,-3.191758 0,-1.755467 1.43629,-3.191758 3.19176,-3.191758 m 8.77734,2.712994 v 0 c -0.95753,-0.319176 -1.27671,-0.957527 -1.59588,-1.915054 -0.79794,-2.234231 -2.39382,-3.83011 -4.46846,-4.468461 -1.11712,-0.478764 -1.75547,-1.436291 -1.91506,-1.915055 v 0 C 227.68271,16.824164 217.14991,9.004358 205.34041,9.004358 c -11.96909,0 -22.5019,7.660218 -26.17242,18.831371 v 0 c -0.15958,0.319176 -0.79794,1.436291 -1.91505,1.915055 -2.07464,0.797939 -3.51094,2.074642 -4.30887,4.628048 -0.31918,0.957528 -0.63836,1.595879 -1.59588,1.915055 v 0 c -8.61775,3.510934 -14.5225,11.969092 -14.5225,21.544365 0,12.767031 10.37321,23.299832 23.29983,23.299832 h 15.7992 c 2.23423,0 2.55341,0.638351 3.35135,1.915055 1.2767,2.074642 3.67052,3.351345 6.22392,3.351345 2.87259,0 5.26641,-1.595879 6.54311,-3.989697 0.47876,-0.638352 1.11711,-1.276703 3.03217,-1.276703 h 15.79921 c 12.76703,0 23.29982,-10.373213 23.29982,-23.299832 -0.15959,-9.734861 -6.06433,-18.193019 -14.68207,-21.703953"
   style="stroke-width:1" />


<g
   id="flowRoot4156"
   transform="translate(-1.0681153e-4)">
</g>


<g
   id="g120"
   transform="matrix(0.91911111,0,0,0.91911111,162.58015,-26.787539)">
	<path
   id="path16"
   inkscape:connector-curvature="0"
   sodipodi:nodetypes="cc"
   class="st4"
   d="m 124.8,236.3 h 36.7" />
	<path
   id="path101"
   inkscape:connector-curvature="0"
   class="st4"
   d="m 114.5,236.3 c 0,2.8 2.2,5 5,5 2.8,0 5,-2.2 5,-5 0,-2.8 -2.2,-5 -5,-5 -2.8,0 -5,2.2 -5,5 z" />
	<path
   id="path18"
   inkscape:connector-curvature="0"
   class="st4"
   d="m 162.1,236.3 c 0,2.8 2.2,5 5,5 2.8,0 5,-2.2 5,-5 0,-2.8 -2.2,-5 -5,-5 -2.8,0 -5,2.2 -5,5 z" />
</g>
<path
   id="path20"
   inkscape:connector-curvature="0"
   class="st5"
   d="m 365.8,185.2 c 0,-10.4 8.6,-18.8 19.3,-18.8 10.6,0 19.3,8.4 19.3,18.8 m -38.6,0.5 c -7.9,0 -14.3,6.4 -14.3,14.3 0,7.9 6.4,14.3 14.3,14.3 m 38.5,-28.6 c 7.9,0 14.3,6.4 14.3,14.3 0,7.9 -6.4,14.3 -14.3,14.3 m -38.6,0.1 h 38.7" />
<path
   id="path86"
   inkscape:connector-curvature="0"
   class="st5"
   d="m 180.7,171.4 11.4,19 11.4,19 11.4,-19 11.4,-19 z" /><g
   id="g369"
   transform="translate(0,22)"><g
     id="g94"
     transform="matrix(1.0374354,0,0,1.0374354,-234.57415,-172.59483)">
	<path
   id="path90"
   inkscape:connector-curvature="0"
   class="st6"
   d="m 228.2,338.9 c 0,-11.3 9.4,-20.4 21,-20.4 11.6,0 21,9.2 21,20.4" />
	<path
   id="path92"
   inkscape:connector-curvature="0"
   class="st6"
   d="m 228.2,338.9 h 42.1" />
</g><g
     id="text98"
     transform="matrix(0.95248649,0,0,0.95248649,1.4198392,-62.225687)">
	<path
   id="path3991"
   inkscape:connector-curvature="0"
   class="st7"
   d="m 5.4,306 v -1.2 H 0.6 V 294.4 H -0.7 V 306 Z" />
	<path
   id="path3993"
   inkscape:connector-curvature="0"
   class="st7"
   d="m 14.2,306 v -1.2 H 8.9 v -4.3 h 4.9 v -1.2 H 8.9 v -3.7 h 5.3 v -1.2 H 7.6 V 306 Z" />
	<path
   id="path3995"
   inkscape:connector-curvature="0"
   class="st7"
   d="m 17.1,306 1.2,-2.9 h 5.6 l 1.2,2.9 h 1.4 l -4.9,-11.6 h -1 L 15.7,306 Z m 4,-9.6 2.3,5.5 h -4.6 z" />
	<path
   id="path3997"
   inkscape:connector-curvature="0"
   class="st7"
   d="m 29.9,306 v -4.6 h 2.6 v 0 l 2.6,4.6 h 1.5 l -2.8,-4.9 c 1.3,-0.5 2.2,-1.8 2.2,-3.3 0,-1 -0.3,-1.8 -1,-2.5 -0.7,-0.7 -1.5,-1 -2.5,-1 h -4 V 306 Z m 0,-10.4 h 2.6 c 1.3,0 2.2,1 2.2,2.3 0,0.7 -0.2,1.2 -0.7,1.7 -0.4,0.5 -1,0.7 -1.6,0.7 h -2.5 z" />
	<path
   id="path3999"
   inkscape:connector-curvature="0"
   class="st7"
   d="m 40,306 v -9.4 l 7.1,9.4 h 1 v -11.6 h -1.3 v 9.3 l -7,-9.3 H 38.7 V 306 Z" />
</g></g>


<g
   id="g127"
   transform="matrix(0.91911111,0,0,0.91911111,91.210593,-26.787999)">
	<path
   id="path89"
   inkscape:connector-curvature="0"
   class="st4"
   d="m -4.3,216.2 c 0,2.8 2.2,5 5,5 2.8,0 5,-2.2 5,-5 0,-2.8 -2.2,-5 -5,-5 -2.7,0 -5,2.3 -5,5 z" />
	<path
   id="path93"
   inkscape:connector-curvature="0"
   class="st4"
   d="m 43.3,216.2 c 0,2.8 2.2,5 5,5 2.8,0 5,-2.2 5,-5 0,-2.8 -2.2,-5 -5,-5 -2.8,0 -5,2.3 -5,5 z" />
	<path
   id="path122"
   inkscape:connector-curvature="0"
   class="st4"
   d="m 19.5,256.4 c 0,2.8 2.2,5 5,5 2.8,0 5,-2.2 5,-5 0,-2.8 -2.2,-5 -5,-5 -2.7,0 -5,2.2 -5,5 z" />
</g>
<g
   id="text102"
   transform="matrix(0.95248649,0,0,0.95248649,5.6828324,-40.225687)">
	<path
   id="path4002"
   inkscape:connector-curvature="0"
   class="st7"
   d="m 93.5,306 3,-9 3,9 h 0.8 l 3.4,-11.6 h -1.3 l -2.6,8.8 -2.9,-8.8 H 96 l -2.9,8.8 -2.6,-8.8 h -1.3 l 3.4,11.6 z" />
	<path
   id="path4004"
   inkscape:connector-curvature="0"
   class="st7"
   d="m 106.2,304.5 c 1.2,1.1 2.6,1.7 4.3,1.7 1.7,0 3.1,-0.6 4.3,-1.7 1.2,-1.1 1.8,-2.6 1.8,-4.3 0,-1.7 -0.6,-3.1 -1.8,-4.3 -1.2,-1.1 -2.6,-1.7 -4.3,-1.7 -1.7,0 -3.1,0.6 -4.3,1.7 -1.2,1.1 -1.8,2.6 -1.8,4.3 0.1,1.7 0.7,3.2 1.8,4.3 z m 0.9,-7.7 c 0.9,-0.9 2.1,-1.4 3.4,-1.4 1.4,0 2.5,0.5 3.4,1.4 0.9,0.9 1.3,2.1 1.3,3.5 0,1.4 -0.4,2.5 -1.3,3.5 -0.9,0.9 -2,1.4 -3.4,1.4 -1.4,0 -2.5,-0.5 -3.4,-1.4 -0.9,-0.9 -1.3,-2.1 -1.3,-3.5 0,-1.4 0.4,-2.6 1.3,-3.5 z" />
	<path
   id="path4006"
   inkscape:connector-curvature="0"
   class="st7"
   d="m 120.2,306 v -4.6 h 2.6 v 0 l 2.6,4.6 h 1.5 l -2.8,-4.9 c 1.3,-0.5 2.2,-1.8 2.2,-3.3 0,-1 -0.3,-1.8 -1,-2.5 -0.7,-0.7 -1.5,-1 -2.5,-1 h -4 V 306 Z m 0,-10.4 h 2.6 c 1.3,0 2.2,1 2.2,2.3 0,0.7 -0.2,1.2 -0.7,1.7 -0.4,0.5 -1,0.7 -1.6,0.7 h -2.5 z" />
	<path
   id="path4008"
   inkscape:connector-curvature="0"
   class="st7"
   d="m 130.3,306 v -3.8 l 1.7,-1.8 4.1,5.6 h 1.6 l -4.8,-6.5 4.6,-5.1 h -1.6 l -5.6,6.2 v -6.2 H 129 V 306 Z" />
</g>
<g
   id="text106"
   transform="matrix(0.95248649,0,0,0.95248649,14.260215,-40.225687)">
	<path
   id="path4028"
   inkscape:connector-curvature="0"
   class="st7"
   d="m 266.9,306 v -1.2 h -5.4 v -4.3 h 5 v -1.2 h -5 v -3.7 h 5.3 v -1.2 h -6.6 V 306 Z" />
	<path
   id="path4030"
   inkscape:connector-curvature="0"
   class="st7"
   d="m 269.8,306 3.3,-5.1 3.3,5.1 h 1.5 l -3.9,-6 3.6,-5.6 h -1.4 l -3,4.7 -3.1,-4.7 h -1.5 l 3.7,5.6 -3.9,6 z" />
	<path
   id="path4032"
   inkscape:connector-curvature="0"
   class="st7"
   d="m 281.4,306 v -4.5 h 2.4 c 1,0 1.8,-0.3 2.5,-1 0.7,-0.7 1,-1.5 1,-2.5 0,-1 -0.4,-1.9 -1,-2.5 -0.7,-0.7 -1.5,-1 -2.5,-1 h -3.7 V 306 Z m 0,-10.4 h 2.4 c 0.6,0 1.2,0.2 1.6,0.7 0.5,0.5 0.7,1 0.7,1.7 0,0.7 -0.2,1.2 -0.7,1.7 -0.4,0.5 -1,0.7 -1.6,0.7 h -2.4 z" />
	<path
   id="path4034"
   inkscape:connector-curvature="0"
   class="st7"
   d="m 295.8,306 v -1.2 H 291 v -10.4 h -1.3 V 306 Z" />
	<path
   id="path4036"
   inkscape:connector-curvature="0"
   class="st7"
   d="m 298.3,304.5 c 1.2,1.1 2.6,1.7 4.3,1.7 1.7,0 3.1,-0.6 4.3,-1.7 1.2,-1.1 1.8,-2.6 1.8,-4.3 0,-1.7 -0.6,-3.1 -1.8,-4.3 -1.2,-1.1 -2.6,-1.7 -4.3,-1.7 -1.7,0 -3.1,0.6 -4.3,1.7 -1.2,1.1 -1.8,2.6 -1.8,4.3 0,1.7 0.6,3.2 1.8,4.3 z m 0.9,-7.7 c 0.9,-0.9 2,-1.4 3.4,-1.4 1.4,0 2.5,0.5 3.4,1.4 0.9,0.9 1.4,2.1 1.4,3.5 0,1.4 -0.5,2.5 -1.4,3.5 -0.9,0.9 -2,1.4 -3.4,1.4 -1.4,0 -2.5,-0.5 -3.4,-1.4 -0.9,-0.9 -1.4,-2.1 -1.4,-3.5 0,-1.4 0.5,-2.6 1.4,-3.5 z" />
	<path
   id="path4038"
   inkscape:connector-curvature="0"
   class="st7"
   d="m 312.3,306 v -4.6 h 2.6 v 0 l 2.6,4.6 h 1.5 l -2.8,-4.9 c 1.3,-0.5 2.2,-1.8 2.2,-3.3 0,-1 -0.3,-1.8 -1,-2.5 -0.7,-0.7 -1.5,-1 -2.5,-1 h -4 V 306 Z m 0,-10.4 h 2.6 c 1.3,0 2.2,1 2.2,2.3 0,0.7 -0.2,1.2 -0.7,1.7 -0.4,0.5 -1,0.7 -1.6,0.7 h -2.5 z" />
	<path
   id="path4040"
   inkscape:connector-curvature="0"
   class="st7"
   d="m 327.7,306 v -1.2 h -5.4 v -4.3 h 5 v -1.2 h -5 v -3.7 h 5.3 v -1.2 H 321 V 306 Z" />
</g>
<g
   id="text110"
   transform="matrix(0.95248649,0,0,0.95248649,9.9457929,-40.225687)">
	<path
   id="path4011"
   inkscape:connector-curvature="0"
   class="st7"
   d="m 167.1,306 c 1.9,0 3.3,-0.5 4.4,-1.6 1.1,-1.1 1.6,-2.5 1.6,-4.2 0,-1.7 -0.5,-3.1 -1.6,-4.2 -1.1,-1.1 -2.5,-1.6 -4.4,-1.6 h -3.7 V 306 Z m -2.4,-10.4 h 2.3 c 3.1,0 4.8,1.8 4.8,4.6 0,2.8 -1.6,4.6 -4.8,4.6 h -2.4 z" />
	<path
   id="path4013"
   inkscape:connector-curvature="0"
   class="st7"
   d="m 176.9,306 v -11.6 h -1.3 V 306 Z" />
	<path
   id="path4015"
   inkscape:connector-curvature="0"
   class="st7"
   d="m 179.1,303.5 c 0.7,1.9 2.2,2.8 4,2.8 1.1,0 2.1,-0.3 2.7,-0.9 0.6,-0.6 1,-1.4 1,-2.4 0,-0.9 -0.2,-1.6 -0.8,-2.1 -0.5,-0.5 -1.3,-1 -2.5,-1.5 l -1,-0.5 c -0.2,-0.1 -0.4,-0.2 -0.7,-0.4 -0.5,-0.4 -0.7,-0.8 -0.7,-1.4 0,-1 0.8,-1.6 1.9,-1.6 0.9,0 1.6,0.4 2,1.2 l 1.1,-0.6 c -0.7,-1.2 -1.7,-1.9 -3.1,-1.9 -0.9,0 -1.7,0.3 -2.3,0.8 -0.6,0.5 -0.9,1.2 -0.9,2.1 0,0.9 0.2,1.5 0.7,2 0.5,0.5 1.3,0.9 2.3,1.4 0.9,0.4 1.6,0.8 2,1.1 0.4,0.3 0.6,0.8 0.6,1.5 0,0.4 -0.1,0.8 -0.4,1.2 -0.3,0.5 -1,0.8 -2,0.8 -1.4,0 -2.3,-0.7 -2.9,-2.1 z" />
	<path
   id="path4017"
   inkscape:connector-curvature="0"
   class="st7"
   d="m 194.5,294.2 c -1.7,0 -3.1,0.6 -4.3,1.7 -1.2,1.1 -1.8,2.6 -1.8,4.3 0,1.7 0.6,3.2 1.8,4.3 1.2,1.1 2.6,1.7 4.3,1.7 1.8,0 3.3,-0.7 4.5,-2 l -0.9,-0.8 c -0.9,1.1 -2.1,1.6 -3.6,1.6 -1.4,0 -2.5,-0.5 -3.4,-1.4 -0.9,-0.9 -1.4,-2.1 -1.4,-3.5 0,-1.4 0.4,-2.5 1.4,-3.5 0.9,-0.9 2,-1.4 3.4,-1.4 1.5,0 2.6,0.5 3.6,1.6 L 199,296 c -1.3,-1.2 -2.7,-1.8 -4.5,-1.8 z" />
	<path
   id="path4019"
   inkscape:connector-curvature="0"
   class="st7"
   d="m 202,304.5 c 1.2,1.1 2.6,1.7 4.3,1.7 1.7,0 3.1,-0.6 4.3,-1.7 1.2,-1.1 1.8,-2.6 1.8,-4.3 0,-1.7 -0.6,-3.1 -1.8,-4.3 -1.2,-1.1 -2.6,-1.7 -4.3,-1.7 -1.7,0 -3.1,0.6 -4.3,1.7 -1.2,1.1 -1.8,2.6 -1.8,4.3 0.1,1.7 0.7,3.2 1.8,4.3 z m 0.9,-7.7 c 0.9,-0.9 2.1,-1.4 3.4,-1.4 1.4,0 2.5,0.5 3.4,1.4 0.9,0.9 1.4,2.1 1.4,3.5 0,1.4 -0.4,2.5 -1.4,3.5 -0.9,0.9 -2,1.4 -3.4,1.4 -1.4,0 -2.5,-0.5 -3.4,-1.4 -0.9,-0.9 -1.4,-2.1 -1.4,-3.5 0,-1.4 0.5,-2.6 1.4,-3.5 z" />
	<path
   id="path4021"
   inkscape:connector-curvature="0"
   class="st7"
   d="m 218.8,306 4.9,-11.6 h -1.4 l -3.9,9.4 -3.9,-9.4 H 213 l 4.9,11.6 z" />
	<path
   id="path4023"
   inkscape:connector-curvature="0"
   class="st7"
   d="m 232.4,306 v -1.2 H 227 v -4.3 h 4.9 v -1.2 H 227 v -3.7 h 5.3 v -1.2 h -6.6 V 306 Z" />
	<path
   id="path4025"
   inkscape:connector-curvature="0"
   class="st7"
   d="m 236.2,306 v -4.6 h 2.6 v 0 l 2.6,4.6 h 1.5 l -2.8,-4.9 c 1.3,-0.5 2.2,-1.8 2.2,-3.3 0,-1 -0.3,-1.8 -1,-2.5 -0.7,-0.7 -1.5,-1 -2.5,-1 h -4 V 306 Z m 0,-10.4 h 2.6 c 1.3,0 2.2,1 2.2,2.3 0,0.7 -0.2,1.2 -0.7,1.7 -0.4,0.5 -1,0.7 -1.6,0.7 h -2.5 z" />
</g>
<g
   id="text118"
   transform="matrix(0.95248649,0,0,0.95248649,18.574625,-40.225687)">
	<path
   id="path4043"
   inkscape:connector-curvature="0"
   class="st7"
   d="m 351.2,306 1.2,-2.9 h 5.6 l 1.2,2.9 h 1.4 l -4.9,-11.6 h -1 l -4.9,11.6 z m 4,-9.6 2.3,5.5 h -4.6 z" />
	<path
   id="path4045"
   inkscape:connector-curvature="0"
   class="st7"
   d="m 364,306 v -4.6 h 2.6 v 0 l 2.6,4.6 h 1.5 l -2.8,-4.9 c 1.3,-0.5 2.2,-1.8 2.2,-3.3 0,-1 -0.3,-1.8 -1,-2.5 -0.7,-0.7 -1.5,-1 -2.5,-1 h -4 V 306 Z m 0,-10.4 h 2.6 c 1.3,0 2.2,1 2.2,2.3 0,0.7 -0.2,1.2 -0.7,1.7 -0.4,0.5 -1,0.7 -1.6,0.7 H 364 Z" />
	<path
   id="path4047"
   inkscape:connector-curvature="0"
   class="st7"
   d="m 378.1,294.2 c -1.7,0 -3.1,0.6 -4.3,1.7 -1.2,1.1 -1.8,2.6 -1.8,4.3 0,1.7 0.6,3.2 1.8,4.3 1.2,1.1 2.6,1.7 4.3,1.7 1.8,0 3.3,-0.7 4.5,-2 l -0.9,-0.8 c -0.9,1.1 -2.1,1.6 -3.6,1.6 -1.4,0 -2.5,-0.5 -3.4,-1.4 -0.9,-0.9 -1.4,-2.1 -1.4,-3.5 0,-1.4 0.5,-2.5 1.4,-3.5 0.9,-0.9 2,-1.4 3.4,-1.4 1.5,0 2.6,0.5 3.5,1.6 l 0.9,-0.8 c -1.1,-1.2 -2.6,-1.8 -4.4,-1.8 z" />
	<path
   id="path4049"
   inkscape:connector-curvature="0"
   class="st7"
   d="m 386,306 v -5.6 h 6.5 v 5.6 h 1.3 v -11.6 h -1.3 v 4.9 H 386 v -4.9 h -1.3 V 306 Z" />
	<path
   id="path4051"
   inkscape:connector-curvature="0"
   class="st7"
   d="m 398.2,306 v -11.6 h -1.3 V 306 Z" />
	<path
   id="path4053"
   inkscape:connector-curvature="0"
   class="st7"
   d="m 406.1,306 4.9,-11.6 h -1.4 l -3.9,9.4 -3.9,-9.4 h -1.4 l 4.9,11.6 z" />
	<path
   id="path4055"
   inkscape:connector-curvature="0"
   class="st7"
   d="m 419.8,306 v -1.2 h -5.4 v -4.3 h 5 v -1.2 h -5 v -3.7 h 5.3 v -1.2 h -6.6 V 306 Z" />
</g>
<text
   style="font-size:16.6667px;font-family:ArialMT;fill:#cccccc"
   id="text66"
   x="3.2119"
   y="392.37991">LEARN</text>
<text
   style="font-size:16.6667px;font-family:ArialMT;fill:#cccccc"
   id="text68"
   x="94.298698"
   y="392.37991">WORK</text>
<text
   style="font-size:16.6667px;font-family:ArialMT;fill:#cccccc"
   id="text70"
   x="264.13251"
   y="392.37991">EXPLORE</text>
<text
   style="font-size:16.6667px;font-family:ArialMT;fill:#cccccc"
   id="text72"
   x="167.31531"
   y="392.37991">DISCOVER</text>
<text
   style="font-size:16.6667px;font-family:ArialMT;fill:#cccccc"
   id="text74"
   x="354.64609"
   y="392.37991">ARCHIVE</text><a
   id="a1014-9"
   xlink:href="https://www.materialscloud.org/work"
   transform="translate(90.925965,19.894772)"
   style="fill:none"
   inkscape:label="a1014-9"><rect
     style="fill:#ffffff;fill-opacity:0.05;stroke:#010500;stroke-width:0"
     id="rect350-2"
     width="69.586678"
     height="94.342667"
     x="-10.786715"
     y="141.80598" /></a><a
   id="a1014-9-3"
   xlink:href="https://www.materialscloud.org/learn"
   transform="translate(-1.3403427,20.348351)"
   style="fill:none"
   inkscape:label="a1014-9"><rect
     style="fill:#ffffff;fill-opacity:0.05;stroke:#010500;stroke-width:0"
     id="rect350-2-0"
     width="69.586678"
     height="94.342667"
     x="-10.786715"
     y="141.80598" /></a><a
   id="a1014-9-3-8"
   xlink:href="https://www.materialscloud.org/discover"
   transform="matrix(1.1230617,0,0,1,176.53908,19.894772)"
   style="fill:none;stroke-width:0.943622"
   inkscape:label="a1014-9"><rect
     style="fill:#ffffff;fill-opacity:0.05;stroke:#010500;stroke-width:0"
     id="rect350-2-0-6"
     width="69.586678"
     height="94.342667"
     x="-10.786715"
     y="141.80598" /></a><a
   id="a1014-9-3-8-8"
   xlink:href="https://www.materialscloud.org/explore"
   transform="matrix(1.1230617,0,0,1,268.68831,19.894772)"
   style="fill:none;stroke-width:0.943622"
   inkscape:label="a1014-9"><rect
     style="fill:#ffffff;fill-opacity:0.05;stroke:#010500;stroke-width:0"
     id="rect350-2-0-6-6"
     width="69.586678"
     height="94.342667"
     x="-10.786715"
     y="141.80598" /></a><a
   id="a1014-9-3-8-8-2"
   xlink:href="https://www.materialscloud.org/archive"
   transform="matrix(1.1230617,0,0,1,358.42378,19.894772)"
   style="fill:none;stroke-width:0.943622"
   inkscape:label="a1014-9"><rect
     style="fill:#ffffff;fill-opacity:0.05;stroke:#010500;stroke-width:0"
     id="rect350-2-0-6-6-7"
     width="69.586678"
     height="94.342667"
     x="-10.786715"
     y="141.80598" /></a>
</svg>
