<?xml version="1.0" encoding="UTF-8" standalone="no"?>
<!-- Generator: Adobe Illustrator 25.2.0, SVG Export Plug-In . SVG Version: 6.00 Build 0)  -->

<svg
   version="1.1"
   id="svg2"
   x="0px"
   y="0px"
   viewBox="0 0 428.57143 391.42857"
   xml:space="preserve"
   sodipodi:docname="mcloud-home-dark-links.svg"
   width="300"
   height="274"
   inkscape:version="1.2.1 (9c6d41e410, 2022-07-14)"
   xmlns:inkscape="http://www.inkscape.org/namespaces/inkscape"
   xmlns:sodipodi="http://sodipodi.sourceforge.net/DTD/sodipodi-0.dtd"
   xmlns:xlink="http://www.w3.org/1999/xlink"
   xmlns="http://www.w3.org/2000/svg"
   xmlns:svg="http://www.w3.org/2000/svg"><defs
   id="defs208" />
<style
   type="text/css"
   id="style2">
	.st0{fill:#FFFFFF;}
	.st1{fill:#D21F15;}
	.st2{fill:#231F20;}
	.st3{fill:none;stroke:#3B3A3C;stroke-width:3.2537;stroke-linecap:round;stroke-linejoin:round;stroke-miterlimit:3.379;}
	.st4{fill:none;stroke:#3B3A3C;stroke-width:3.8517;stroke-linecap:round;stroke-linejoin:round;}
	.st5{fill:none;stroke:#3B3A3C;stroke-width:4.1455;stroke-linecap:round;stroke-linejoin:round;stroke-miterlimit:4.305;}
	.st6{fill:#3C3738;stroke:#363435;stroke-width:0.2381;stroke-miterlimit:9.5249;}
	.st7{fill:#3C3738;stroke:#363435;stroke-width:0.25;stroke-miterlimit:10;}
</style>
<sodipodi:namedview
   bordercolor="#666666"
   borderopacity="1"
   fit-margin-bottom="0"
   fit-margin-left="0"
   fit-margin-right="0"
   fit-margin-top="0"
   gridtolerance="10"
   guidetolerance="10"
   id="namedview27"
   inkscape:current-layer="svg2"
   inkscape:cx="147.75"
   inkscape:cy="153.5"
   inkscape:pageopacity="0"
   inkscape:pageshadow="2"
   inkscape:snap-text-baseline="true"
   inkscape:window-height="1147"
   inkscape:window-maximized="1"
   inkscape:window-width="1920"
   inkscape:window-x="-8"
   inkscape:window-y="-8"
   inkscape:zoom="2"
   objecttolerance="10"
   pagecolor="#ffffff"
   showgrid="false"
   inkscape:showpageshadow="2"
   inkscape:pagecheckerboard="0"
   inkscape:deskcolor="#d1d1d1"
   showguides="true">
	<sodipodi:guide
   position="160.48011,108.17724"
   orientation="0,-1"
   id="guide1527"
   inkscape:locked="false" /><sodipodi:guide
   position="35,85.973432"
   orientation="0,-1"
   id="guide4442"
   inkscape:locked="false" /><sodipodi:guide
   position="29.720903,153.4659"
   orientation="1,0"
   id="guide4444"
   inkscape:locked="false" /><sodipodi:guide
   position="119.4431,150.23285"
   orientation="1,0"
   id="guide4446"
   inkscape:locked="false" /><sodipodi:guide
   position="209.21428,145.07143"
   orientation="1,0"
   id="guide4448"
   inkscape:locked="false" /><sodipodi:guide
   position="299.86519,164.11097"
   orientation="1,0"
   id="guide4450"
   inkscape:locked="false" /><sodipodi:guide
   position="390.76428,140.07143"
   orientation="1,0"
   id="guide4452"
   inkscape:locked="false" /></sodipodi:namedview>
<path
   id="path4"
   inkscape:connector-curvature="0"
   class="st0"
   d="m 36.514286,146.55714 v -26 h 4.8 l 8.9,13.3 8.9,-13.3 h 4.8 v 26 h -5.4 v -15.9 l -8.3,12.3 -8.4,-12.3 v 15.9 z m 41.5,-8.9 h 7.6 l -3.8,-9.4 z m -9.5,8.9 10.8,-26 h 5.1 l 10.8,26 h -6.1 l -1.8,-4.4 h -10.9 l -1.8,4.4 z m 33.600004,0 v -20.8 h -7.100004 v -5.2 h 19.699994 v 5.2 h -6.9 v 20.8 z m 17.19999,0 v -26 h 17.8 v 5.2 h -12 v 4.9 h 11.2 v 5.1 h -11.2 v 5.6 h 12.3 v 5.2 z m 30.1,-13.7 h 4.6 c 2.2,0 3.7,-1.4 3.7,-3.6 0,-2 -1.4,-3.4 -3.2,-3.4 h -5 z m -5.7,13.7 v -26 h 10.9 c 2.4,0 4.5,0.8 6.2,2.5 1.8,1.6 2.6,3.7 2.6,6.1 0,3.3 -1.8,6.2 -4.6,7.4 l 6.3,10 h -6.5 l -5.4,-8.7 h -3.8 v 8.7 z m 26.2,-26 h 5.7 v 26 h -5.8 z m 19.8,17.1 h 7.6 l -3.8,-9.4 z m -9.5,8.9 10.7,-26 h 5.1 l 10.8,26 h -6.1 l -1.8,-4.4 h -10.9 l -1.8,4.4 z m 31.1,0 v -26 h 5.8 v 20.8 h 10.2 v 5.2 z m 23.7,-8.2 c 1.4,2.3 3.5,3.4 6.5,3.4 2.6,0 3.9,-1.2 3.9,-2.6 0,-1 -0.6,-1.6 -1.4,-2.2 -0.5,-0.3 -1.5,-0.8 -2.2,-1 -0.6,-0.3 -2.1,-0.8 -2.9,-1 -4.1,-1.5 -6.3,-3.6 -6.3,-7.5 0,-2.2 0.8,-4 2.5,-5.3 1.7,-1.3 3.7,-2 6.2,-2 3.8,0 6.6,1.4 8.7,4.3 l -3.8,2.9 c -1,-1.3 -2.6,-2 -4.7,-2 -1.9,0 -3.1,0.9 -3.1,2.1 0,0.9 0.2,1.4 1,1.9 0.4,0.2 0.8,0.4 1.2,0.6 l 1.9,0.6 c 0.9,0.3 1.6,0.6 2.2,0.8 4.7,1.8 6.6,4 6.6,7.7 0,4.8 -3.3,8 -9.7,8 -5.3,0 -8.9,-2.4 -10.7,-5.8 z m 43.8,-13.9 -2,1.8 c -2,-2.4 -4.7,-3.5 -8,-3.5 -3.1,0 -5.6,1 -7.6,3.1 -2,2.1 -3,4.6 -3,7.7 0,3.1 1,5.7 3,7.8 2,2.1 4.6,3.1 7.6,3.1 3.4,0 6,-1.2 8.1,-3.7 l 2,1.8 c -2.6,3 -6,4.6 -10,4.6 -3.8,0 -7,-1.3 -9.6,-3.8 -2.6,-2.6 -3.9,-5.8 -3.9,-9.7 0,-3.9 1.3,-7.1 3.9,-9.6 2.6,-2.6 5.9,-3.9 9.6,-3.9 4,-0.1 7.3,1.4 9.9,4.3 m 6,22.1 v -26 h 2.9 v 23.3 h 10.7 v 2.7 z m 19.5,-13 c 0,3.1 1,5.7 3,7.8 2.1,2.1 4.6,3.1 7.6,3.1 3.1,0 5.6,-1 7.6,-3.1 2,-2.1 3,-4.7 3,-7.8 0,-3.1 -1,-5.7 -3,-7.7 -2,-2.1 -4.6,-3.1 -7.6,-3.1 -3.1,0 -5.6,1 -7.6,3.1 -2,2.1 -3,4.6 -3,7.7 m -2.9,0 c 0,-3.9 1.3,-7.1 3.9,-9.6 2.7,-2.6 5.9,-3.9 9.6,-3.9 3.8,0 7,1.3 9.6,3.9 2.7,2.6 4,5.8 4,9.6 0,3.8 -1.3,7.1 -4,9.7 -2.6,2.6 -5.8,3.8 -9.6,3.8 -3.8,0 -7,-1.3 -9.6,-3.8 -2.5,-2.6 -3.9,-5.8 -3.9,-9.7 m 33.7,-13 h 2.9 v 16.6 c 0,4.7 2.6,7.2 6.8,7.2 4.2,0 6.8,-2.5 6.8,-7.2 v -16.6 h 2.9 v 16.9 c 0,3.1 -0.9,5.4 -2.7,7.1 -1.8,1.6 -4.1,2.5 -7.1,2.5 -2.9,0 -5.3,-0.8 -7.1,-2.5 -1.8,-1.7 -2.7,-4 -2.7,-7.1 z m 30.7,23.3 h 5.3 c 7,0 10.7,-4 10.7,-10.3 0,-6.3 -3.7,-10.3 -10.8,-10.3 h -5.2 z m -2.9,2.7 v -26 h 8.4 c 4.1,0 7.4,1.2 9.8,3.6 2.4,2.4 3.6,5.5 3.6,9.4 0,3.9 -1.2,7.1 -3.6,9.4 -2.4,2.4 -5.7,3.5 -9.8,3.5 z" />
<path
   id="path6"
   inkscape:connector-curvature="0"
   class="st1"
   d="m 240.81428,83.657143 h -18.6 c -3.9,-0.2 -5.1,-3 -3.5,-6 l 19.4,-32 c 0.4,-0.6 0.9,-0.8 2,-0.7 v 0 0 c 3.5,0.5 6.3,-1.6 7.6,-3.3 0.9,-1.2 2.3,-0.9 2.9,-0.7 7.6,3.7 12.6,11.5 12.6,20.2 0.1,12.4 -10,22.5 -22.4,22.5 m -25.3,-11 c -1.4,2.4 -3,4.7 -5.2,4.7 -2.2,0 -3.8,-2.4 -5.2,-4.7 l -16.6,-27.5 c -2.3,-3.8 0.1,-6.5 3,-6.5 h 37.8 c 2.8,0 5.2,2.6 3,6.3 z m -5.2,17.5 c -2.1,0 -3.8,-1.7 -3.8,-3.8 0,-2.1 1.7,-3.8 3.8,-3.8 2.1,0 3.8,1.7 3.8,3.8 0,2.1 -1.7,3.8 -3.8,3.8 m -12.5,-6.5 h -18 c -12.4,0 -22.5,-10.1 -22.5,-22.5 0,-8.7 5,-16.5 12.6,-20.2 0.6,-0.2 2,-0.5 2.8,0.5 1.4,1.8 3,3 5.8,3.4 1,0.1 1.9,0.1 1.9,0.1 1.4,-0.2 2,0.6 2.3,1 l 18.8,31 c 2.3,3.4 1,6.7 -3.7,6.7 m -18,-51.5 c 2.1,0 3.8,1.7 3.8,3.8 0,2.1 -1.7,3.8 -3.8,3.8 -2.1,0 -3.8,-1.7 -3.8,-3.8 0,-2.1 1.7,-3.8 3.8,-3.8 m 4.5,-6.3 c 4.1,-10.5 14.4,-17.7000001 25.9,-17.7000001 11.5,0 21.8,7.2000001 25.9,17.7000001 0.7,2.1 -0.6,2.8 -0.6,2.8 -2,1.3 -2.6,2.8 -2.8,3.3 v 0 c -0.2,0.4 -0.6,1.4 -1.7,1.4 h -41.5 c -1.1,0 -1.4,-0.7 -1.7,-1.4 -0.1,-0.2 -0.5,-1.8 -2.9,-3.3 -0.5,-0.4 -1.2,-1.1 -0.6,-2.8 m 56.4,6.3 c 2.1,0 3.8,1.7 3.8,3.8 0,2.1 -1.7,3.8 -3.8,3.8 -2.1,0 -3.8,-1.7 -3.8,-3.8 0,-2.1 1.7,-3.8 3.8,-3.8 m 10.4,3.2 v 0 c -1.1,-0.4 -1.6,-1.2 -1.9,-2.4 -0.9,-2.6 -2.9,-4.5 -5.3,-5.4 -1.3,-0.5 -2.1,-1.8 -2.3,-2.3 v 0 c -4.5,-13.2 -17.1,-22.4000001 -31.3,-22.4000001 -14.2,0 -26.9,9.2000001 -31.4,22.5000001 v 0 c -0.2,0.5 -1,1.8 -2.4,2.3 -2.5,1 -4.3,2.5 -5.2,5.5 -0.4,1.2 -0.8,1.8 -1.8,2.2 h -0.1 c -10.4,4.2 -17.4,14.3 -17.4,25.8 0,15.3 12.5,27.8 27.8,27.8 h 18.9 c 2.7,0 3.1,0.7 4,2.3 1.5,2.5 4.4,4.1 7.5,4.1 3.4,0 6.4,-1.9 7.9,-4.7 0.5,-0.8 1.3,-1.6 3.6,-1.6 h 19 c 15.3,0 27.8,-12.5 27.8,-27.8 0.1,-11.6 -6.9,-21.7 -17.4,-25.9" />
<path
   id="path8"
   inkscape:connector-curvature="0"
   class="st2"
   d="m 36.514286,146.55714 v -26 h 4.8 l 8.9,13.3 8.9,-13.3 h 4.8 v 26 h -5.4 v -15.9 l -8.3,12.3 -8.4,-12.3 v 15.9 z m 41.5,-8.9 h 7.6 l -3.8,-9.4 z m -9.5,8.9 10.8,-26 h 5.1 l 10.8,26 h -6.1 l -1.8,-4.4 h -10.9 l -1.8,4.4 z m 33.600004,0 v -20.8 h -7.100004 v -5.2 h 19.699994 v 5.2 h -6.9 v 20.8 z m 17.19999,0 v -26 h 17.8 v 5.2 h -12 v 4.9 h 11.2 v 5.1 h -11.2 v 5.6 h 12.3 v 5.2 z m 30.1,-13.7 h 4.6 c 2.2,0 3.7,-1.4 3.7,-3.6 0,-2 -1.4,-3.4 -3.2,-3.4 h -5 z m -5.7,13.7 v -26 h 10.9 c 2.4,0 4.5,0.8 6.2,2.5 1.8,1.6 2.6,3.7 2.6,6.1 0,3.3 -1.8,6.2 -4.6,7.4 l 6.3,10 h -6.5 l -5.4,-8.7 h -3.8 v 8.7 z m 26.2,-26 h 5.7 v 26 h -5.8 z m 19.8,17.1 h 7.6 l -3.8,-9.4 z m -9.5,8.9 10.7,-26 h 5.1 l 10.8,26 h -6.1 l -1.8,-4.4 h -10.9 l -1.8,4.4 z m 31.1,0 v -26 h 5.8 v 20.8 h 10.2 v 5.2 z m 23.7,-8.2 c 1.4,2.3 3.5,3.4 6.5,3.4 2.6,0 3.9,-1.2 3.9,-2.6 0,-1 -0.6,-1.6 -1.4,-2.2 -0.5,-0.3 -1.5,-0.8 -2.2,-1 -0.6,-0.3 -2.1,-0.8 -2.9,-1 -4.1,-1.5 -6.3,-3.6 -6.3,-7.5 0,-2.2 0.8,-4 2.5,-5.3 1.7,-1.3 3.7,-2 6.2,-2 3.8,0 6.6,1.4 8.7,4.3 l -3.8,2.9 c -1,-1.3 -2.6,-2 -4.7,-2 -1.9,0 -3.1,0.9 -3.1,2.1 0,0.9 0.2,1.4 1,1.9 0.4,0.2 0.8,0.4 1.2,0.6 l 1.9,0.6 c 0.9,0.3 1.6,0.6 2.2,0.8 4.7,1.8 6.6,4 6.6,7.7 0,4.8 -3.3,8 -9.7,8 -5.3,0 -8.9,-2.4 -10.7,-5.8 z m 43.8,-13.9 -2,1.8 c -2,-2.4 -4.7,-3.5 -8,-3.5 -3.1,0 -5.6,1 -7.6,3.1 -2,2.1 -3,4.6 -3,7.7 0,3.1 1,5.7 3,7.8 2,2.1 4.6,3.1 7.6,3.1 3.4,0 6,-1.2 8.1,-3.7 l 2,1.8 c -2.6,3 -6,4.6 -10,4.6 -3.8,0 -7,-1.3 -9.6,-3.8 -2.6,-2.6 -3.9,-5.8 -3.9,-9.7 0,-3.9 1.3,-7.1 3.9,-9.6 2.6,-2.6 5.9,-3.9 9.6,-3.9 4,-0.1 7.3,1.4 9.9,4.3 m 6,22.1 v -26 h 2.9 v 23.3 h 10.7 v 2.7 z m 19.5,-13 c 0,3.1 1,5.7 3,7.8 2.1,2.1 4.6,3.1 7.6,3.1 3.1,0 5.6,-1 7.6,-3.1 2,-2.1 3,-4.7 3,-7.8 0,-3.1 -1,-5.7 -3,-7.7 -2,-2.1 -4.6,-3.1 -7.6,-3.1 -3.1,0 -5.6,1 -7.6,3.1 -2,2.1 -3,4.6 -3,7.7 m -2.9,0 c 0,-3.9 1.3,-7.1 3.9,-9.6 2.7,-2.6 5.9,-3.9 9.6,-3.9 3.8,0 7,1.3 9.6,3.9 2.7,2.6 4,5.8 4,9.6 0,3.8 -1.3,7.1 -4,9.7 -2.6,2.6 -5.8,3.8 -9.6,3.8 -3.8,0 -7,-1.3 -9.6,-3.8 -2.5,-2.6 -3.9,-5.8 -3.9,-9.7 m 33.7,-13 h 2.9 v 16.6 c 0,4.7 2.6,7.2 6.8,7.2 4.2,0 6.8,-2.5 6.8,-7.2 v -16.6 h 2.9 v 16.9 c 0,3.1 -0.9,5.4 -2.7,7.1 -1.8,1.6 -4.1,2.5 -7.1,2.5 -2.9,0 -5.3,-0.8 -7.1,-2.5 -1.8,-1.7 -2.7,-4 -2.7,-7.1 z m 30.7,23.3 h 5.3 c 7,0 10.7,-4 10.7,-10.3 0,-6.3 -3.7,-10.3 -10.8,-10.3 h -5.2 z m -2.9,2.7 v -26 h 8.4 c 4.1,0 7.4,1.2 9.8,3.6 2.4,2.4 3.6,5.5 3.6,9.4 0,3.9 -1.2,7.1 -3.6,9.4 -2.4,2.4 -5.7,3.5 -9.8,3.5 z" />
<path
   id="path10"
   inkscape:connector-curvature="0"
   class="st1"
   d="m 240.81428,83.657143 h -18.6 c -3.9,-0.2 -5.1,-3 -3.5,-6 l 19.4,-32 c 0.4,-0.6 0.9,-0.8 2,-0.7 v 0 0 c 3.5,0.5 6.3,-1.6 7.6,-3.3 0.9,-1.2 2.3,-0.9 2.9,-0.7 7.6,3.7 12.6,11.5 12.6,20.2 0.1,12.4 -10,22.5 -22.4,22.5 m -25.3,-11 c -1.4,2.4 -3,4.7 -5.2,4.7 -2.2,0 -3.8,-2.4 -5.2,-4.7 l -16.6,-27.5 c -2.3,-3.8 0.1,-6.5 3,-6.5 h 37.8 c 2.8,0 5.2,2.6 3,6.3 z m -5.2,17.5 c -2.1,0 -3.8,-1.7 -3.8,-3.8 0,-2.1 1.7,-3.8 3.8,-3.8 2.1,0 3.8,1.7 3.8,3.8 0,2.1 -1.7,3.8 -3.8,3.8 m -12.5,-6.5 h -18 c -12.4,0 -22.5,-10.1 -22.5,-22.5 0,-8.7 5,-16.5 12.6,-20.2 0.6,-0.2 2,-0.5 2.8,0.5 1.4,1.8 3,3 5.8,3.4 1,0.1 1.9,0.1 1.9,0.1 1.4,-0.2 2,0.6 2.3,1 l 18.8,31 c 2.3,3.4 1,6.7 -3.7,6.7 m -18,-51.5 c 2.1,0 3.8,1.7 3.8,3.8 0,2.1 -1.7,3.8 -3.8,3.8 -2.1,0 -3.8,-1.7 -3.8,-3.8 0,-2.1 1.7,-3.8 3.8,-3.8 m 4.5,-6.3 c 4.1,-10.5 14.4,-17.7000001 25.9,-17.7000001 11.5,0 21.8,7.2000001 25.9,17.7000001 0.7,2.1 -0.6,2.8 -0.6,2.8 -2,1.3 -2.6,2.8 -2.8,3.3 v 0 c -0.2,0.4 -0.6,1.4 -1.7,1.4 h -41.5 c -1.1,0 -1.4,-0.7 -1.7,-1.4 -0.1,-0.2 -0.5,-1.8 -2.9,-3.3 -0.5,-0.4 -1.2,-1.1 -0.6,-2.8 m 56.4,6.3 c 2.1,0 3.8,1.7 3.8,3.8 0,2.1 -1.7,3.8 -3.8,3.8 -2.1,0 -3.8,-1.7 -3.8,-3.8 0,-2.1 1.7,-3.8 3.8,-3.8 m 10.4,3.2 v 0 c -1.1,-0.4 -1.6,-1.2 -1.9,-2.4 -0.9,-2.6 -2.9,-4.5 -5.3,-5.4 -1.3,-0.5 -2.1,-1.8 -2.3,-2.3 v 0 c -4.5,-13.2 -17.1,-22.4000001 -31.3,-22.4000001 -14.2,0 -26.9,9.2000001 -31.4,22.5000001 v 0 c -0.2,0.5 -1,1.8 -2.4,2.3 -2.5,1 -4.3,2.5 -5.2,5.5 -0.4,1.2 -0.8,1.8 -1.8,2.2 h -0.1 c -10.4,4.2 -17.4,14.3 -17.4,25.8 0,15.3 12.5,27.8 27.8,27.8 h 18.9 c 2.7,0 3.1,0.7 4,2.3 1.5,2.5 4.4,4.1 7.5,4.1 3.4,0 6.4,-1.9 7.9,-4.7 0.5,-0.8 1.3,-1.6 3.6,-1.6 h 19 c 15.3,0 27.8,-12.5 27.8,-27.8 0.1,-11.6 -6.9,-21.7 -17.4,-25.9" />
<g
   id="flowRoot4156"
   transform="translate(-1.0681153e-4)">
</g>
<g
   id="g120"
   transform="matrix(0.91911111,0,0,0.91911111,168.29443,-53.930396)"
   style="stroke:#262626;stroke-opacity:1">
	<path
   id="path16"
   inkscape:connector-curvature="0"
   sodipodi:nodetypes="cc"
   class="st3"
   d="m 124.8,306 h 36.7"
   style="stroke:#262626;stroke-opacity:1" />
	<path
   id="path101"
   inkscape:connector-curvature="0"
   class="st3"
   d="m 114.5,306 c 0,2.8 2.2,5 5,5 2.8,0 5,-2.2 5,-5 0,-2.8 -2.2,-5 -5,-5 -2.8,0 -5,2.3 -5,5 z"
   style="stroke:#262626;stroke-opacity:1" />
	<path
   id="path18"
   inkscape:connector-curvature="0"
   class="st3"
   d="m 162.1,306 c 0,2.8 2.2,5 5,5 2.8,0 5,-2.2 5,-5 0,-2.8 -2.2,-5 -5,-5 -2.8,0 -5,2.3 -5,5 z"
   style="stroke:#262626;stroke-opacity:1" />
</g>
<path
   id="path20"
   inkscape:connector-curvature="0"
   class="st4"
   d="m 371.51428,222.15714 c 0,-10.4 8.6,-18.8 19.3,-18.8 10.6,0 19.3,8.4 19.3,18.8 m -38.6,0.5 c -7.9,0 -14.3,6.4 -14.3,14.3 0,7.9 6.4,14.3 14.3,14.3 m 38.5,-28.6 c 7.9,0 14.3,6.4 14.3,14.3 0,7.9 -6.4,14.3 -14.3,14.3 m -38.6,0.1 h 38.7"
   style="stroke:#262626;stroke-opacity:1" />
<path
   id="path86"
   inkscape:connector-curvature="0"
   class="st4"
   d="m 186.41428,208.35714 11.4,19 11.4,19 11.4,-19 11.4,-19 z"
   style="stroke:#262626;stroke-opacity:1" />
<g
   id="g94"
   transform="matrix(1.0374354,0,0,1.0374354,-228.85987,-177.73769)"
   style="stroke:#262626;stroke-opacity:1">
	<path
   id="path90"
   inkscape:connector-curvature="0"
   class="st5"
   d="m 228.2,400.7 c 0,-11.3 9.4,-20.4 21,-20.4 11.6,0 21,9.1 21,20.4"
   style="stroke:#262626;stroke-opacity:1" />
	<path
   id="path92"
   inkscape:connector-curvature="0"
   class="st5"
   d="m 228.2,400.7 h 42.1"
   style="stroke:#262626;stroke-opacity:1" />
</g>

<g
   id="g127"
   transform="matrix(0.91911111,0,0,0.91911111,96.924879,-53.930856)"
   style="stroke:#262626;stroke-opacity:1">
	<path
   id="path89"
   inkscape:connector-curvature="0"
   class="st3"
   d="m -4.3,286 c 0,2.8 2.2,5 5,5 2.8,0 5,-2.2 5,-5 0,-2.8 -2.2,-5 -5,-5 -2.7,0 -5,2.2 -5,5 z"
   style="stroke:#262626;stroke-opacity:1" />
	<path
   id="path93"
   inkscape:connector-curvature="0"
   class="st3"
   d="m 43.3,286 c 0,2.8 2.2,5 5,5 2.8,0 5,-2.2 5,-5 0,-2.8 -2.2,-5 -5,-5 -2.8,0 -5,2.2 -5,5 z"
   style="stroke:#262626;stroke-opacity:1" />
	<path
   id="path122"
   inkscape:connector-curvature="0"
   class="st3"
   d="m 19.5,326.1 c 0,2.8 2.2,5 5,5 2.8,0 5,-2.2 5,-5 0,-2.8 -2.2,-5 -5,-5 -2.7,0 -5,2.2 -5,5 z"
   style="stroke:#262626;stroke-opacity:1" />
</g>

















<g
   aria-label="LEARN"
   id="text1760"
   style="font-size:17.1429px;stroke-width:0;fill:#1a1a1a;fill-opacity:1"><path
     d="m 6.2875294,286.99808 h 5.7756846 v 1.31418 H 4.672012 v -12.18753 h 1.6155174 z"
     style="font-family:Roboto;-inkscape-font-specification:'Roboto, Normal';text-align:center;text-anchor:middle;fill:#1a1a1a;fill-opacity:1"
     id="path739" /><path
     d="m 20.785334,282.67887 h -5.281821 v 4.31921 h 6.135618 v 1.31418 h -7.742765 v -12.18753 h 7.659059 v 1.32254 h -6.051912 v 3.91742 h 5.281821 z"
     style="font-family:Roboto;-inkscape-font-specification:'Roboto, Normal';text-align:center;text-anchor:middle;fill:#1a1a1a;fill-opacity:1"
     id="path741" /><path
     d="m 30.369622,285.13144 h -5.10604 l -1.146766,3.18082 h -1.657371 l 4.65403,-12.18753 h 1.406254 l 4.6624,12.18753 h -1.649 z M 25.749074,283.8089 H 29.8925 l -2.075898,-5.70035 z"
     style="font-family:Roboto;-inkscape-font-specification:'Roboto, Normal';text-align:center;text-anchor:middle;fill:#1a1a1a;fill-opacity:1"
     id="path743" /><path
     d="m 39.292635,283.382 h -2.862731 v 4.93026 h -1.615517 v -12.18753 h 4.034608 q 2.059157,0 3.164071,0.9375 1.113284,0.9375 1.113284,2.7288 0,1.13839 -0.619421,1.98382 -0.611051,0.84543 -1.707594,1.26396 l 2.86273,5.173 v 0.10045 h -1.724334 z m -2.862731,-1.31418 h 2.469315 q 1.196989,0 1.900116,-0.61942 0.711497,-0.61942 0.711497,-1.65737 0,-1.13003 -0.678015,-1.73271 -0.669644,-0.60268 -1.941969,-0.61105 h -2.460944 z"
     style="font-family:Roboto;-inkscape-font-specification:'Roboto, Normal';text-align:center;text-anchor:middle;fill:#1a1a1a;fill-opacity:1"
     id="path745" /><path
     d="m 54.744682,288.31226 h -1.615518 l -6.135618,-9.39177 v 9.39177 h -1.615517 v -12.18753 h 1.615517 l 6.152359,9.43361 v -9.43361 h 1.598777 z"
     style="font-family:Roboto;-inkscape-font-specification:'Roboto, Normal';text-align:center;text-anchor:middle;fill:#1a1a1a;fill-opacity:1"
     id="path747" /></g><g
   aria-label="WORK"
   id="text1760-5"
   style="font-size:17.1429px;stroke-width:0;fill:#1a1a1a;fill-opacity:1"><path
     d="m 99.337022,284.47017 0.234376,1.60715 0.343193,-1.44811 2.410719,-8.50448 h 1.35603 l 2.35213,8.50448 0.33482,1.47322 0.25949,-1.64063 1.89174,-8.33707 h 1.61552 l -2.95481,12.18753 h -1.46484 l -2.51117,-8.88116 -0.19252,-0.92914 -0.19253,0.92914 -2.60324,8.88116 h -1.464847 l -2.946436,-12.18753 h 1.607147 z"
     style="font-family:Roboto;-inkscape-font-specification:'Roboto, Normal';text-align:center;text-anchor:middle;fill:#1a1a1a;fill-opacity:1"
     id="path750" /><path
     d="m 121.29299,282.61191 q 0,1.7913 -0.60268,3.13058 -0.60268,1.33092 -1.70759,2.03405 -1.10491,0.70313 -2.57813,0.70313 -1.43974,0 -2.55302,-0.70313 -1.11329,-0.7115 -1.73271,-2.0173 -0.61105,-1.31418 -0.62779,-3.03852 v -0.8789 q 0,-1.75782 0.61105,-3.10548 0.61105,-1.34766 1.72434,-2.05916 1.12165,-0.71987 2.56139,-0.71987 1.46484,0 2.57813,0.7115 1.12165,0.70313 1.72433,2.05079 0.60268,1.33929 0.60268,3.12222 z m -1.59877,-0.78684 q 0,-2.16797 -0.87054,-3.32311 -0.87054,-1.1635 -2.43583,-1.1635 -1.52344,0 -2.40235,1.1635 -0.87054,1.15514 -0.89565,3.2143 v 0.89565 q 0,2.10101 0.87891,3.30637 0.88727,1.19699 2.43583,1.19699 1.55692,0 2.41072,-1.13003 0.8538,-1.13839 0.87891,-3.25615 z"
     style="font-family:Roboto;-inkscape-font-specification:'Roboto, Normal';text-align:center;text-anchor:middle;fill:#1a1a1a;fill-opacity:1"
     id="path752" /><path
     d="m 128.17359,283.382 h -2.86273 v 4.93026 h -1.61552 v -12.18753 h 4.03461 q 2.05916,0 3.16407,0.9375 1.11328,0.9375 1.11328,2.7288 0,1.13839 -0.61942,1.98382 -0.61105,0.84543 -1.70759,1.26396 l 2.86273,5.173 v 0.10045 h -1.72433 z m -2.86273,-1.31418 h 2.46931 q 1.19699,0 1.90012,-0.61942 0.7115,-0.61942 0.7115,-1.65737 0,-1.13003 -0.67802,-1.73271 -0.66964,-0.60268 -1.94197,-0.61105 h -2.46094 z"
     style="font-family:Roboto;-inkscape-font-specification:'Roboto, Normal';text-align:center;text-anchor:middle;fill:#1a1a1a;fill-opacity:1"
     id="path754" /><path
     d="m 137.35609,282.64539 -1.48996,1.54855 v 4.11832 h -1.60715 v -12.18753 h 1.60715 v 6.0268 l 5.41575,-6.0268 h 1.94197 l -4.79633,5.38226 5.173,6.80527 h -1.92522 z"
     style="font-family:Roboto;-inkscape-font-specification:'Roboto, Normal';text-align:center;text-anchor:middle;fill:#1a1a1a;fill-opacity:1"
     id="path756" /></g><g
   aria-label="DISCOVER"
   id="text1760-5-8"
   style="font-size:17.1429px;stroke-width:0;fill:#1a1a1a;fill-opacity:1"><path
     d="m 169.85034,288.3569 v -12.18753 h 3.4403 q 1.59041,0 2.81251,0.70313 1.2221,0.70313 1.88338,2.00056 0.66964,1.29744 0.67801,2.97992 v 0.77846 q 0,1.72434 -0.66964,3.02177 -0.66128,1.29744 -1.90012,1.9922 -1.23047,0.69475 -2.8711,0.71149 z m 1.60715,-10.86498 v 9.55081 h 1.69085 q 1.85827,0 2.88785,-1.15514 1.03795,-1.15514 1.03795,-3.28963 v -0.7115 q 0,-2.0759 -0.97936,-3.22266 -0.97098,-1.15514 -2.76228,-1.17188 z"
     style="font-family:Roboto;-inkscape-font-specification:'Roboto, Normal';text-align:center;text-anchor:middle;fill:#1a1a1a;fill-opacity:1"
     id="path759" /><path
     d="m 182.81634,288.3569 h -1.60715 v -12.18753 h 1.60715 z"
     style="font-family:Roboto;-inkscape-font-specification:'Roboto, Normal';text-align:center;text-anchor:middle;fill:#1a1a1a;fill-opacity:1"
     id="path761" /><path
     d="m 189.34537,282.92441 q -2.06753,-0.59431 -3.0134,-1.45648 -0.9375,-0.87053 -0.9375,-2.14286 0,-1.43973 1.14677,-2.37724 1.15513,-0.94587 2.99665,-0.94587 1.25559,0 2.23494,0.48549 0.98773,0.4855 1.52344,1.33929 0.54409,0.8538 0.54409,1.86664 h -1.61552 q 0,-1.10492 -0.70312,-1.73271 -0.70313,-0.63616 -1.98383,-0.63616 -1.18861,0 -1.85826,0.52734 -0.66127,0.51898 -0.66127,1.44811 0,0.74498 0.62779,1.26395 0.63616,0.51061 2.15123,0.93751 1.52344,0.4269 2.37724,0.94587 0.86217,0.5106 1.27232,1.19699 0.41853,0.68639 0.41853,1.61552 0,1.48159 -1.15513,2.37724 -1.15514,0.88727 -3.08874,0.88727 -1.25558,0 -2.34376,-0.47712 -1.08817,-0.48549 -1.68248,-1.32255 -0.58594,-0.83705 -0.58594,-1.90011 h 1.61552 q 0,1.10491 0.81194,1.74944 0.82032,0.63617 2.18472,0.63617 1.27232,0 1.95034,-0.51898 0.67802,-0.51897 0.67802,-1.41462 0,-0.89565 -0.6278,-1.38114 -0.62779,-0.49387 -2.27679,-0.97099 z"
     style="font-family:Roboto;-inkscape-font-specification:'Roboto, Normal';text-align:center;text-anchor:middle;fill:#1a1a1a;fill-opacity:1"
     id="path763" /><path
     d="m 204.8895,284.48971 q -0.22601,1.93359 -1.43137,2.98828 -1.19699,1.04632 -3.18918,1.04632 -2.1596,0 -3.46541,-1.54855 -1.29744,-1.54855 -1.29744,-4.14342 v -1.17188 q 0,-1.69923 0.60268,-2.98829 0.61105,-1.28907 1.72434,-1.97545 1.11328,-0.69476 2.57813,-0.69476 1.94197,0 3.11385,1.08817 1.17187,1.07981 1.3644,2.99666 h -1.61552 q -0.20926,-1.45647 -0.91239,-2.10938 -0.69476,-0.6529 -1.95034,-0.6529 -1.54018,0 -2.41909,1.13839 -0.87054,1.1384 -0.87054,3.23941 v 1.18025 q 0,1.98382 0.82868,3.1557 0.82869,1.17188 2.31865,1.17188 1.33929,0 2.05079,-0.60268 0.71986,-0.61105 0.95424,-2.11775 z"
     style="font-family:Roboto;-inkscape-font-specification:'Roboto, Normal';text-align:center;text-anchor:middle;fill:#1a1a1a;fill-opacity:1"
     id="path765" /><path
     d="m 216.45761,282.65655 q 0,1.7913 -0.60268,3.13059 -0.60268,1.33092 -1.7076,2.03405 -1.10491,0.70312 -2.57813,0.70312 -1.43973,0 -2.55302,-0.70312 -1.11328,-0.7115 -1.7327,-2.01731 -0.61105,-1.31417 -0.6278,-3.03851 v -0.87891 q 0,-1.75781 0.61106,-3.10547 0.61105,-1.34766 1.72433,-2.05916 1.12165,-0.71987 2.56139,-0.71987 1.46485,0 2.57813,0.7115 1.12166,0.70313 1.72434,2.05078 0.60268,1.33929 0.60268,3.12222 z m -1.59878,-0.78683 q 0,-2.16797 -0.87054,-3.32311 -0.87054,-1.16351 -2.43583,-1.16351 -1.52344,0 -2.40235,1.16351 -0.87054,1.15514 -0.89565,3.21429 v 0.89565 q 0,2.10101 0.87891,3.30637 0.88728,1.19699 2.43583,1.19699 1.55693,0 2.41072,-1.13002 0.8538,-1.1384 0.87891,-3.25615 z"
     style="font-family:Roboto;-inkscape-font-specification:'Roboto, Normal';text-align:center;text-anchor:middle;fill:#1a1a1a;fill-opacity:1"
     id="path767" /><path
     d="m 222.71878,286.22241 3.48216,-10.05304 h 1.75781 l -4.5201,12.18753 h -1.42299 l -4.51173,-12.18753 h 1.74944 z"
     style="font-family:Roboto;-inkscape-font-specification:'Roboto, Normal';text-align:center;text-anchor:middle;fill:#1a1a1a;fill-opacity:1"
     id="path769" /><path
     d="m 236.47998,282.72352 h -5.28182 v 4.31921 h 6.13562 v 1.31417 h -7.74277 v -12.18753 h 7.65906 v 1.32255 h -6.05191 v 3.91742 h 5.28182 z"
     style="font-family:Roboto;-inkscape-font-specification:'Roboto, Normal';text-align:center;text-anchor:middle;fill:#1a1a1a;fill-opacity:1"
     id="path771" /><path
     d="m 243.80422,283.42665 h -2.86274 v 4.93025 h -1.61551 v -12.18753 h 4.03461 q 2.05915,0 3.16407,0.9375 1.11328,0.93751 1.11328,2.72881 0,1.13839 -0.61942,1.98382 -0.61105,0.84542 -1.70759,1.26395 l 2.86273,5.17301 v 0.10044 h -1.72434 z m -2.86274,-1.31418 h 2.46932 q 1.19699,0 1.90012,-0.61942 0.71149,-0.61942 0.71149,-1.65737 0,-1.13003 -0.67801,-1.73271 -0.66965,-0.60268 -1.94197,-0.61105 h -2.46095 z"
     style="font-family:Roboto;-inkscape-font-specification:'Roboto, Normal';text-align:center;text-anchor:middle;fill:#1a1a1a;fill-opacity:1"
     id="path773" /></g><g
   aria-label="EXPLORE"
   id="text1760-5-8-3"
   style="font-size:17.1429px;stroke-width:0;fill:#1a1a1a;fill-opacity:1"><path
     d="m 273.07102,282.67887 h -5.28182 v 4.31921 h 6.13562 v 1.31418 h -7.74277 v -12.18753 h 7.65906 v 1.32254 h -6.05191 v 3.91742 h 5.28182 z"
     style="font-family:Roboto;-inkscape-font-specification:'Roboto, Normal';text-align:center;text-anchor:middle;fill:#1a1a1a;fill-opacity:1"
     id="path776" /><path
     d="m 279.90139,280.7955 2.92133,-4.67077 h 1.89174 l -3.85045,6.04354 3.94253,6.14399 h -1.90849 l -2.99666,-4.75448 -3.0134,4.75448 h -1.90011 l 3.9509,-6.14399 -3.85883,-6.04354 h 1.88338 z"
     style="font-family:Roboto;-inkscape-font-specification:'Roboto, Normal';text-align:center;text-anchor:middle;fill:#1a1a1a;fill-opacity:1"
     id="path778" /><path
     d="m 288.28032,283.54104 v 4.77122 h -1.60715 v -12.18753 h 4.49499 q 2.00057,0 3.13059,1.0212 1.1384,1.02121 1.1384,2.70369 0,1.77456 -1.11329,2.73717 -1.10491,0.95425 -3.17244,0.95425 z m 0,-1.31418 h 2.88784 q 1.28907,0 1.97545,-0.60268 0.68639,-0.61105 0.68639,-1.75782 0,-1.08817 -0.68639,-1.74107 -0.68638,-0.65291 -1.88337,-0.67802 h -2.97992 z"
     style="font-family:Roboto;-inkscape-font-specification:'Roboto, Normal';text-align:center;text-anchor:middle;fill:#1a1a1a;fill-opacity:1"
     id="path780" /><path
     d="m 299.10345,286.99808 h 5.77568 v 1.31418 h -7.3912 v -12.18753 h 1.61552 z"
     style="font-family:Roboto;-inkscape-font-specification:'Roboto, Normal';text-align:center;text-anchor:middle;fill:#1a1a1a;fill-opacity:1"
     id="path782" /><path
     d="m 315.54322,282.61191 q 0,1.7913 -0.60268,3.13058 -0.60268,1.33092 -1.70759,2.03405 -1.10491,0.70313 -2.57813,0.70313 -1.43974,0 -2.55302,-0.70313 -1.11329,-0.7115 -1.73271,-2.0173 -0.61105,-1.31418 -0.62779,-3.03852 v -0.8789 q 0,-1.75782 0.61105,-3.10548 0.61105,-1.34766 1.72434,-2.05916 1.12165,-0.71987 2.56139,-0.71987 1.46484,0 2.57813,0.7115 1.12165,0.70313 1.72433,2.05079 0.60268,1.33929 0.60268,3.12222 z m -1.59877,-0.78684 q 0,-2.16797 -0.87054,-3.32311 -0.87054,-1.1635 -2.43583,-1.1635 -1.52345,0 -2.40235,1.1635 -0.87054,1.15514 -0.89565,3.2143 v 0.89565 q 0,2.10101 0.87891,3.30637 0.88727,1.19699 2.43583,1.19699 1.55692,0 2.41072,-1.13003 0.85379,-1.13839 0.87891,-3.25615 z"
     style="font-family:Roboto;-inkscape-font-specification:'Roboto, Normal';text-align:center;text-anchor:middle;fill:#1a1a1a;fill-opacity:1"
     id="path784" /><path
     d="m 322.42382,283.382 h -2.86273 v 4.93026 h -1.61552 v -12.18753 h 4.03461 q 2.05916,0 3.16407,0.9375 1.11329,0.9375 1.11329,2.7288 0,1.13839 -0.61943,1.98382 -0.61105,0.84543 -1.70759,1.26396 l 2.86273,5.173 v 0.10045 h -1.72433 z m -2.86273,-1.31418 h 2.46931 q 1.19699,0 1.90012,-0.61942 0.7115,-0.61942 0.7115,-1.65737 0,-1.13003 -0.67802,-1.73271 -0.66964,-0.60268 -1.94197,-0.61105 h -2.46094 z"
     style="font-family:Roboto;-inkscape-font-specification:'Roboto, Normal';text-align:center;text-anchor:middle;fill:#1a1a1a;fill-opacity:1"
     id="path786" /><path
     d="m 335.39818,282.67887 h -5.28182 v 4.31921 h 6.13562 v 1.31418 h -7.74277 v -12.18753 h 7.65906 v 1.32254 h -6.05191 v 3.91742 h 5.28182 z"
     style="font-family:Roboto;-inkscape-font-specification:'Roboto, Normal';text-align:center;text-anchor:middle;fill:#1a1a1a;fill-opacity:1"
     id="path788" /></g><g
   aria-label="ARCHIVE"
   id="text1760-5-8-3-6"
   style="font-size:17.1429px;stroke-width:0;fill:#1a1a1a;fill-opacity:1"><path
     d="m 363.6939,285.13144 h -5.10604 l -1.14676,3.18082 h -1.65737 l 4.65402,-12.18753 h 1.40626 l 4.6624,12.18753 h -1.649 z m -4.62055,-1.32254 h 4.14343 l -2.0759,-5.70035 z"
     style="font-family:Roboto;-inkscape-font-specification:'Roboto, Normal';text-align:center;text-anchor:middle;fill:#1a1a1a;fill-opacity:1"
     id="path791" /><path
     d="m 372.61691,283.382 h -2.86273 v 4.93026 h -1.61551 v -12.18753 h 4.0346 q 2.05916,0 3.16408,0.9375 1.11328,0.9375 1.11328,2.7288 0,1.13839 -0.61942,1.98382 -0.61105,0.84543 -1.7076,1.26396 l 2.86274,5.173 v 0.10045 h -1.72434 z m -2.86273,-1.31418 h 2.46932 q 1.19699,0 1.90011,-0.61942 0.7115,-0.61942 0.7115,-1.65737 0,-1.13003 -0.67801,-1.73271 -0.66965,-0.60268 -1.94197,-0.61105 h -2.46095 z"
     style="font-family:Roboto;-inkscape-font-specification:'Roboto, Normal';text-align:center;text-anchor:middle;fill:#1a1a1a;fill-opacity:1"
     id="path793" /><path
     d="m 387.66717,284.44506 q -0.226,1.9336 -1.43136,2.98829 -1.19699,1.04632 -3.18918,1.04632 -2.15961,0 -3.46541,-1.54856 -1.29744,-1.54855 -1.29744,-4.14342 v -1.17188 q 0,-1.69922 0.60268,-2.98829 0.61105,-1.28906 1.72434,-1.97545 1.11328,-0.69476 2.57813,-0.69476 1.94197,0 3.11384,1.08818 1.17188,1.0798 1.3644,2.99666 h -1.61551 q -0.20927,-1.45648 -0.91239,-2.10938 -0.69476,-0.65291 -1.95034,-0.65291 -1.54019,0 -2.41909,1.1384 -0.87054,1.13839 -0.87054,3.2394 v 1.18025 q 0,1.98382 0.82868,3.1557 0.82869,1.17188 2.31865,1.17188 1.33929,0 2.05078,-0.60268 0.71987,-0.61105 0.95425,-2.11775 z"
     style="font-family:Roboto;-inkscape-font-specification:'Roboto, Normal';text-align:center;text-anchor:middle;fill:#1a1a1a;fill-opacity:1"
     id="path795" /><path
     d="m 399.22691,288.31226 h -1.61551 v -5.63339 h -6.14399 v 5.63339 h -1.60715 v -12.18753 h 1.60715 v 5.23996 h 6.14399 v -5.23996 h 1.61551 z"
     style="font-family:Roboto;-inkscape-font-specification:'Roboto, Normal';text-align:center;text-anchor:middle;fill:#1a1a1a;fill-opacity:1"
     id="path797" /><path
     d="m 403.80561,288.31226 h -1.60715 v -12.18753 h 1.60715 z"
     style="font-family:Roboto;-inkscape-font-specification:'Roboto, Normal';text-align:center;text-anchor:middle;fill:#1a1a1a;fill-opacity:1"
     id="path799" /><path
     d="m 410.77828,286.17776 3.48215,-10.05303 h 1.75782 l -4.5201,12.18753 h -1.42299 l -4.51173,-12.18753 h 1.74944 z"
     style="font-family:Roboto;-inkscape-font-specification:'Roboto, Normal';text-align:center;text-anchor:middle;fill:#1a1a1a;fill-opacity:1"
     id="path801" /><path
     d="m 424.53948,282.67887 h -5.28182 v 4.31921 h 6.13562 v 1.31418 h -7.74277 v -12.18753 h 7.65906 v 1.32254 h -6.05191 v 3.91742 h 5.28182 z"
     style="font-family:Roboto;-inkscape-font-specification:'Roboto, Normal';text-align:center;text-anchor:middle;fill:#1a1a1a;fill-opacity:1"
     id="path803" /></g><g
   aria-label="Built for seamless sharing of resources in computational materials science."
   transform="translate(-144.37027,-48.374544)"
   id="text4405"
   style="font-size:19.0476px;font-family:'MS Reference Sans Serif';-inkscape-font-specification:'MS Reference Sans Serif, Normal';text-align:center;text-anchor:middle;white-space:pre;inline-size:466.048;display:inline;stroke-width:0;fill:#1a1a1a;fill-opacity:1"><path
     d="m 198.06355,405.71426 v -13.54165 h 4.42708 q 2.20424,0 3.31101,0.91146 1.11607,0.91146 1.11607,2.69717 0,0.94866 -0.53944,1.6834 -0.53943,0.72545 -1.46949,1.12538 1.09747,0.30691 1.72991,1.17187 0.64174,0.85565 0.64174,2.04613 0,1.82291 -1.18117,2.86458 -1.18118,1.04166 -3.33892,1.04166 z m 1.78571,-6.3337 v 4.87351 h 2.94829 q 1.24628,0 1.96242,-0.64174 0.72545,-0.65104 0.72545,-1.78571 0,-2.44606 -2.65997,-2.44606 z m 0,-1.43229 h 2.69717 q 1.17188,0 1.86942,-0.58593 0.70684,-0.58594 0.70684,-1.5904 0,-1.11607 -0.65104,-1.6183 -0.65104,-0.51154 -1.98102,-0.51154 h -2.64137 z"
     style="font-family:Roboto;-inkscape-font-specification:'Roboto, Normal';fill:#1a1a1a;fill-opacity:1"
     id="path559" /><path
     d="m 215.86487,404.7191 q -1.00446,1.18118 -2.94829,1.18118 -1.609,0 -2.45535,-0.93006 -0.83705,-0.93936 -0.84635,-2.77158 v -6.54761 h 1.7206 v 6.50111 q 0,2.28794 1.86012,2.28794 1.97173,0 2.62277,-1.46949 v -7.31956 h 1.72061 v 10.06323 h -1.63691 z"
     style="font-family:Roboto;-inkscape-font-specification:'Roboto, Normal';fill:#1a1a1a;fill-opacity:1"
     id="path561" /><path
     d="m 222.02186,405.71426 h -1.72061 v -10.06323 h 1.72061 z m -1.86012,-12.7325 q 0,-0.41852 0.25112,-0.70684 0.26041,-0.28832 0.76264,-0.28832 0.50224,0 0.76265,0.28832 0.26042,0.28832 0.26042,0.70684 0,0.41853 -0.26042,0.69755 -0.26041,0.27901 -0.76265,0.27901 -0.50223,0 -0.76264,-0.27901 -0.25112,-0.27902 -0.25112,-0.69755 z"
     style="font-family:Roboto;-inkscape-font-specification:'Roboto, Normal';fill:#1a1a1a;fill-opacity:1"
     id="path563" /><path
     d="m 226.64425,405.71426 h -1.72061 v -14.2857 h 1.72061 z"
     style="font-family:Roboto;-inkscape-font-specification:'Roboto, Normal';fill:#1a1a1a;fill-opacity:1"
     id="path565" /><path
     d="m 231.73167,393.21428 v 2.43675 h 1.87872 v 1.32998 h -1.87872 v 6.2407 q 0,0.60453 0.25111,0.91145 0.25112,0.29762 0.85566,0.29762 0.29762,0 0.81845,-0.1116 v 1.39508 q -0.67894,0.18602 -1.32068,0.18602 -1.15328,0 -1.73921,-0.69755 -0.58594,-0.69754 -0.58594,-1.98102 v -6.2407 h -1.83221 v -1.32998 h 1.83221 v -2.43675 z"
     style="font-family:Roboto;-inkscape-font-specification:'Roboto, Normal';fill:#1a1a1a;fill-opacity:1"
     id="path567" /><path
     d="m 241.18106,405.71426 v -8.73325 h -1.5904 v -1.32998 h 1.5904 v -1.03236 q 0,-1.61831 0.86496,-2.50186 0.86495,-0.88356 2.44605,-0.88356 0.59524,0 1.18118,0.15811 l -0.093,1.39509 q -0.43713,-0.0837 -0.93006,-0.0837 -0.83705,0 -1.29278,0.49294 -0.45573,0.48363 -0.45573,1.39508 v 1.06027 h 2.14844 v 1.32998 h -2.14844 v 8.73325 z"
     style="font-family:Roboto;-inkscape-font-specification:'Roboto, Normal';fill:#1a1a1a;fill-opacity:1"
     id="path569" /><path
     d="m 246.4917,400.58964 q 0,-1.47879 0.57663,-2.65997 0.58594,-1.18117 1.61831,-1.82291 1.04166,-0.64174 2.37165,-0.64174 2.05543,0 3.32031,1.42299 1.27418,1.42299 1.27418,3.78534 v 0.1209 q 0,1.4695 -0.56734,2.64137 -0.55804,1.16257 -1.609,1.81361 -1.04167,0.65105 -2.39955,0.65105 -2.04613,0 -3.32031,-1.42299 -1.26488,-1.42299 -1.26488,-3.76674 z m 1.72991,0.20461 q 0,1.67411 0.77195,2.68787 0.78125,1.01377 2.08333,1.01377 1.31138,0 2.08333,-1.02307 0.77195,-1.03236 0.77195,-2.88318 0,-1.6555 -0.79055,-2.67857 -0.78125,-1.03236 -2.08333,-1.03236 -1.27418,0 -2.05543,1.01376 -0.78125,1.01377 -0.78125,2.90178 z"
     style="font-family:Roboto;-inkscape-font-specification:'Roboto, Normal';fill:#1a1a1a;fill-opacity:1"
     id="path571" /><path
     d="m 262.67472,397.19493 q -0.39062,-0.0651 -0.84635,-0.0651 -1.69271,0 -2.29725,1.44159 v 7.14285 h -1.72061 v -10.06323 h 1.67411 l 0.0279,1.16257 q 0.84635,-1.34858 2.39955,-1.34858 0.50223,0 0.76265,0.13021 z"
     style="font-family:Roboto;-inkscape-font-specification:'Roboto, Normal';fill:#1a1a1a;fill-opacity:1"
     id="path573" /><path
     d="m 274.83058,403.045 q 0,-0.69755 -0.53013,-1.07887 -0.52083,-0.39063 -1.83221,-0.66964 -1.30209,-0.27902 -2.07403,-0.66965 -0.76265,-0.39062 -1.13468,-0.93006 -0.36272,-0.53943 -0.36272,-1.28348 0,-1.23697 1.04167,-2.09263 1.05096,-0.85565 2.67857,-0.85565 1.7113,0 2.77157,0.88355 1.06957,0.88356 1.06957,2.26005 h -1.72991 q 0,-0.70685 -0.60454,-1.21838 -0.59524,-0.51153 -1.50669,-0.51153 -0.93936,0 -1.4695,0.40922 -0.53013,0.40923 -0.53013,1.06957 0,0.62314 0.49293,0.93936 0.49293,0.31622 1.77641,0.60454 1.29278,0.28832 2.09263,0.68824 0.79985,0.39993 1.18118,0.96726 0.39062,0.55804 0.39062,1.36719 0,1.34858 -1.07886,2.16703 -1.07887,0.80916 -2.79948,0.80916 -1.20908,0 -2.13914,-0.42783 -0.93005,-0.42783 -1.46019,-1.19048 -0.52083,-0.77194 -0.52083,-1.6648 h 1.72061 q 0.0465,0.86495 0.68824,1.37649 0.65104,0.50223 1.71131,0.50223 0.97656,0 1.5625,-0.39063 0.59523,-0.39992 0.59523,-1.06026 z"
     style="font-family:Roboto;-inkscape-font-specification:'Roboto, Normal';fill:#1a1a1a;fill-opacity:1"
     id="path575" /><path
     d="m 282.9686,405.90028 q -2.04613,0 -3.32961,-1.33929 -1.28348,-1.34858 -1.28348,-3.59933 v -0.31622 q 0,-1.49739 0.56733,-2.66926 0.57664,-1.18118 1.5997,-1.84152 1.03237,-0.66964 2.23214,-0.66964 1.96243,0 3.0506,1.29278 1.08816,1.29278 1.08816,3.70163 v 0.71615 h -6.81732 q 0.0372,1.48809 0.86495,2.40885 0.83705,0.91146 2.12053,0.91146 0.91146,0 1.5439,-0.37203 0.63244,-0.37202 1.10677,-0.98586 l 1.05097,0.81845 q -1.26488,1.94383 -3.79464,1.94383 z m -0.21392,-9.02157 q -1.04166,0 -1.74851,0.76265 -0.70684,0.75334 -0.87425,2.12053 h 5.04092 v -0.13021 q -0.0744,-1.31138 -0.70685,-2.02753 -0.63244,-0.72544 -1.71131,-0.72544 z"
     style="font-family:Roboto;-inkscape-font-specification:'Roboto, Normal';fill:#1a1a1a;fill-opacity:1"
     id="path577" /><path
     d="m 295.09656,405.71426 q -0.14881,-0.29761 -0.24182,-1.06026 -1.19977,1.24628 -2.86458,1.24628 -1.48809,0 -2.44605,-0.83706 -0.94866,-0.84635 -0.94866,-2.13913 0,-1.5718 1.19047,-2.43676 1.19978,-0.87425 3.36682,-0.87425 h 1.6741 v -0.79055 q 0,-0.90216 -0.53943,-1.43229 -0.53944,-0.53943 -1.5904,-0.53943 -0.92076,0 -1.5439,0.46502 -0.62314,0.46503 -0.62314,1.12538 h -1.72991 q 0,-0.75335 0.53014,-1.4509 0.53943,-0.70684 1.45089,-1.11607 0.92075,-0.40922 2.01822,-0.40922 1.73921,0 2.72508,0.87425 0.98586,0.86496 1.02306,2.39025 v 4.6317 q 0,1.38578 0.35342,2.20423 v 0.14881 z m -2.85528,-1.31138 q 0.80915,0 1.5346,-0.41853 0.72544,-0.41852 1.05096,-1.08816 v -2.06473 h -1.34858 q -3.1622,0 -3.1622,1.85081 0,0.80915 0.53943,1.26488 0.53944,0.45573 1.38579,0.45573 z"
     style="font-family:Roboto;-inkscape-font-specification:'Roboto, Normal';fill:#1a1a1a;fill-opacity:1"
     id="path579" /><path
     d="m 300.86292,395.65103 0.0465,1.11607 q 1.10677,-1.30208 2.98549,-1.30208 2.11123,0 2.87388,1.6183 0.50223,-0.72545 1.30208,-1.17187 0.80915,-0.44643 1.90662,-0.44643 3.31101,0 3.36681,3.50632 v 6.74292 h -1.72061 v -6.64061 q 0,-1.07887 -0.49293,-1.60901 -0.49293,-0.53943 -1.6555,-0.53943 -0.95796,0 -1.5904,0.57664 -0.63244,0.56733 -0.73475,1.53459 v 6.67782 h -1.72991 v -6.59411 q 0,-2.19494 -2.14843,-2.19494 -1.69271,0 -2.31585,1.44159 v 7.34746 h -1.72061 v -10.06323 z"
     style="font-family:Roboto;-inkscape-font-specification:'Roboto, Normal';fill:#1a1a1a;fill-opacity:1"
     id="path581" /><path
     d="m 317.80859,405.71426 h -1.72061 v -14.2857 h 1.72061 z"
     style="font-family:Roboto;-inkscape-font-specification:'Roboto, Normal';fill:#1a1a1a;fill-opacity:1"
     id="path583" /><path
     d="m 324.73753,405.90028 q -2.04613,0 -3.32961,-1.33929 -1.28348,-1.34858 -1.28348,-3.59933 v -0.31622 q 0,-1.49739 0.56733,-2.66926 0.57664,-1.18118 1.5997,-1.84152 1.03237,-0.66964 2.23214,-0.66964 1.96243,0 3.05059,1.29278 1.08817,1.29278 1.08817,3.70163 v 0.71615 h -6.81733 q 0.0372,1.48809 0.86496,2.40885 0.83705,0.91146 2.12053,0.91146 0.91146,0 1.5439,-0.37203 0.63244,-0.37202 1.10677,-0.98586 l 1.05096,0.81845 q -1.26487,1.94383 -3.79463,1.94383 z m -0.21392,-9.02157 q -1.04166,0 -1.74851,0.76265 -0.70684,0.75334 -0.87425,2.12053 h 5.04091 v -0.13021 q -0.0744,-1.31138 -0.70684,-2.02753 -0.63244,-0.72544 -1.71131,-0.72544 z"
     style="font-family:Roboto;-inkscape-font-specification:'Roboto, Normal';fill:#1a1a1a;fill-opacity:1"
     id="path585" /><path
     d="m 336.51207,403.045 q 0,-0.69755 -0.53013,-1.07887 -0.52083,-0.39063 -1.83222,-0.66964 -1.30208,-0.27902 -2.07403,-0.66965 -0.76264,-0.39062 -1.13467,-0.93006 -0.36272,-0.53943 -0.36272,-1.28348 0,-1.23697 1.04166,-2.09263 1.05097,-0.85565 2.67857,-0.85565 1.71131,0 2.77158,0.88355 1.06957,0.88356 1.06957,2.26005 h -1.72991 q 0,-0.70685 -0.60454,-1.21838 -0.59524,-0.51153 -1.5067,-0.51153 -0.93936,0 -1.46949,0.40922 -0.53013,0.40923 -0.53013,1.06957 0,0.62314 0.49293,0.93936 0.49293,0.31622 1.77641,0.60454 1.29278,0.28832 2.09263,0.68824 0.79985,0.39993 1.18118,0.96726 0.39062,0.55804 0.39062,1.36719 0,1.34858 -1.07887,2.16703 -1.07886,0.80916 -2.79947,0.80916 -1.20908,0 -2.13914,-0.42783 -0.93006,-0.42783 -1.46019,-1.19048 -0.52083,-0.77194 -0.52083,-1.6648 h 1.72061 q 0.0465,0.86495 0.68824,1.37649 0.65104,0.50223 1.71131,0.50223 0.97656,0 1.5625,-0.39063 0.59523,-0.39992 0.59523,-1.06026 z"
     style="font-family:Roboto;-inkscape-font-specification:'Roboto, Normal';fill:#1a1a1a;fill-opacity:1"
     id="path587" /><path
     d="m 346.33348,403.045 q 0,-0.69755 -0.53013,-1.07887 -0.52083,-0.39063 -1.83221,-0.66964 -1.30209,-0.27902 -2.07404,-0.66965 -0.76264,-0.39062 -1.13467,-0.93006 -0.36272,-0.53943 -0.36272,-1.28348 0,-1.23697 1.04167,-2.09263 1.05096,-0.85565 2.67856,-0.85565 1.71131,0 2.77158,0.88355 1.06957,0.88356 1.06957,2.26005 h -1.72991 q 0,-0.70685 -0.60454,-1.21838 -0.59524,-0.51153 -1.5067,-0.51153 -0.93935,0 -1.46949,0.40922 -0.53013,0.40923 -0.53013,1.06957 0,0.62314 0.49293,0.93936 0.49293,0.31622 1.77641,0.60454 1.29278,0.28832 2.09263,0.68824 0.79985,0.39993 1.18118,0.96726 0.39062,0.55804 0.39062,1.36719 0,1.34858 -1.07887,2.16703 -1.07886,0.80916 -2.79947,0.80916 -1.20908,0 -2.13914,-0.42783 -0.93006,-0.42783 -1.46019,-1.19048 -0.52083,-0.77194 -0.52083,-1.6648 h 1.72061 q 0.0465,0.86495 0.68824,1.37649 0.65104,0.50223 1.71131,0.50223 0.97656,0 1.5625,-0.39063 0.59523,-0.39992 0.59523,-1.06026 z"
     style="font-family:Roboto;-inkscape-font-specification:'Roboto, Normal';fill:#1a1a1a;fill-opacity:1"
     id="path589" /><path
     d="m 360.8703,403.045 q 0,-0.69755 -0.53013,-1.07887 -0.52083,-0.39063 -1.83222,-0.66964 -1.30208,-0.27902 -2.07403,-0.66965 -0.76264,-0.39062 -1.13467,-0.93006 -0.36272,-0.53943 -0.36272,-1.28348 0,-1.23697 1.04167,-2.09263 1.05096,-0.85565 2.67856,-0.85565 1.71131,0 2.77158,0.88355 1.06957,0.88356 1.06957,2.26005 H 360.768 q 0,-0.70685 -0.60454,-1.21838 -0.59524,-0.51153 -1.5067,-0.51153 -0.93936,0 -1.46949,0.40922 -0.53013,0.40923 -0.53013,1.06957 0,0.62314 0.49293,0.93936 0.49293,0.31622 1.77641,0.60454 1.29278,0.28832 2.09263,0.68824 0.79985,0.39993 1.18118,0.96726 0.39062,0.55804 0.39062,1.36719 0,1.34858 -1.07887,2.16703 -1.07886,0.80916 -2.79947,0.80916 -1.20908,0 -2.13914,-0.42783 -0.93006,-0.42783 -1.46019,-1.19048 -0.52083,-0.77194 -0.52083,-1.6648 h 1.72061 q 0.0465,0.86495 0.68824,1.37649 0.65104,0.50223 1.71131,0.50223 0.97656,0 1.5625,-0.39063 0.59523,-0.39992 0.59523,-1.06026 z"
     style="font-family:Roboto;-inkscape-font-specification:'Roboto, Normal';fill:#1a1a1a;fill-opacity:1"
     id="path591" /><path
     d="m 366.55297,396.86941 q 1.14397,-1.40439 2.97619,-1.40439 3.1901,0 3.218,3.59933 v 6.64991 h -1.72061 v -6.65922 q -0.009,-1.08816 -0.50223,-1.609 -0.48363,-0.52083 -1.516,-0.52083 -0.83705,0 -1.46949,0.44643 -0.63244,0.44643 -0.98586,1.17187 v 7.17075 h -1.72061 v -14.2857 h 1.72061 z"
     style="font-family:Roboto;-inkscape-font-specification:'Roboto, Normal';fill:#1a1a1a;fill-opacity:1"
     id="path593" /><path
     d="m 381.53621,405.71426 q -0.14881,-0.29761 -0.24181,-1.06026 -1.19978,1.24628 -2.86459,1.24628 -1.48809,0 -2.44605,-0.83706 -0.94866,-0.84635 -0.94866,-2.13913 0,-1.5718 1.19048,-2.43676 1.19977,-0.87425 3.36681,-0.87425 h 1.6741 v -0.79055 q 0,-0.90216 -0.53943,-1.43229 -0.53943,-0.53943 -1.5904,-0.53943 -0.92076,0 -1.5439,0.46502 -0.62314,0.46503 -0.62314,1.12538 h -1.72991 q 0,-0.75335 0.53014,-1.4509 0.53943,-0.70684 1.45089,-1.11607 0.92076,-0.40922 2.01823,-0.40922 1.73921,0 2.72507,0.87425 0.98586,0.86496 1.02306,2.39025 v 4.6317 q 0,1.38578 0.35342,2.20423 v 0.14881 z m -2.85528,-1.31138 q 0.80915,0 1.5346,-0.41853 0.72544,-0.41852 1.05096,-1.08816 v -2.06473 h -1.34858 q -3.1622,0 -3.1622,1.85081 0,0.80915 0.53943,1.26488 0.53944,0.45573 1.38579,0.45573 z"
     style="font-family:Roboto;-inkscape-font-specification:'Roboto, Normal';fill:#1a1a1a;fill-opacity:1"
     id="path595" /><path
     d="m 390.54848,397.19493 q -0.39062,-0.0651 -0.84635,-0.0651 -1.69271,0 -2.29725,1.44159 v 7.14285 h -1.72061 v -10.06323 h 1.67411 l 0.0279,1.16257 q 0.84635,-1.34858 2.39955,-1.34858 0.50223,0 0.76265,0.13021 z"
     style="font-family:Roboto;-inkscape-font-specification:'Roboto, Normal';fill:#1a1a1a;fill-opacity:1"
     id="path597" /><path
     d="m 393.99899,405.71426 h -1.72061 v -10.06323 h 1.72061 z m -1.86012,-12.7325 q 0,-0.41852 0.25112,-0.70684 0.26041,-0.28832 0.76265,-0.28832 0.50223,0 0.76264,0.28832 0.26042,0.28832 0.26042,0.70684 0,0.41853 -0.26042,0.69755 -0.26041,0.27901 -0.76264,0.27901 -0.50224,0 -0.76265,-0.27901 -0.25112,-0.27902 -0.25112,-0.69755 z"
     style="font-family:Roboto;-inkscape-font-specification:'Roboto, Normal';fill:#1a1a1a;fill-opacity:1"
     id="path599" /><path
     d="m 398.37956,395.65103 0.0558,1.26488 q 1.15327,-1.45089 3.01339,-1.45089 3.1901,0 3.218,3.59933 v 6.64991 h -1.72061 v -6.65922 q -0.009,-1.08816 -0.50223,-1.609 -0.48363,-0.52083 -1.51599,-0.52083 -0.83706,0 -1.4695,0.44643 -0.63244,0.44643 -0.98586,1.17187 v 7.17075 h -1.72061 v -10.06323 z"
     style="font-family:Roboto;-inkscape-font-specification:'Roboto, Normal';fill:#1a1a1a;fill-opacity:1"
     id="path601" /><path
     d="m 406.8524,400.59894 q 0,-2.35305 1.08816,-3.73883 1.08817,-1.39509 2.88319,-1.39509 1.84151,0 2.87388,1.30208 l 0.0837,-1.11607 h 1.5718 v 9.82142 q 0,1.95312 -1.16257,3.07849 -1.15328,1.12537 -3.1064,1.12537 -1.08817,0 -2.12983,-0.46503 -1.04167,-0.46503 -1.5904,-1.27418 l 0.89285,-1.03236 q 1.10677,1.36719 2.70647,1.36719 1.25558,0 1.95313,-0.70685 0.70684,-0.70684 0.70684,-1.99032 v -0.86496 q -1.03236,1.19048 -2.81808,1.19048 -1.76711,0 -2.86458,-1.42299 -1.08816,-1.42299 -1.08816,-3.87835 z m 1.7299,0.19531 q 0,1.70201 0.69755,2.67857 0.69754,0.96726 1.95312,0.96726 1.6276,0 2.39025,-1.47879 v -4.59449 q -0.79055,-1.44159 -2.37165,-1.44159 -1.25558,0 -1.96242,0.97656 -0.70685,0.97656 -0.70685,2.89248 z"
     style="font-family:Roboto;-inkscape-font-specification:'Roboto, Normal';fill:#1a1a1a;fill-opacity:1"
     id="path603" /><path
     d="m 422.20767,400.58964 q 0,-1.47879 0.57664,-2.65997 0.58593,-1.18117 1.6183,-1.82291 1.04167,-0.64174 2.37165,-0.64174 2.05543,0 3.32031,1.42299 1.27418,1.42299 1.27418,3.78534 v 0.1209 q 0,1.4695 -0.56734,2.64137 -0.55803,1.16257 -1.609,1.81361 -1.04166,0.65105 -2.39955,0.65105 -2.04613,0 -3.32031,-1.42299 -1.26488,-1.42299 -1.26488,-3.76674 z m 1.72991,0.20461 q 0,1.67411 0.77195,2.68787 0.78125,1.01377 2.08333,1.01377 1.31138,0 2.08333,-1.02307 0.77195,-1.03236 0.77195,-2.88318 0,-1.6555 -0.79055,-2.67857 -0.78125,-1.03236 -2.08333,-1.03236 -1.27418,0 -2.05543,1.01376 -0.78125,1.01377 -0.78125,2.90178 z"
     style="font-family:Roboto;-inkscape-font-specification:'Roboto, Normal';fill:#1a1a1a;fill-opacity:1"
     id="path605" /><path
     d="m 434.37284,405.71426 v -8.73325 h -1.5904 v -1.32998 h 1.5904 v -1.03236 q 0,-1.61831 0.86495,-2.50186 0.86496,-0.88356 2.44605,-0.88356 0.59524,0 1.18118,0.15811 l -0.093,1.39509 q -0.43712,-0.0837 -0.93006,-0.0837 -0.83705,0 -1.29278,0.49294 -0.45573,0.48363 -0.45573,1.39508 v 1.06027 h 2.14844 v 1.32998 h -2.14844 v 8.73325 z"
     style="font-family:Roboto;-inkscape-font-specification:'Roboto, Normal';fill:#1a1a1a;fill-opacity:1"
     id="path607" /><path
     d="m 449.7188,397.19493 q -0.39063,-0.0651 -0.84635,-0.0651 -1.69271,0 -2.29725,1.44159 v 7.14285 h -1.72061 v -10.06323 h 1.67411 l 0.0279,1.16257 q 0.84635,-1.34858 2.39955,-1.34858 0.50223,0 0.76265,0.13021 z"
     style="font-family:Roboto;-inkscape-font-specification:'Roboto, Normal';fill:#1a1a1a;fill-opacity:1"
     id="path609" /><path
     d="m 455.29916,405.90028 q -2.04613,0 -3.32961,-1.33929 -1.28348,-1.34858 -1.28348,-3.59933 v -0.31622 q 0,-1.49739 0.56733,-2.66926 0.57664,-1.18118 1.5997,-1.84152 1.03237,-0.66964 2.23214,-0.66964 1.96243,0 3.05059,1.29278 1.08817,1.29278 1.08817,3.70163 v 0.71615 h -6.81733 q 0.0372,1.48809 0.86496,2.40885 0.83705,0.91146 2.12053,0.91146 0.91146,0 1.5439,-0.37203 0.63244,-0.37202 1.10677,-0.98586 l 1.05097,0.81845 q -1.26488,1.94383 -3.79464,1.94383 z m -0.21392,-9.02157 q -1.04166,0 -1.74851,0.76265 -0.70684,0.75334 -0.87425,2.12053 h 5.04092 v -0.13021 q -0.0744,-1.31138 -0.70685,-2.02753 -0.63244,-0.72544 -1.71131,-0.72544 z"
     style="font-family:Roboto;-inkscape-font-specification:'Roboto, Normal';fill:#1a1a1a;fill-opacity:1"
     id="path611" /><path
     d="m 467.0737,403.045 q 0,-0.69755 -0.53013,-1.07887 -0.52083,-0.39063 -1.83222,-0.66964 -1.30208,-0.27902 -2.07403,-0.66965 -0.76264,-0.39062 -1.13467,-0.93006 -0.36272,-0.53943 -0.36272,-1.28348 0,-1.23697 1.04166,-2.09263 1.05097,-0.85565 2.67857,-0.85565 1.71131,0 2.77158,0.88355 1.06957,0.88356 1.06957,2.26005 h -1.72991 q 0,-0.70685 -0.60454,-1.21838 -0.59524,-0.51153 -1.5067,-0.51153 -0.93936,0 -1.46949,0.40922 -0.53013,0.40923 -0.53013,1.06957 0,0.62314 0.49293,0.93936 0.49293,0.31622 1.77641,0.60454 1.29278,0.28832 2.09263,0.68824 0.79985,0.39993 1.18118,0.96726 0.39062,0.55804 0.39062,1.36719 0,1.34858 -1.07887,2.16703 -1.07886,0.80916 -2.79947,0.80916 -1.20908,0 -2.13914,-0.42783 -0.93006,-0.42783 -1.46019,-1.19048 -0.52083,-0.77194 -0.52083,-1.6648 h 1.72061 q 0.0465,0.86495 0.68824,1.37649 0.65104,0.50223 1.71131,0.50223 0.97656,0 1.5625,-0.39063 0.59523,-0.39992 0.59523,-1.06026 z"
     style="font-family:Roboto;-inkscape-font-specification:'Roboto, Normal';fill:#1a1a1a;fill-opacity:1"
     id="path613" /><path
     d="m 470.58002,400.58964 q 0,-1.47879 0.57663,-2.65997 0.58594,-1.18117 1.6183,-1.82291 1.04167,-0.64174 2.37165,-0.64174 2.05543,0 3.32031,1.42299 1.27418,1.42299 1.27418,3.78534 v 0.1209 q 0,1.4695 -0.56733,2.64137 -0.55804,1.16257 -1.609,1.81361 -1.04167,0.65105 -2.39955,0.65105 -2.04613,0 -3.32031,-1.42299 -1.26488,-1.42299 -1.26488,-3.76674 z m 1.72991,0.20461 q 0,1.67411 0.77194,2.68787 0.78125,1.01377 2.08334,1.01377 1.31138,0 2.08333,-1.02307 0.77194,-1.03236 0.77194,-2.88318 0,-1.6555 -0.79054,-2.67857 -0.78125,-1.03236 -2.08334,-1.03236 -1.27418,0 -2.05543,1.01376 -0.78124,1.01377 -0.78124,2.90178 z"
     style="font-family:Roboto;-inkscape-font-specification:'Roboto, Normal';fill:#1a1a1a;fill-opacity:1"
     id="path615" /><path
     d="m 488.1116,404.7191 q -1.00446,1.18118 -2.94828,1.18118 -1.609,0 -2.45536,-0.93006 -0.83705,-0.93936 -0.84635,-2.77158 v -6.54761 h 1.72061 v 6.50111 q 0,2.28794 1.86012,2.28794 1.97172,0 2.62276,-1.46949 v -7.31956 h 1.72061 v 10.06323 h -1.6369 z"
     style="font-family:Roboto;-inkscape-font-specification:'Roboto, Normal';fill:#1a1a1a;fill-opacity:1"
     id="path617" /><path
     d="m 497.26339,397.19493 q -0.39063,-0.0651 -0.84636,-0.0651 -1.6927,0 -2.29724,1.44159 v 7.14285 h -1.72061 v -10.06323 h 1.6741 l 0.0279,1.16257 q 0.84635,-1.34858 2.39955,-1.34858 0.50223,0 0.76265,0.13021 z"
     style="font-family:Roboto;-inkscape-font-specification:'Roboto, Normal';fill:#1a1a1a;fill-opacity:1"
     id="path619" /><path
     d="m 502.70425,404.49589 q 0.92076,0 1.609,-0.55804 0.68824,-0.55803 0.76265,-1.39509 h 1.6276 q -0.0465,0.86496 -0.59524,1.64621 -0.54873,0.78125 -1.46949,1.24628 -0.91146,0.46503 -1.93452,0.46503 -2.05543,0 -3.27381,-1.36719 -1.20907,-1.37649 -1.20907,-3.75744 v -0.28832 q 0,-1.46949 0.53943,-2.61346 0.53943,-1.14397 1.5439,-1.77641 1.01376,-0.63244 2.39025,-0.63244 1.6927,0 2.80878,1.01376 1.12537,1.01377 1.19977,2.63207 h -1.6276 q -0.0744,-0.97656 -0.74405,-1.5997 -0.66034,-0.63244 -1.6369,-0.63244 -1.31138,0 -2.03683,0.94866 -0.71615,0.93936 -0.71615,2.72507 v 0.32552 q 0,1.73921 0.71615,2.67857 0.71615,0.93936 2.04613,0.93936 z"
     style="font-family:Roboto;-inkscape-font-specification:'Roboto, Normal';fill:#1a1a1a;fill-opacity:1"
     id="path621" /><path
     d="m 512.81397,405.90028 q -2.04613,0 -3.32961,-1.33929 -1.28348,-1.34858 -1.28348,-3.59933 v -0.31622 q 0,-1.49739 0.56734,-2.66926 0.57663,-1.18118 1.5997,-1.84152 1.03236,-0.66964 2.23214,-0.66964 1.96242,0 3.05059,1.29278 1.08817,1.29278 1.08817,3.70163 v 0.71615 h -6.81733 q 0.0372,1.48809 0.86495,2.40885 0.83706,0.91146 2.12054,0.91146 0.91146,0 1.5439,-0.37203 0.63244,-0.37202 1.10677,-0.98586 l 1.05096,0.81845 q -1.26488,1.94383 -3.79464,1.94383 z m -0.21391,-9.02157 q -1.04167,0 -1.74851,0.76265 -0.70685,0.75334 -0.87426,2.12053 h 5.04092 v -0.13021 q -0.0744,-1.31138 -0.70684,-2.02753 -0.63244,-0.72544 -1.71131,-0.72544 z"
     style="font-family:Roboto;-inkscape-font-specification:'Roboto, Normal';fill:#1a1a1a;fill-opacity:1"
     id="path623" /><path
     d="m 524.5885,403.045 q 0,-0.69755 -0.53013,-1.07887 -0.52083,-0.39063 -1.83221,-0.66964 -1.30209,-0.27902 -2.07404,-0.66965 -0.76264,-0.39062 -1.13467,-0.93006 -0.36272,-0.53943 -0.36272,-1.28348 0,-1.23697 1.04167,-2.09263 1.05096,-0.85565 2.67856,-0.85565 1.71131,0 2.77158,0.88355 1.06957,0.88356 1.06957,2.26005 h -1.72991 q 0,-0.70685 -0.60454,-1.21838 -0.59524,-0.51153 -1.5067,-0.51153 -0.93935,0 -1.46949,0.40922 -0.53013,0.40923 -0.53013,1.06957 0,0.62314 0.49293,0.93936 0.49293,0.31622 1.77641,0.60454 1.29278,0.28832 2.09263,0.68824 0.79985,0.39993 1.18118,0.96726 0.39062,0.55804 0.39062,1.36719 0,1.34858 -1.07887,2.16703 -1.07886,0.80916 -2.79947,0.80916 -1.20908,0 -2.13914,-0.42783 -0.93006,-0.42783 -1.46019,-1.19048 -0.52083,-0.77194 -0.52083,-1.6648 h 1.72061 q 0.0465,0.86495 0.68824,1.37649 0.65104,0.50223 1.71131,0.50223 0.97656,0 1.5625,-0.39063 0.59523,-0.39992 0.59523,-1.06026 z"
     style="font-family:Roboto;-inkscape-font-specification:'Roboto, Normal';fill:#1a1a1a;fill-opacity:1"
     id="path625" /><path
     d="m 214.48838,430.23482 h -1.7206 v -10.06323 h 1.7206 z m -1.86011,-12.7325 q 0,-0.41853 0.25111,-0.70685 0.26042,-0.28832 0.76265,-0.28832 0.50223,0 0.76265,0.28832 0.26041,0.28832 0.26041,0.70685 0,0.41852 -0.26041,0.69754 -0.26042,0.27902 -0.76265,0.27902 -0.50223,0 -0.76265,-0.27902 -0.25111,-0.27902 -0.25111,-0.69754 z"
     style="font-family:Roboto;-inkscape-font-specification:'Roboto, Normal';fill:#1a1a1a;fill-opacity:1"
     id="path627" /><path
     d="m 218.86896,420.17159 0.0558,1.26488 q 1.15328,-1.4509 3.01339,-1.4509 3.1901,0 3.21801,3.59933 v 6.64992 h -1.72061 v -6.65922 q -0.009,-1.08817 -0.50223,-1.609 -0.48363,-0.52083 -1.516,-0.52083 -0.83705,0 -1.46949,0.44642 -0.63244,0.44643 -0.98586,1.17188 v 7.17075 h -1.72061 v -10.06323 z"
     style="font-family:Roboto;-inkscape-font-specification:'Roboto, Normal';fill:#1a1a1a;fill-opacity:1"
     id="path629" /><path
     d="m 236.50287,429.01644 q 0.92076,0 1.609,-0.55803 0.68825,-0.55804 0.76265,-1.39509 h 1.6276 q -0.0465,0.86495 -0.59524,1.6462 -0.54873,0.78125 -1.46949,1.24628 -0.91146,0.46503 -1.93452,0.46503 -2.05543,0 -3.27381,-1.36718 -1.20907,-1.37649 -1.20907,-3.75744 v -0.28832 q 0,-1.46949 0.53943,-2.61346 0.53944,-1.14398 1.5439,-1.77642 1.01376,-0.63244 2.39025,-0.63244 1.69271,0 2.80878,1.01377 1.12537,1.01376 1.19977,2.63206 h -1.6276 q -0.0744,-0.97656 -0.74405,-1.5997 -0.66034,-0.63244 -1.6369,-0.63244 -1.31138,0 -2.03683,0.94866 -0.71614,0.93936 -0.71614,2.72507 v 0.32552 q 0,1.73921 0.71614,2.67857 0.71615,0.93936 2.04613,0.93936 z"
     style="font-family:Roboto;-inkscape-font-specification:'Roboto, Normal';fill:#1a1a1a;fill-opacity:1"
     id="path631" /><path
     d="m 241.98092,425.1102 q 0,-1.4788 0.57663,-2.65997 0.58594,-1.18118 1.6183,-1.82292 1.04167,-0.64174 2.37165,-0.64174 2.05543,0 3.32031,1.42299 1.27418,1.42299 1.27418,3.78534 v 0.12091 q 0,1.46949 -0.56733,2.64137 -0.55804,1.16257 -1.609,1.81361 -1.04167,0.65104 -2.39956,0.65104 -2.04612,0 -3.3203,-1.42299 -1.26488,-1.42299 -1.26488,-3.76674 z m 1.7299,0.20461 q 0,1.6741 0.77195,2.68787 0.78125,1.01376 2.08333,1.01376 1.31139,0 2.08334,-1.02306 0.77194,-1.03237 0.77194,-2.88318 0,-1.65551 -0.79055,-2.67857 -0.78124,-1.03237 -2.08333,-1.03237 -1.27418,0 -2.05543,1.01377 -0.78125,1.01376 -0.78125,2.90178 z"
     style="font-family:Roboto;-inkscape-font-specification:'Roboto, Normal';fill:#1a1a1a;fill-opacity:1"
     id="path633" /><path
     d="m 254.91803,420.17159 0.0465,1.11607 q 1.10677,-1.30209 2.98549,-1.30209 2.11124,0 2.87388,1.61831 0.50223,-0.72545 1.30209,-1.17188 0.80915,-0.44643 1.90662,-0.44643 3.311,0 3.36681,3.50632 v 6.74293 h -1.72061 v -6.64062 q 0,-1.07887 -0.49293,-1.609 -0.49293,-0.53943 -1.65551,-0.53943 -0.95796,0 -1.5904,0.57663 -0.63244,0.56734 -0.73474,1.5346 v 6.67782 h -1.72991 v -6.59412 q 0,-2.19493 -2.14844,-2.19493 -1.6927,0 -2.31584,1.44159 v 7.34746 h -1.72061 v -10.06323 z"
     style="font-family:Roboto;-inkscape-font-specification:'Roboto, Normal';fill:#1a1a1a;fill-opacity:1"
     id="path635" /><path
     d="m 278.49501,425.31481 q 0,2.29724 -1.05096,3.70163 -1.05097,1.40439 -2.84598,1.40439 -1.83222,0 -2.88318,-1.16257 v 4.8456 h -1.72061 v -13.93227 h 1.5718 l 0.0837,1.11607 q 1.05097,-1.30209 2.92039,-1.30209 1.81361,0 2.86458,1.36719 1.06026,1.36719 1.06026,3.80394 z m -1.7206,-0.19531 q 0,-1.70201 -0.72545,-2.68787 -0.72545,-0.98586 -1.99033,-0.98586 -1.56249,0 -2.34374,1.38578 v 4.80841 q 0.77195,1.37648 2.36235,1.37648 1.23697,0 1.96242,-0.97656 0.73475,-0.98586 0.73475,-2.92038 z"
     style="font-family:Roboto;-inkscape-font-specification:'Roboto, Normal';fill:#1a1a1a;fill-opacity:1"
     id="path637" /><path
     d="m 286.89344,429.23966 q -1.00446,1.18117 -2.94828,1.18117 -1.60901,0 -2.45536,-0.93006 -0.83705,-0.93936 -0.84635,-2.77157 v -6.54761 h 1.72061 v 6.50111 q 0,2.28794 1.86011,2.28794 1.97173,0 2.62277,-1.46949 v -7.31956 h 1.72061 v 10.06323 h -1.63691 z"
     style="font-family:Roboto;-inkscape-font-specification:'Roboto, Normal';fill:#1a1a1a;fill-opacity:1"
     id="path639" /><path
     d="m 293.51546,417.73483 v 2.43676 h 1.87872 v 1.32998 h -1.87872 v 6.24069 q 0,0.60454 0.25112,0.91146 0.25111,0.29762 0.85565,0.29762 0.29762,0 0.81845,-0.11161 v 1.39509 q -0.67894,0.18601 -1.32068,0.18601 -1.15327,0 -1.73921,-0.69754 -0.58594,-0.69755 -0.58594,-1.98103 v -6.24069 h -1.83221 v -1.32998 h 1.83221 v -2.43676 z"
     style="font-family:Roboto;-inkscape-font-specification:'Roboto, Normal';fill:#1a1a1a;fill-opacity:1"
     id="path641" /><path
     d="m 303.6159,430.23482 q -0.14881,-0.29762 -0.24182,-1.06027 -1.19977,1.24628 -2.86458,1.24628 -1.48809,0 -2.44605,-0.83705 -0.94866,-0.84635 -0.94866,-2.13914 0,-1.5718 1.19047,-2.43675 1.19978,-0.87425 3.36682,-0.87425 h 1.6741 v -0.79055 q 0,-0.90216 -0.53943,-1.43229 -0.53944,-0.53944 -1.5904,-0.53944 -0.92076,0 -1.5439,0.46503 -0.62314,0.46503 -0.62314,1.12537 h -1.72991 q 0,-0.75335 0.53014,-1.45089 0.53943,-0.70684 1.45089,-1.11607 0.92076,-0.40923 2.01822,-0.40923 1.73921,0 2.72508,0.87426 0.98586,0.86495 1.02306,2.39025 v 4.63169 q 0,1.38579 0.35342,2.20424 v 0.14881 z m -2.85528,-1.31138 q 0.80915,0 1.5346,-0.41853 0.72544,-0.41853 1.05096,-1.08817 v -2.06473 h -1.34858 q -3.1622,0 -3.1622,1.85082 0,0.80915 0.53943,1.26488 0.53944,0.45573 1.38579,0.45573 z"
     style="font-family:Roboto;-inkscape-font-specification:'Roboto, Normal';fill:#1a1a1a;fill-opacity:1"
     id="path643" /><path
     d="m 310.0984,417.73483 v 2.43676 h 1.87872 v 1.32998 h -1.87872 v 6.24069 q 0,0.60454 0.25112,0.91146 0.25111,0.29762 0.85565,0.29762 0.29762,0 0.81845,-0.11161 v 1.39509 q -0.67894,0.18601 -1.32068,0.18601 -1.15327,0 -1.73921,-0.69754 -0.58594,-0.69755 -0.58594,-1.98103 v -6.24069 h -1.83221 v -1.32998 h 1.83221 v -2.43676 z"
     style="font-family:Roboto;-inkscape-font-specification:'Roboto, Normal';fill:#1a1a1a;fill-opacity:1"
     id="path645" /><path
     d="m 315.85546,430.23482 h -1.7206 v -10.06323 h 1.7206 z m -1.86011,-12.7325 q 0,-0.41853 0.25111,-0.70685 0.26042,-0.28832 0.76265,-0.28832 0.50223,0 0.76265,0.28832 0.26042,0.28832 0.26042,0.70685 0,0.41852 -0.26042,0.69754 -0.26042,0.27902 -0.76265,0.27902 -0.50223,0 -0.76265,-0.27902 -0.25111,-0.27902 -0.25111,-0.69754 z"
     style="font-family:Roboto;-inkscape-font-specification:'Roboto, Normal';fill:#1a1a1a;fill-opacity:1"
     id="path647" /><path
     d="m 318.15271,425.1102 q 0,-1.4788 0.57664,-2.65997 0.58593,-1.18118 1.6183,-1.82292 1.04166,-0.64174 2.37165,-0.64174 2.05543,0 3.32031,1.42299 1.27418,1.42299 1.27418,3.78534 v 0.12091 q 0,1.46949 -0.56734,2.64137 -0.55804,1.16257 -1.609,1.81361 -1.04167,0.65104 -2.39955,0.65104 -2.04613,0 -3.32031,-1.42299 -1.26488,-1.42299 -1.26488,-3.76674 z m 1.72991,0.20461 q 0,1.6741 0.77195,2.68787 0.78125,1.01376 2.08333,1.01376 1.31138,0 2.08333,-1.02306 0.77195,-1.03237 0.77195,-2.88318 0,-1.65551 -0.79055,-2.67857 -0.78125,-1.03237 -2.08333,-1.03237 -1.27418,0 -2.05543,1.01377 -0.78125,1.01376 -0.78125,2.90178 z"
     style="font-family:Roboto;-inkscape-font-specification:'Roboto, Normal';fill:#1a1a1a;fill-opacity:1"
     id="path649" /><path
     d="m 331.09913,420.17159 0.0558,1.26488 q 1.15328,-1.4509 3.01339,-1.4509 3.1901,0 3.21801,3.59933 v 6.64992 h -1.72061 v -6.65922 q -0.009,-1.08817 -0.50223,-1.609 -0.48363,-0.52083 -1.516,-0.52083 -0.83705,0 -1.46949,0.44642 -0.63244,0.44643 -0.98586,1.17188 v 7.17075 h -1.72061 v -10.06323 z"
     style="font-family:Roboto;-inkscape-font-specification:'Roboto, Normal';fill:#1a1a1a;fill-opacity:1"
     id="path651" /><path
     d="m 346.19398,430.23482 q -0.14881,-0.29762 -0.24182,-1.06027 -1.19977,1.24628 -2.86458,1.24628 -1.48809,0 -2.44605,-0.83705 -0.94866,-0.84635 -0.94866,-2.13914 0,-1.5718 1.19047,-2.43675 1.19978,-0.87425 3.36682,-0.87425 h 1.6741 v -0.79055 q 0,-0.90216 -0.53943,-1.43229 -0.53944,-0.53944 -1.5904,-0.53944 -0.92076,0 -1.5439,0.46503 -0.62314,0.46503 -0.62314,1.12537 h -1.72991 q 0,-0.75335 0.53013,-1.45089 0.53944,-0.70684 1.4509,-1.11607 0.92075,-0.40923 2.01822,-0.40923 1.73921,0 2.72508,0.87426 0.98586,0.86495 1.02306,2.39025 v 4.63169 q 0,1.38579 0.35342,2.20424 v 0.14881 z m -2.85528,-1.31138 q 0.80915,0 1.53459,-0.41853 0.72545,-0.41853 1.05097,-1.08817 v -2.06473 h -1.34858 q -3.1622,0 -3.1622,1.85082 0,0.80915 0.53943,1.26488 0.53943,0.45573 1.38579,0.45573 z"
     style="font-family:Roboto;-inkscape-font-specification:'Roboto, Normal';fill:#1a1a1a;fill-opacity:1"
     id="path653" /><path
     d="m 352.21145,430.23482 h -1.72061 v -14.2857 h 1.72061 z"
     style="font-family:Roboto;-inkscape-font-specification:'Roboto, Normal';fill:#1a1a1a;fill-opacity:1"
     id="path655" /><path
     d="m 361.29814,420.17159 0.0465,1.11607 q 1.10677,-1.30209 2.98549,-1.30209 2.11123,0 2.87388,1.61831 0.50223,-0.72545 1.30208,-1.17188 0.80915,-0.44643 1.90662,-0.44643 3.31101,0 3.36681,3.50632 v 6.74293 h -1.72061 v -6.64062 q 0,-1.07887 -0.49293,-1.609 -0.49293,-0.53943 -1.6555,-0.53943 -0.95796,0 -1.5904,0.57663 -0.63244,0.56734 -0.73475,1.5346 v 6.67782 h -1.72991 v -6.59412 q 0,-2.19493 -2.14843,-2.19493 -1.69271,0 -2.31585,1.44159 v 7.34746 h -1.72061 v -10.06323 z"
     style="font-family:Roboto;-inkscape-font-specification:'Roboto, Normal';fill:#1a1a1a;fill-opacity:1"
     id="path657" /><path
     d="m 382.58717,430.23482 q -0.14881,-0.29762 -0.24181,-1.06027 -1.19978,1.24628 -2.86458,1.24628 -1.4881,0 -2.44606,-0.83705 -0.94866,-0.84635 -0.94866,-2.13914 0,-1.5718 1.19048,-2.43675 1.19978,-0.87425 3.36681,-0.87425 h 1.67411 v -0.79055 q 0,-0.90216 -0.53944,-1.43229 -0.53943,-0.53944 -1.5904,-0.53944 -0.92075,0 -1.54389,0.46503 -0.62314,0.46503 -0.62314,1.12537 h -1.72991 q 0,-0.75335 0.53013,-1.45089 0.53943,-0.70684 1.45089,-1.11607 0.92076,-0.40923 2.01823,-0.40923 1.73921,0 2.72507,0.87426 0.98586,0.86495 1.02307,2.39025 v 4.63169 q 0,1.38579 0.35342,2.20424 v 0.14881 z m -2.85528,-1.31138 q 0.80916,0 1.5346,-0.41853 0.72545,-0.41853 1.05097,-1.08817 v -2.06473 h -1.34859 q -3.1622,0 -3.1622,1.85082 0,0.80915 0.53944,1.26488 0.53943,0.45573 1.38578,0.45573 z"
     style="font-family:Roboto;-inkscape-font-specification:'Roboto, Normal';fill:#1a1a1a;fill-opacity:1"
     id="path659" /><path
     d="m 389.06968,417.73483 v 2.43676 h 1.87872 v 1.32998 h -1.87872 v 6.24069 q 0,0.60454 0.25112,0.91146 0.25112,0.29762 0.85565,0.29762 0.29762,0 0.81846,-0.11161 v 1.39509 q -0.67895,0.18601 -1.32069,0.18601 -1.15327,0 -1.73921,-0.69754 -0.58593,-0.69755 -0.58593,-1.98103 v -6.24069 h -1.83222 v -1.32998 h 1.83222 v -2.43676 z"
     style="font-family:Roboto;-inkscape-font-specification:'Roboto, Normal';fill:#1a1a1a;fill-opacity:1"
     id="path661" /><path
     d="m 397.13329,430.42083 q -2.04613,0 -3.32961,-1.33928 -1.28348,-1.34859 -1.28348,-3.59933 V 425.166 q 0,-1.49739 0.56734,-2.66927 0.57663,-1.18117 1.5997,-1.84151 1.03236,-0.66965 2.23214,-0.66965 1.96242,0 3.05059,1.29279 1.08817,1.29278 1.08817,3.70163 v 0.71614 h -6.81733 q 0.0372,1.4881 0.86495,2.40886 0.83706,0.91145 2.12054,0.91145 0.91146,0 1.5439,-0.37202 0.63244,-0.37202 1.10677,-0.98586 l 1.05096,0.81845 q -1.26488,1.94382 -3.79464,1.94382 z m -0.21391,-9.02157 q -1.04167,0 -1.74851,0.76265 -0.70685,0.75335 -0.87426,2.12053 h 5.04092 v -0.1302 q -0.0744,-1.31139 -0.70684,-2.02753 -0.63244,-0.72545 -1.71131,-0.72545 z"
     style="font-family:Roboto;-inkscape-font-specification:'Roboto, Normal';fill:#1a1a1a;fill-opacity:1"
     id="path663" /><path
     d="m 407.91266,421.71548 q -0.39062,-0.0651 -0.84635,-0.0651 -1.69271,0 -2.29725,1.44159 v 7.14285 h -1.7206 v -10.06323 h 1.6741 l 0.0279,1.16257 q 0.84636,-1.34859 2.39955,-1.34859 0.50224,0 0.76265,0.13021 z"
     style="font-family:Roboto;-inkscape-font-specification:'Roboto, Normal';fill:#1a1a1a;fill-opacity:1"
     id="path665" /><path
     d="m 411.36319,430.23482 h -1.72061 v -10.06323 h 1.72061 z m -1.86012,-12.7325 q 0,-0.41853 0.25111,-0.70685 0.26042,-0.28832 0.76265,-0.28832 0.50223,0 0.76265,0.28832 0.26042,0.28832 0.26042,0.70685 0,0.41852 -0.26042,0.69754 -0.26042,0.27902 -0.76265,0.27902 -0.50223,0 -0.76265,-0.27902 -0.25111,-0.27902 -0.25111,-0.69754 z"
     style="font-family:Roboto;-inkscape-font-specification:'Roboto, Normal';fill:#1a1a1a;fill-opacity:1"
     id="path667" /><path
     d="m 420.32895,430.23482 q -0.14881,-0.29762 -0.24182,-1.06027 -1.19977,1.24628 -2.86458,1.24628 -1.48809,0 -2.44605,-0.83705 -0.94866,-0.84635 -0.94866,-2.13914 0,-1.5718 1.19048,-2.43675 1.19977,-0.87425 3.36681,-0.87425 h 1.6741 v -0.79055 q 0,-0.90216 -0.53943,-1.43229 -0.53944,-0.53944 -1.5904,-0.53944 -0.92076,0 -1.5439,0.46503 -0.62314,0.46503 -0.62314,1.12537 h -1.72991 q 0,-0.75335 0.53014,-1.45089 0.53943,-0.70684 1.45089,-1.11607 0.92076,-0.40923 2.01823,-0.40923 1.7392,0 2.72507,0.87426 0.98586,0.86495 1.02306,2.39025 v 4.63169 q 0,1.38579 0.35342,2.20424 v 0.14881 z m -2.85528,-1.31138 q 0.80915,0 1.5346,-0.41853 0.72544,-0.41853 1.05096,-1.08817 v -2.06473 h -1.34858 q -3.1622,0 -3.1622,1.85082 0,0.80915 0.53943,1.26488 0.53944,0.45573 1.38579,0.45573 z"
     style="font-family:Roboto;-inkscape-font-specification:'Roboto, Normal';fill:#1a1a1a;fill-opacity:1"
     id="path669" /><path
     d="m 426.34643,430.23482 h -1.72061 v -14.2857 h 1.72061 z"
     style="font-family:Roboto;-inkscape-font-specification:'Roboto, Normal';fill:#1a1a1a;fill-opacity:1"
     id="path671" /><path
     d="m 434.95877,427.56555 q 0,-0.69754 -0.53013,-1.07887 -0.52083,-0.39062 -1.83222,-0.66964 -1.30208,-0.27902 -2.07403,-0.66964 -0.76264,-0.39063 -1.13467,-0.93006 -0.36272,-0.53943 -0.36272,-1.28348 0,-1.23698 1.04167,-2.09263 1.05096,-0.85566 2.67856,-0.85566 1.71131,0 2.77158,0.88356 1.06957,0.88356 1.06957,2.26004 h -1.72991 q 0,-0.70684 -0.60454,-1.21837 -0.59524,-0.51154 -1.5067,-0.51154 -0.93936,0 -1.46949,0.40923 -0.53013,0.40922 -0.53013,1.06957 0,0.62314 0.49293,0.93936 0.49293,0.31622 1.77641,0.60453 1.29278,0.28832 2.09263,0.68825 0.79985,0.39992 1.18118,0.96726 0.39062,0.55803 0.39062,1.36718 0,1.34859 -1.07887,2.16704 -1.07886,0.80915 -2.79947,0.80915 -1.20908,0 -2.13914,-0.42783 -0.93006,-0.42782 -1.46019,-1.19047 -0.52083,-0.77195 -0.52083,-1.66481 h 1.72061 q 0.0465,0.86496 0.68824,1.37649 0.65104,0.50223 1.71131,0.50223 0.97656,0 1.5625,-0.39062 0.59523,-0.39993 0.59523,-1.06027 z"
     style="font-family:Roboto;-inkscape-font-specification:'Roboto, Normal';fill:#1a1a1a;fill-opacity:1"
     id="path673" /><path
     d="m 449.49558,427.56555 q 0,-0.69754 -0.53014,-1.07887 -0.52083,-0.39062 -1.83221,-0.66964 -1.30208,-0.27902 -2.07403,-0.66964 -0.76265,-0.39063 -1.13467,-0.93006 -0.36273,-0.53943 -0.36273,-1.28348 0,-1.23698 1.04167,-2.09263 1.05097,-0.85566 2.67857,-0.85566 1.71131,0 2.77157,0.88356 1.06957,0.88356 1.06957,2.26004 h -1.72991 q 0,-0.70684 -0.60454,-1.21837 -0.59523,-0.51154 -1.50669,-0.51154 -0.93936,0 -1.46949,0.40923 -0.53014,0.40922 -0.53014,1.06957 0,0.62314 0.49293,0.93936 0.49293,0.31622 1.77642,0.60453 1.29278,0.28832 2.09263,0.68825 0.79985,0.39992 1.18117,0.96726 0.39063,0.55803 0.39063,1.36718 0,1.34859 -1.07887,2.16704 -1.07887,0.80915 -2.79948,0.80915 -1.20907,0 -2.13913,-0.42783 -0.93006,-0.42782 -1.4602,-1.19047 -0.52083,-0.77195 -0.52083,-1.66481 h 1.72061 q 0.0465,0.86496 0.68824,1.37649 0.65104,0.50223 1.71131,0.50223 0.97656,0 1.5625,-0.39062 0.59524,-0.39993 0.59524,-1.06027 z"
     style="font-family:Roboto;-inkscape-font-specification:'Roboto, Normal';fill:#1a1a1a;fill-opacity:1"
     id="path675" /><path
     d="m 457.49409,429.01644 q 0.92076,0 1.609,-0.55803 0.68824,-0.55804 0.76265,-1.39509 h 1.6276 q -0.0465,0.86495 -0.59524,1.6462 -0.54873,0.78125 -1.46949,1.24628 -0.91146,0.46503 -1.93452,0.46503 -2.05543,0 -3.27381,-1.36718 -1.20907,-1.37649 -1.20907,-3.75744 v -0.28832 q 0,-1.46949 0.53943,-2.61346 0.53943,-1.14398 1.5439,-1.77642 1.01376,-0.63244 2.39025,-0.63244 1.69271,0 2.80878,1.01377 1.12537,1.01376 1.19977,2.63206 h -1.6276 q -0.0744,-0.97656 -0.74405,-1.5997 -0.66034,-0.63244 -1.6369,-0.63244 -1.31138,0 -2.03683,0.94866 -0.71614,0.93936 -0.71614,2.72507 v 0.32552 q 0,1.73921 0.71614,2.67857 0.71615,0.93936 2.04613,0.93936 z"
     style="font-family:Roboto;-inkscape-font-specification:'Roboto, Normal';fill:#1a1a1a;fill-opacity:1"
     id="path677" /><path
     d="m 465.29728,430.23482 h -1.72061 v -10.06323 h 1.72061 z m -1.86011,-12.7325 q 0,-0.41853 0.25111,-0.70685 0.26042,-0.28832 0.76265,-0.28832 0.50223,0 0.76265,0.28832 0.26041,0.28832 0.26041,0.70685 0,0.41852 -0.26041,0.69754 -0.26042,0.27902 -0.76265,0.27902 -0.50223,0 -0.76265,-0.27902 -0.25111,-0.27902 -0.25111,-0.69754 z"
     style="font-family:Roboto;-inkscape-font-specification:'Roboto, Normal';fill:#1a1a1a;fill-opacity:1"
     id="path679" /><path
     d="m 472.22622,430.42083 q -2.04613,0 -3.32961,-1.33928 -1.28348,-1.34859 -1.28348,-3.59933 V 425.166 q 0,-1.49739 0.56733,-2.66927 0.57664,-1.18117 1.5997,-1.84151 1.03237,-0.66965 2.23215,-0.66965 1.96242,0 3.05059,1.29279 1.08817,1.29278 1.08817,3.70163 v 0.71614 h -6.81733 q 0.0372,1.4881 0.86495,2.40886 0.83705,0.91145 2.12053,0.91145 0.91146,0 1.5439,-0.37202 0.63244,-0.37202 1.10677,-0.98586 l 1.05097,0.81845 q -1.26488,1.94382 -3.79464,1.94382 z m -0.21391,-9.02157 q -1.04167,0 -1.74851,0.76265 -0.70685,0.75335 -0.87426,2.12053 h 5.04092 v -0.1302 q -0.0744,-1.31139 -0.70685,-2.02753 -0.63244,-0.72545 -1.7113,-0.72545 z"
     style="font-family:Roboto;-inkscape-font-specification:'Roboto, Normal';fill:#1a1a1a;fill-opacity:1"
     id="path681" /><path
     d="m 479.769,420.17159 0.0558,1.26488 q 1.15328,-1.4509 3.01339,-1.4509 3.1901,0 3.218,3.59933 v 6.64992 h -1.7206 v -6.65922 q -0.009,-1.08817 -0.50224,-1.609 -0.48363,-0.52083 -1.51599,-0.52083 -0.83705,0 -1.46949,0.44642 -0.63244,0.44643 -0.98587,1.17188 v 7.17075 h -1.7206 v -10.06323 z"
     style="font-family:Roboto;-inkscape-font-specification:'Roboto, Normal';fill:#1a1a1a;fill-opacity:1"
     id="path683" /><path
     d="m 492.68749,429.01644 q 0.92076,0 1.60901,-0.55803 0.68824,-0.55804 0.76264,-1.39509 h 1.62761 q -0.0465,0.86495 -0.59524,1.6462 -0.54874,0.78125 -1.46949,1.24628 -0.91146,0.46503 -1.93453,0.46503 -2.05543,0 -3.2738,-1.36718 -1.20908,-1.37649 -1.20908,-3.75744 v -0.28832 q 0,-1.46949 0.53944,-2.61346 0.53943,-1.14398 1.54389,-1.77642 1.01377,-0.63244 2.39025,-0.63244 1.69271,0 2.80878,1.01377 1.12537,1.01376 1.19978,2.63206 h -1.62761 q -0.0744,-0.97656 -0.74404,-1.5997 -0.66034,-0.63244 -1.63691,-0.63244 -1.31138,0 -2.03682,0.94866 -0.71615,0.93936 -0.71615,2.72507 v 0.32552 q 0,1.73921 0.71615,2.67857 0.71614,0.93936 2.04612,0.93936 z"
     style="font-family:Roboto;-inkscape-font-specification:'Roboto, Normal';fill:#1a1a1a;fill-opacity:1"
     id="path685" /><path
     d="m 502.79725,430.42083 q -2.04613,0 -3.32961,-1.33928 -1.28348,-1.34859 -1.28348,-3.59933 V 425.166 q 0,-1.49739 0.56733,-2.66927 0.57664,-1.18117 1.5997,-1.84151 1.03237,-0.66965 2.23214,-0.66965 1.96243,0 3.0506,1.29279 1.08817,1.29278 1.08817,3.70163 v 0.71614 h -6.81733 q 0.0372,1.4881 0.86495,2.40886 0.83705,0.91145 2.12053,0.91145 0.91146,0 1.5439,-0.37202 0.63244,-0.37202 1.10677,-0.98586 l 1.05097,0.81845 q -1.26488,1.94382 -3.79464,1.94382 z m -0.21392,-9.02157 q -1.04166,0 -1.74851,0.76265 -0.70684,0.75335 -0.87425,2.12053 h 5.04092 v -0.1302 q -0.0744,-1.31139 -0.70685,-2.02753 -0.63244,-0.72545 -1.71131,-0.72545 z"
     style="font-family:Roboto;-inkscape-font-specification:'Roboto, Normal';fill:#1a1a1a;fill-opacity:1"
     id="path687" /><path
     d="m 508.74961,429.33266 q 0,-0.44643 0.26042,-0.74404 0.26972,-0.29762 0.79985,-0.29762 0.53013,0 0.79985,0.29762 0.27902,0.29761 0.27902,0.74404 0,0.42783 -0.27902,0.71615 -0.26972,0.28832 -0.79985,0.28832 -0.53013,0 -0.79985,-0.28832 -0.26042,-0.28832 -0.26042,-0.71615 z"
     style="font-family:Roboto;-inkscape-font-specification:'Roboto, Normal';fill:#1a1a1a;fill-opacity:1"
     id="path689" /></g><text
   xml:space="preserve"
   style="font-style:normal;font-variant:normal;font-weight:normal;font-stretch:normal;font-size:19.0476px;font-family:'MS Reference Sans Serif';-inkscape-font-specification:'MS Reference Sans Serif, Normal';font-variant-ligatures:normal;font-variant-caps:normal;font-variant-numeric:normal;font-variant-east-asian:normal;text-align:center;text-anchor:middle;white-space:pre;inline-size:466.048;display:inline;fill:#000000;fill-opacity:1;stroke:none;stroke-width:0"
   x="361.87039"
   y="405.71426"
   id="text4405-1"
   transform="translate(-234.19633,101.61303)"><tspan
     x="361.87039"
     y="405.71426"
     id="tspan2632"><tspan
       style="font-family:Roboto;-inkscape-font-specification:'Roboto, Normal'"
       id="tspan2630">Font - Roboto (for bottom half)</tspan></tspan></text><a
   id="a1313"
   xlink:href="https://www.materialscloud.org/learn"
   transform="translate(5.7142859,-1.1428571)"
   target="_blank"><rect
     style="fill:#ffffff;fill-opacity:0.05;stroke:#010500;stroke-width:0"
     id="rect625"
     width="68.281609"
     height="90.299469"
     x="-10.606602"
     y="201.8121"
     ry="4.013309" /></a><a
   id="a1313-7"
   xlink:href="https://www.materialscloud.org/work"
   transform="translate(94.516161,-0.67902654)"
   target="_blank"><rect
     style="fill:#ffffff;fill-opacity:0.05;stroke:#010500;stroke-width:0"
     id="rect625-4"
     width="68.281609"
     height="90.299469"
     x="-10.606602"
     y="201.8121"
     ry="4.013309" /></a><a
   id="a1313-7-4"
   xlink:href="https://www.materialscloud.org/discover"
   transform="matrix(1.1898898,0,0,1,180.05997,-0.67902654)"
   style="stroke-width:0.916741"
   target="_blank"><rect
     style="fill:#ffffff;fill-opacity:0.05;stroke:#010500;stroke-width:0"
     id="rect625-4-2"
     width="68.281609"
     height="90.299469"
     x="-10.606602"
     y="201.8121"
     ry="4.013309" /></a><a
   id="a1313-7-4-4"
   xlink:href="https://www.materialscloud.org/explore"
   transform="matrix(1.1898898,0,0,1,271.86209,-0.67902654)"
   style="stroke-width:0.916741"
   target="_blank"><rect
     style="fill:#ffffff;fill-opacity:0.05;stroke:#010500;stroke-width:0"
     id="rect625-4-2-4"
     width="68.281609"
     height="90.299469"
     x="-10.606602"
     y="201.8121"
     ry="4.013309" /></a><a
   id="a1313-7-4-4-9"
   xlink:href="https://www.materialscloud.org/archive"
   transform="matrix(1.1898898,0,0,1,362.63921,-0.56719494)"
   style="stroke-width:0.916741"
   target="_blank"><rect
     style="fill:#ffffff;fill-opacity:0.05;stroke:#010500;stroke-width:0"
     id="rect625-4-2-4-5"
     width="68.281609"
     height="90.299469"
     x="-10.606602"
     y="201.8121"
     ry="4.013309" /></a></svg>
