<?xml version="1.0" encoding="UTF-8" standalone="no"?>
<!-- Generator: Adobe Illustrator 25.2.0, SVG Export Plug-In . SVG Version: 6.00 Build 0)  -->

<svg
   version="1.1"
   id="svg2"
   x="0px"
   y="0px"
   viewBox="0 0 421.05263 94.736842"
   xml:space="preserve"
   sodipodi:docname="mcloud-home-dark-footer-nologo-links.svg"
   inkscape:version="1.2.1 (9c6d41e410, 2022-07-14)"
   width="400"
   height="90"
   xmlns:inkscape="http://www.inkscape.org/namespaces/inkscape"
   xmlns:sodipodi="http://sodipodi.sourceforge.net/DTD/sodipodi-0.dtd"
   xmlns:xlink="http://www.w3.org/1999/xlink"
   xmlns="http://www.w3.org/2000/svg"
   xmlns:svg="http://www.w3.org/2000/svg"><defs
   id="defs77" />
<style
   type="text/css"
   id="style2">
	.st0{fill:#FFFFFF;}
	.st1{fill:#D21F15;}
	.st2{fill:#231F20;}
	.st3{fill:none;stroke:#CCCCCC;stroke-width:4.1907;stroke-linecap:round;stroke-linejoin:round;}
	.st4{fill:none;stroke:#3B3A3C;stroke-width:3.2537;stroke-linecap:round;stroke-linejoin:round;stroke-miterlimit:3.379;}
	.st5{fill:none;stroke:#3B3A3C;stroke-width:3.8517;stroke-linecap:round;stroke-linejoin:round;}
	.st6{fill:none;stroke:#3B3A3C;stroke-width:4.1455;stroke-linecap:round;stroke-linejoin:round;stroke-miterlimit:4.305;}
	.st7{fill:#3C3738;stroke:#000000;stroke-width:0.2268;stroke-miterlimit:9.0723;}
</style>

<sodipodi:namedview
   bordercolor="#666666"
   borderopacity="1"
   fit-margin-bottom="0"
   fit-margin-left="0"
   fit-margin-right="0"
   fit-margin-top="0"
   gridtolerance="10"
   guidetolerance="10"
   id="namedview27"
   inkscape:current-layer="svg2"
   inkscape:cx="196.36547"
   inkscape:cy="77.972858"
   inkscape:pageopacity="0"
   inkscape:pageshadow="2"
   inkscape:snap-text-baseline="true"
   inkscape:window-height="1161"
   inkscape:window-maximized="0"
   inkscape:window-width="1920"
   inkscape:window-x="0"
   inkscape:window-y="0"
   inkscape:zoom="1.7441967"
   objecttolerance="10"
   pagecolor="#ffffff"
   showgrid="false"
   inkscape:showpageshadow="2"
   inkscape:pagecheckerboard="0"
   inkscape:deskcolor="#d1d1d1"
   showguides="true">
	<sodipodi:guide
   position="0.28764069,-165.331"
   orientation="0,-1"
   id="guide957"
   inkscape:locked="false" /></sodipodi:namedview>






<g
   id="flowRoot4156"
   transform="translate(-1.0681153e-4)">
</g>












<text
   style="font-size:16.6667px;font-family:ArialMT;fill:#cccccc"
   id="text66"
   x="3.2119"
   y="392.37991">LEARN</text>
<text
   style="font-size:16.6667px;font-family:ArialMT;fill:#cccccc"
   id="text68"
   x="94.298698"
   y="392.37991">WORK</text>
<text
   style="font-size:16.6667px;font-family:ArialMT;fill:#cccccc"
   id="text70"
   x="264.13251"
   y="392.37991">EXPLORE</text>
<text
   style="font-size:16.6667px;font-family:ArialMT;fill:#cccccc"
   id="text72"
   x="167.31531"
   y="392.37991">DISCOVER</text>
<text
   style="font-size:16.6667px;font-family:ArialMT;fill:#cccccc"
   id="text74"
   x="354.64609"
   y="392.37991">ARCHIVE</text>
<g
   id="g120"
   transform="matrix(0.88727883,0,0,0.88727883,167.18863,-243.67663)"
   style="stroke:#333333;stroke-width:0.763277;stroke-opacity:1">
	<path
   id="path16"
   inkscape:connector-curvature="0"
   sodipodi:nodetypes="cc"
   class="st3"
   d="m 124.8,306 h 36.7"
   style="fill:none;stroke:#333333;stroke-width:2.48348;stroke-linecap:round;stroke-linejoin:round;stroke-miterlimit:3.379;stroke-opacity:1" />
	<path
   id="path101"
   inkscape:connector-curvature="0"
   class="st3"
   d="m 114.5,306 c 0,2.8 2.2,5 5,5 2.8,0 5,-2.2 5,-5 0,-2.8 -2.2,-5 -5,-5 -2.8,0 -5,2.3 -5,5 z"
   style="fill:none;stroke:#333333;stroke-width:2.48348;stroke-linecap:round;stroke-linejoin:round;stroke-miterlimit:3.379;stroke-opacity:1" />
	<path
   id="path18"
   inkscape:connector-curvature="0"
   class="st3"
   d="m 162.1,306 c 0,2.8 2.2,5 5,5 2.8,0 5,-2.2 5,-5 0,-2.8 -2.2,-5 -5,-5 -2.8,0 -5,2.3 -5,5 z"
   style="fill:none;stroke:#333333;stroke-width:2.48348;stroke-linecap:round;stroke-linejoin:round;stroke-miterlimit:3.379;stroke-opacity:1" />
</g><path
   id="path20"
   inkscape:connector-curvature="0"
   class="st4"
   d="m 363.37021,22.848944 c 0,-10.039799 8.30216,-18.1488831 18.63158,-18.1488831 10.23287,0 18.63156,8.1090841 18.63156,18.1488831 m -37.26314,0.482695 c -7.62639,0 -13.80473,6.178331 -13.80473,13.804734 0,7.62639 6.17834,13.804735 13.80473,13.804735 m 37.1666,-27.609469 c 7.6264,0 13.80475,6.178331 13.80475,13.804734 0,7.62639 -6.17835,13.804735 -13.80475,13.804735 m -37.26313,0.09656 h 37.35967"
   style="fill:none;stroke:#333333;stroke-width:2.83809;stroke-linecap:round;stroke-linejoin:round;stroke-opacity:1" /><path
   id="path86"
   inkscape:connector-curvature="0"
   class="st4"
   d="M 184.68092,9.5268914 195.6861,27.86885 206.69127,46.210808 217.69645,27.86885 228.70162,9.5268914 Z"
   style="fill:none;stroke:#333333;stroke-width:2.83809;stroke-linecap:round;stroke-linejoin:round;stroke-opacity:1" /><g
   id="g94"
   transform="matrix(1.0015051,0,0,1.0015051,-216.21072,-363.19602)"
   style="stroke:#333333;stroke-width:0.763277;stroke-opacity:1">
	<path
   id="path90"
   inkscape:connector-curvature="0"
   class="st5"
   d="m 228.2,400.7 c 0,-11.3 9.4,-20.4 21,-20.4 11.6,0 21,9.1 21,20.4"
   style="fill:none;stroke:#333333;stroke-width:3.16417;stroke-linecap:round;stroke-linejoin:round;stroke-miterlimit:4.305;stroke-opacity:1" />
	<path
   id="path92"
   inkscape:connector-curvature="0"
   class="st5"
   d="m 228.2,400.7 h 42.1"
   style="fill:none;stroke:#333333;stroke-width:3.16417;stroke-linecap:round;stroke-linejoin:round;stroke-miterlimit:4.305;stroke-opacity:1" />
</g><g
   id="g127"
   transform="matrix(0.88727883,0,0,0.88727883,98.290876,-243.67708)"
   style="stroke:#333333;stroke-width:0.763277;stroke-opacity:1">
	<path
   id="path89"
   inkscape:connector-curvature="0"
   class="st3"
   d="m -4.3,286 c 0,2.8 2.2,5 5,5 2.8,0 5,-2.2 5,-5 0,-2.8 -2.2,-5 -5,-5 -2.7,0 -5,2.2 -5,5 z"
   style="fill:none;stroke:#333333;stroke-width:2.48348;stroke-linecap:round;stroke-linejoin:round;stroke-miterlimit:3.379;stroke-opacity:1" />
	<path
   id="path93"
   inkscape:connector-curvature="0"
   class="st3"
   d="m 43.3,286 c 0,2.8 2.2,5 5,5 2.8,0 5,-2.2 5,-5 0,-2.8 -2.2,-5 -5,-5 -2.8,0 -5,2.2 -5,5 z"
   style="fill:none;stroke:#333333;stroke-width:2.48348;stroke-linecap:round;stroke-linejoin:round;stroke-miterlimit:3.379;stroke-opacity:1" />
	<path
   id="path122"
   inkscape:connector-curvature="0"
   class="st3"
   d="m 19.5,326.1 c 0,2.8 2.2,5 5,5 2.8,0 5,-2.2 5,-5 0,-2.8 -2.2,-5 -5,-5 -2.7,0 -5,2.2 -5,5 z"
   style="fill:none;stroke:#333333;stroke-width:2.48348;stroke-linecap:round;stroke-linejoin:round;stroke-miterlimit:3.379;stroke-opacity:1" />
</g><g
   aria-label="LEARN"
   id="text1760"
   style="font-size:16.5492px;stroke-width:0;fill:#1a1a1a;fill-opacity:1"><path
     d="m 10.79261,85.444196 h 5.575658 V 86.71286 H 9.2330414 V 74.947413 H 10.79261 Z"
     style="font-family:Roboto;-inkscape-font-specification:'Roboto, Normal';text-align:center;text-anchor:middle;fill:#1a1a1a;fill-opacity:1"
     id="path169" /><path
     d="m 24.78832,81.274573 h -5.098899 v 4.169623 h 5.923127 V 86.71286 H 18.137933 V 74.947413 h 7.393808 v 1.276745 h -5.84232 v 3.781751 h 5.098899 z"
     style="font-family:Roboto;-inkscape-font-specification:'Roboto, Normal';text-align:center;text-anchor:middle;fill:#1a1a1a;fill-opacity:1"
     id="path171" /><path
     d="m 34.040681,83.642208 h -4.929205 l -1.107051,3.070652 h -1.599972 l 4.492849,-11.765447 h 1.357552 l 4.50093,11.765447 h -1.591891 z m -4.460527,-1.276745 h 3.999929 l -2.004005,-5.502932 z"
     style="font-family:Roboto;-inkscape-font-specification:'Roboto, Normal';text-align:center;text-anchor:middle;fill:#1a1a1a;fill-opacity:1"
     id="path173" /><path
     d="M 42.654668,81.953349 H 39.891081 V 86.71286 H 38.331513 V 74.947413 h 3.89488 q 1.987843,0 3.054491,0.905035 1.074728,0.905034 1.074728,2.634296 0,1.09897 -0.597969,1.915117 -0.589888,0.816148 -1.648455,1.220181 l 2.763587,4.99385 v 0.09697 h -1.664617 z m -2.763587,-1.268664 h 2.383796 q 1.155535,0 1.834311,-0.597969 0.686856,-0.59797 0.686856,-1.599972 0,-1.09089 -0.654534,-1.672697 -0.646453,-0.581808 -1.874714,-0.589889 h -2.375715 z"
     style="font-family:Roboto;-inkscape-font-specification:'Roboto, Normal';text-align:center;text-anchor:middle;fill:#1a1a1a;fill-opacity:1"
     id="path175" /><path
     d="M 57.571573,86.71286 H 56.012005 L 50.088878,77.646355 V 86.71286 H 48.52931 V 74.947413 h 1.559568 l 5.939288,9.106909 v -9.106909 h 1.543407 z"
     style="font-family:Roboto;-inkscape-font-specification:'Roboto, Normal';text-align:center;text-anchor:middle;fill:#1a1a1a;fill-opacity:1"
     id="path177" /></g><g
   aria-label="WORK"
   id="text1760-5"
   style="font-size:16.5492px;stroke-width:0;fill:#1a1a1a;fill-opacity:1"><path
     d="m 100.61943,83.003835 0.22626,1.551488 0.33131,-1.397955 2.32723,-8.209955 h 1.30907 l 2.27067,8.209955 0.32322,1.422197 0.2505,-1.58381 1.82623,-8.048342 h 1.55957 l -2.85247,11.765447 h -1.41412 l -2.4242,-8.573584 -0.18585,-0.896954 -0.18586,0.896954 -2.51309,8.573584 h -1.41411 L 97.209395,74.947413 h 1.551487 z"
     style="font-family:Roboto;-inkscape-font-specification:'Roboto, Normal';text-align:center;text-anchor:middle;fill:#1a1a1a;fill-opacity:1"
     id="path180" /><path
     d="m 121.81502,81.209928 q 0,1.729262 -0.58181,3.022168 -0.58181,1.284826 -1.64846,1.963602 -1.06664,0.678775 -2.48884,0.678775 -1.38988,0 -2.4646,-0.678775 -1.07473,-0.686857 -1.6727,-1.94744 -0.58989,-1.268665 -0.60605,-2.933282 v -0.848469 q 0,-1.69694 0.58989,-2.997927 0.58989,-1.300987 1.66461,-1.987843 1.08281,-0.694937 2.47269,-0.694937 1.41411,0 2.48884,0.686856 1.08281,0.678776 1.66462,1.979763 0.58181,1.292906 0.58181,3.014088 z m -1.54341,-0.759583 q 0,-2.092892 -0.84039,-3.208023 -0.84039,-1.123213 -2.35147,-1.123213 -1.47068,0 -2.31915,1.123213 -0.84039,1.115131 -0.86463,3.102975 v 0.864631 q 0,2.028247 0.84847,3.191862 0.85655,1.155535 2.35147,1.155535 1.503,0 2.32723,-1.09089 0.82423,-1.09897 0.84847,-3.143378 z"
     style="font-family:Roboto;-inkscape-font-specification:'Roboto, Normal';text-align:center;text-anchor:middle;fill:#1a1a1a;fill-opacity:1"
     id="path182" /><path
     d="m 128.45732,81.953349 h -2.76358 v 4.759511 h -1.55957 V 74.947413 h 3.89488 q 1.98784,0 3.05449,0.905035 1.07473,0.905034 1.07473,2.634296 0,1.09897 -0.59797,1.915117 -0.58989,0.816148 -1.64846,1.220181 l 2.76359,4.99385 v 0.09697 h -1.66462 z m -2.76358,-1.268664 h 2.38379 q 1.15554,0 1.83431,-0.597969 0.68686,-0.59797 0.68686,-1.599972 0,-1.09089 -0.65453,-1.672697 -0.64646,-0.581808 -1.87472,-0.589889 h -2.37571 z"
     style="font-family:Roboto;-inkscape-font-specification:'Roboto, Normal';text-align:center;text-anchor:middle;fill:#1a1a1a;fill-opacity:1"
     id="path184" /><path
     d="m 137.32181,81.242251 -1.43836,1.494922 v 3.975687 h -1.55148 V 74.947413 h 1.55148 v 5.818078 l 5.22819,-5.818078 h 1.87472 l -4.63022,5.195867 4.99385,6.56958 h -1.85856 z"
     style="font-family:Roboto;-inkscape-font-specification:'Roboto, Normal';text-align:center;text-anchor:middle;fill:#1a1a1a;fill-opacity:1"
     id="path186" /></g><g
   aria-label="DISCOVER"
   id="text1760-5-8"
   style="font-size:16.5492px;stroke-width:0;fill:#1a1a1a;fill-opacity:1"><path
     d="M 168.69061,86.755959 V 74.990512 h 3.32115 q 1.53533,0 2.71511,0.678775 1.17977,0.678776 1.81815,1.931279 0.64645,1.252503 0.65453,2.876717 v 0.751501 q 0,1.664617 -0.64645,2.91712 -0.63838,1.252503 -1.83431,1.923198 -1.18786,0.670695 -2.77167,0.686857 z m 1.55149,-10.488702 v 9.220037 h 1.63229 q 1.79391,0 2.78783,-1.115131 1.002,-1.115132 1.002,-3.175701 v -0.686857 q 0,-2.004004 -0.94543,-3.111055 -0.93736,-1.115132 -2.66662,-1.131293 z"
     style="font-family:Roboto;-inkscape-font-specification:'Roboto, Normal';text-align:center;text-anchor:middle;fill:#1a1a1a;fill-opacity:1"
     id="path189" /><path
     d="m 181.20756,86.755959 h -1.55149 V 74.990512 h 1.55149 z"
     style="font-family:Roboto;-inkscape-font-specification:'Roboto, Normal';text-align:center;text-anchor:middle;fill:#1a1a1a;fill-opacity:1"
     id="path191" /><path
     d="m 187.51048,81.511608 q -1.99593,-0.573728 -2.90904,-1.406036 -0.90504,-0.840389 -0.90504,-2.06865 0,-1.389874 1.10706,-2.294909 1.11513,-0.913115 2.89287,-0.913115 1.2121,0 2.15754,0.468679 0.95352,0.468678 1.47068,1.292906 0.52524,0.824228 0.52524,1.801988 h -1.55956 q 0,-1.066647 -0.67878,-1.672697 -0.67878,-0.614131 -1.91512,-0.614131 -1.14745,0 -1.7939,0.509082 -0.63838,0.501001 -0.63838,1.397955 0,0.719179 0.60605,1.22018 0.61413,0.492921 2.07673,0.905035 1.47068,0.412114 2.29491,0.913115 0.83231,0.49292 1.22826,1.155535 0.40404,0.662614 0.40404,1.559568 0,1.430277 -1.11514,2.294908 -1.11513,0.856551 -2.98176,0.856551 -1.2121,0 -2.26259,-0.460598 -1.05048,-0.468679 -1.62421,-1.276745 -0.56565,-0.808066 -0.56565,-1.834311 h 1.55957 q 0,1.066648 0.78383,1.688859 0.7919,0.614131 2.10905,0.614131 1.22826,0 1.88279,-0.501002 0.65454,-0.501001 0.65454,-1.365632 0,-0.864631 -0.60605,-1.333309 -0.60605,-0.47676 -2.19794,-0.937357 z"
     style="font-family:Roboto;-inkscape-font-specification:'Roboto, Normal';text-align:center;text-anchor:middle;fill:#1a1a1a;fill-opacity:1"
     id="path193" /><path
     d="m 202.51627,83.022692 q -0.21818,1.866633 -1.38179,2.884797 -1.15554,1.010083 -3.07874,1.010083 -2.08481,0 -3.34539,-1.494923 -1.2525,-1.494923 -1.2525,-3.999929 v -1.131293 q 0,-1.640375 0.5818,-2.884797 0.58989,-1.244422 1.66462,-1.907037 1.07473,-0.670695 2.48885,-0.670695 1.87471,0 3.006,1.050487 1.1313,1.042405 1.31715,2.892877 h -1.55957 q -0.20201,-1.406035 -0.88079,-2.036327 -0.6707,-0.630292 -1.88279,-0.630292 -1.48685,0 -2.33532,1.098971 -0.84039,1.09897 -0.84039,3.127217 v 1.139373 q 0,1.915118 0.79999,3.046411 0.79999,1.131293 2.23834,1.131293 1.29291,0 1.97977,-0.581808 0.69493,-0.589889 0.92119,-2.044408 z"
     style="font-family:Roboto;-inkscape-font-specification:'Roboto, Normal';text-align:center;text-anchor:middle;fill:#1a1a1a;fill-opacity:1"
     id="path195" /><path
     d="m 213.68375,81.253026 q 0,1.729262 -0.58181,3.022169 -0.58181,1.284825 -1.64845,1.963601 -1.06665,0.678776 -2.48885,0.678776 -1.38987,0 -2.4646,-0.678776 -1.07473,-0.686856 -1.6727,-1.94744 -0.58989,-1.268664 -0.60605,-2.933281 v -0.84847 q 0,-1.696939 0.58989,-2.997926 0.58989,-1.300987 1.66462,-1.987844 1.08281,-0.694937 2.47268,-0.694937 1.41412,0 2.48884,0.686857 1.08281,0.678776 1.66462,1.979763 0.58181,1.292906 0.58181,3.014087 z m -1.54341,-0.759582 q 0,-2.092892 -0.84039,-3.208024 -0.84039,-1.123212 -2.35147,-1.123212 -1.47068,0 -2.31915,1.123212 -0.84039,1.115132 -0.86463,3.102975 v 0.864631 q 0,2.028247 0.84847,3.191863 0.85655,1.155535 2.35147,1.155535 1.503,0 2.32723,-1.09089 0.82423,-1.09897 0.84847,-3.143378 z"
     style="font-family:Roboto;-inkscape-font-specification:'Roboto, Normal';text-align:center;text-anchor:middle;fill:#1a1a1a;fill-opacity:1"
     id="path197" /><path
     d="m 219.72808,84.695389 3.36156,-9.704877 h 1.69694 l -4.36356,11.765447 h -1.37371 l -4.35548,-11.765447 h 1.68886 z"
     style="font-family:Roboto;-inkscape-font-specification:'Roboto, Normal';text-align:center;text-anchor:middle;fill:#1a1a1a;fill-opacity:1"
     id="path199" /><path
     d="m 233.0127,81.317672 h -5.0989 v 4.169622 h 5.92312 v 1.268665 h -7.47461 V 74.990512 h 7.39381 v 1.276745 h -5.84232 v 3.78175 h 5.0989 z"
     style="font-family:Roboto;-inkscape-font-specification:'Roboto, Normal';text-align:center;text-anchor:middle;fill:#1a1a1a;fill-opacity:1"
     id="path201" /><path
     d="m 240.08328,81.996447 h -2.76359 v 4.759512 h -1.55957 V 74.990512 h 3.89488 q 1.98784,0 3.05449,0.905034 1.07473,0.905034 1.07473,2.634297 0,1.09897 -0.59797,1.915117 -0.58989,0.816147 -1.64845,1.22018 l 2.76358,4.993851 v 0.09697 h -1.66461 z m -2.76359,-1.268664 h 2.38379 q 1.15554,0 1.83432,-0.597969 0.68685,-0.597969 0.68685,-1.599971 0,-1.09089 -0.65453,-1.672698 -0.64645,-0.581808 -1.87472,-0.589888 h -2.37571 z"
     style="font-family:Roboto;-inkscape-font-specification:'Roboto, Normal';text-align:center;text-anchor:middle;fill:#1a1a1a;fill-opacity:1"
     id="path203" /></g><g
   aria-label="EXPLORE"
   id="text1760-5-8-3"
   style="font-size:16.5492px;stroke-width:0;fill:#1a1a1a;fill-opacity:1"><path
     d="m 268.33636,81.274573 h -5.09889 v 4.169623 h 5.92312 v 1.268664 h -7.47461 V 74.947413 h 7.39381 v 1.276745 h -5.84232 v 3.781751 h 5.09889 z"
     style="font-family:Roboto;-inkscape-font-specification:'Roboto, Normal';text-align:center;text-anchor:middle;fill:#1a1a1a;fill-opacity:1"
     id="path206" /><path
     d="m 274.93019,79.456424 2.82015,-4.509011 h 1.82623 l -3.71711,5.83424 3.806,5.931207 h -1.8424 l -2.89287,-4.589817 -2.90904,4.589817 h -1.83431 l 3.81407,-5.931207 -3.72519,-5.83424 h 1.81815 z"
     style="font-family:Roboto;-inkscape-font-specification:'Roboto, Normal';text-align:center;text-anchor:middle;fill:#1a1a1a;fill-opacity:1"
     id="path208" /><path
     d="m 283.01893,82.106882 v 4.605978 h -1.55148 V 74.947413 h 4.33931 q 1.93128,0 3.02217,0.985841 1.09897,0.985841 1.09897,2.610055 0,1.7131 -1.07473,2.642377 -1.06664,0.921196 -3.06257,0.921196 z m 0,-1.268665 h 2.78783 q 1.24442,0 1.90704,-0.581808 0.66261,-0.589888 0.66261,-1.696939 0,-1.050486 -0.66261,-1.680778 -0.66262,-0.630292 -1.81815,-0.654534 h -2.87672 z"
     style="font-family:Roboto;-inkscape-font-specification:'Roboto, Normal';text-align:center;text-anchor:middle;fill:#1a1a1a;fill-opacity:1"
     id="path210" /><path
     d="m 293.46723,85.444196 h 5.57566 v 1.268664 h -7.13523 V 74.947413 h 1.55957 z"
     style="font-family:Roboto;-inkscape-font-specification:'Roboto, Normal';text-align:center;text-anchor:middle;fill:#1a1a1a;fill-opacity:1"
     id="path212" /><path
     d="m 309.33766,81.209928 q 0,1.729262 -0.58181,3.022168 -0.58181,1.284826 -1.64846,1.963602 -1.06665,0.678775 -2.48884,0.678775 -1.38988,0 -2.4646,-0.678775 -1.07473,-0.686857 -1.6727,-1.94744 -0.58989,-1.268665 -0.60605,-2.933282 v -0.848469 q 0,-1.69694 0.58989,-2.997927 0.58989,-1.300987 1.66461,-1.987843 1.08281,-0.694937 2.47269,-0.694937 1.41411,0 2.48884,0.686856 1.08281,0.678776 1.66462,1.979763 0.58181,1.292906 0.58181,3.014088 z m -1.54341,-0.759583 q 0,-2.092892 -0.84039,-3.208023 -0.84039,-1.123213 -2.35147,-1.123213 -1.47068,0 -2.31915,1.123213 -0.84039,1.115131 -0.86464,3.102975 v 0.864631 q 0,2.028247 0.84847,3.191862 0.85656,1.155535 2.35148,1.155535 1.503,0 2.32723,-1.09089 0.82423,-1.09897 0.84847,-3.143378 z"
     style="font-family:Roboto;-inkscape-font-specification:'Roboto, Normal';text-align:center;text-anchor:middle;fill:#1a1a1a;fill-opacity:1"
     id="path214" /><path
     d="m 315.97996,81.953349 h -2.76359 v 4.759511 h -1.55956 V 74.947413 h 3.89488 q 1.98784,0 3.05449,0.905035 1.07473,0.905034 1.07473,2.634296 0,1.09897 -0.59797,1.915117 -0.58989,0.816148 -1.64846,1.220181 l 2.76359,4.99385 v 0.09697 h -1.66462 z m -2.76359,-1.268664 h 2.3838 q 1.15554,0 1.83431,-0.597969 0.68686,-0.59797 0.68686,-1.599972 0,-1.09089 -0.65454,-1.672697 -0.64645,-0.581808 -1.87471,-0.589889 h -2.37572 z"
     style="font-family:Roboto;-inkscape-font-specification:'Roboto, Normal';text-align:center;text-anchor:middle;fill:#1a1a1a;fill-opacity:1"
     id="path216" /><path
     d="m 328.50499,81.274573 h -5.0989 v 4.169623 h 5.92313 V 86.71286 H 321.8546 V 74.947413 h 7.39381 v 1.276745 h -5.84232 v 3.781751 h 5.0989 z"
     style="font-family:Roboto;-inkscape-font-specification:'Roboto, Normal';text-align:center;text-anchor:middle;fill:#1a1a1a;fill-opacity:1"
     id="path218" /></g><g
   aria-label="ARCHIVE"
   id="text1760-5-8-3-6"
   style="font-size:16.5492px;stroke-width:0;fill:#1a1a1a;fill-opacity:1"><path
     d="m 355.82065,83.642208 h -4.9292 l -1.10705,3.070652 h -1.59997 l 4.49285,-11.765447 h 1.35755 l 4.50093,11.765447 h -1.59189 z m -4.46052,-1.276745 h 3.99993 l -2.00401,-5.502932 z"
     style="font-family:Roboto;-inkscape-font-specification:'Roboto, Normal';text-align:center;text-anchor:middle;fill:#1a1a1a;fill-opacity:1"
     id="path221" /><path
     d="m 364.43464,81.953349 h -2.76359 v 4.759511 h -1.55956 V 74.947413 h 3.89488 q 1.98784,0 3.05449,0.905035 1.07473,0.905034 1.07473,2.634296 0,1.09897 -0.59797,1.915117 -0.58989,0.816148 -1.64846,1.220181 l 2.76359,4.99385 v 0.09697 h -1.66462 z m -2.76359,-1.268664 h 2.3838 q 1.15554,0 1.83431,-0.597969 0.68686,-0.59797 0.68686,-1.599972 0,-1.09089 -0.65454,-1.672697 -0.64645,-0.581808 -1.87471,-0.589889 h -2.37572 z"
     style="font-family:Roboto;-inkscape-font-specification:'Roboto, Normal';text-align:center;text-anchor:middle;fill:#1a1a1a;fill-opacity:1"
     id="path223" /><path
     d="m 378.96368,82.979593 q -0.21818,1.866634 -1.3818,2.884797 -1.15553,1.010083 -3.07873,1.010083 -2.08481,0 -3.3454,-1.494922 -1.2525,-1.494923 -1.2525,-3.999929 v -1.131293 q 0,-1.640375 0.58181,-2.884797 0.58989,-1.244423 1.66462,-1.907037 1.07472,-0.670695 2.48884,-0.670695 1.87472,0 3.00601,1.050486 1.13129,1.042406 1.31715,2.892878 h -1.55957 q -0.20202,-1.406036 -0.88079,-2.036327 -0.6707,-0.630292 -1.8828,-0.630292 -1.48684,0 -2.33531,1.09897 -0.84039,1.09897 -0.84039,3.127217 v 1.139374 q 0,1.915117 0.79999,3.04641 0.79998,1.131293 2.23834,1.131293 1.29291,0 1.97976,-0.581808 0.69494,-0.589888 0.9212,-2.044408 z"
     style="font-family:Roboto;-inkscape-font-specification:'Roboto, Normal';text-align:center;text-anchor:middle;fill:#1a1a1a;fill-opacity:1"
     id="path225" /><path
     d="m 390.12307,86.71286 h -1.55957 v -5.438287 h -5.9312 v 5.438287 h -1.55149 V 74.947413 h 1.55149 v 5.058496 h 5.9312 v -5.058496 h 1.55957 z"
     style="font-family:Roboto;-inkscape-font-specification:'Roboto, Normal';text-align:center;text-anchor:middle;fill:#1a1a1a;fill-opacity:1"
     id="path227" /><path
     d="m 394.5432,86.71286 h -1.55149 V 74.947413 h 1.55149 z"
     style="font-family:Roboto;-inkscape-font-specification:'Roboto, Normal';text-align:center;text-anchor:middle;fill:#1a1a1a;fill-opacity:1"
     id="path229" /><path
     d="m 401.27439,84.652291 3.36156,-9.704878 h 1.69694 l -4.36356,11.765447 h -1.37372 l -4.35547,-11.765447 h 1.68886 z"
     style="font-family:Roboto;-inkscape-font-specification:'Roboto, Normal';text-align:center;text-anchor:middle;fill:#1a1a1a;fill-opacity:1"
     id="path231" /><path
     d="m 414.559,81.274573 h -5.0989 v 4.169623 h 5.92313 v 1.268664 h -7.47461 V 74.947413 h 7.3938 v 1.276745 h -5.84232 v 3.781751 h 5.0989 z"
     style="font-family:Roboto;-inkscape-font-specification:'Roboto, Normal';text-align:center;text-anchor:middle;fill:#1a1a1a;fill-opacity:1"
     id="path233" /></g><a
   id="a1313"
   xlink:href="https://www.materialscloud.org/learn"
   transform="matrix(0.96536623,0,0,0.96536623,10.239256,-192.71733)"
   target="_blank"
   style="stroke-width:0.763277"><rect
     style="fill:#ffffff;fill-opacity:0.05;stroke:#010500;stroke-width:0"
     id="rect625"
     width="68.281609"
     height="90.299469"
     x="-10.606602"
     y="201.8121"
     ry="4.013309" /></a><a
   id="a1313-7"
   xlink:href="https://www.materialscloud.org/work"
   transform="matrix(0.96536623,0,0,0.96536623,95.965587,-192.26956)"
   target="_blank"
   style="stroke-width:0.763277"><rect
     style="fill:#ffffff;fill-opacity:0.05;stroke:#010500;stroke-width:0"
     id="rect625-4"
     width="68.281609"
     height="90.299469"
     x="-10.606602"
     y="201.8121"
     ry="4.013309" /></a><a
   id="a1313-7-4"
   xlink:href="https://www.materialscloud.org/discover"
   transform="matrix(1.1486794,0,0,0.96536623,178.54669,-192.26956)"
   style="stroke-width:0.699728"
   target="_blank"><rect
     style="fill:#ffffff;fill-opacity:0.05;stroke:#010500;stroke-width:0"
     id="rect625-4-2"
     width="68.281609"
     height="90.299469"
     x="-10.606602"
     y="201.8121"
     ry="4.013309" /></a><a
   id="a1313-7-4-4"
   xlink:href="https://www.materialscloud.org/explore"
   transform="matrix(1.1486794,0,0,0.96536623,267.16935,-192.26956)"
   style="stroke-width:0.699728"
   target="_blank"><rect
     style="fill:#ffffff;fill-opacity:0.05;stroke:#010500;stroke-width:0"
     id="rect625-4-2-4"
     width="68.281609"
     height="90.299469"
     x="-10.606602"
     y="201.8121"
     ry="4.013309" /></a><a
   id="a1313-7-4-4-9"
   xlink:href="https://www.materialscloud.org/archive"
   transform="matrix(1.1486794,0,0,0.96536623,354.80254,-192.1616)"
   style="stroke-width:0.699728"
   target="_blank"><rect
     style="fill:#ffffff;fill-opacity:0.05;stroke:#010500;stroke-width:0"
     id="rect625-4-2-4-5"
     width="68.281609"
     height="90.299469"
     x="-10.606602"
     y="201.8121"
     ry="4.013309" /></a></svg>
