<svg xmlns="http://www.w3.org/2000/svg" xml:space="preserve" width="244.029" height="80"><path fill="#36A9E1" d="M23.49 26.234v2.22H12.54v7.53h9.81v2.19h-9.81v9.06h-2.4v-21zM39.54 41.864H28.11l-2.34 5.37h-2.55l9.419-20.999h2.49l9.39 20.999h-2.61zm-.96-2.22-4.77-10.799-4.71 10.799zM50.219 26.234v20.999h-2.4V26.234zM70.319 47.233l-4.41-6.72c-.42.03-.87.06-1.35.06h-5.58v6.66h-2.4V26.234h7.98c5.25 0 8.28 2.58 8.28 7.05 0 3.45-1.71 5.819-4.74 6.779l4.95 7.17zm-5.76-8.879c3.81 0 5.97-1.709 5.97-5.01 0-3.209-2.16-4.89-5.97-4.89h-5.58v9.899z"/><path d="M81.989 33.314c-1.77 0-3.12.63-3.12 2.13 0 3.57 8.82 1.74 8.82 7.41 0 3.09-2.76 4.47-5.79 4.47-2.25 0-4.56-.78-6.06-2.22l.9-1.71c1.35 1.26 3.39 2.01 5.25 2.01s3.36-.72 3.39-2.31c.09-3.84-8.76-1.89-8.729-7.47 0-3 2.61-4.29 5.49-4.29 1.89 0 3.72.57 5.04 1.44l-.9 1.8c-1.231-.78-2.821-1.26-4.291-1.26M106.168 37.514v9.72h-2.34v-9.12c0-2.82-1.68-4.5-4.47-4.5-3.36.03-5.34 2.43-5.34 5.88v7.74h-2.34v-22.26h2.34v10.02c1.08-2.46 3.24-3.6 6.15-3.63 3.781 0 6 2.31 6 6.15M121.199 47.233v-2.46c-1.26 1.71-3.27 2.55-5.79 2.55-3.27 0-5.37-2.07-5.37-4.77 0-2.76 2.19-4.5 5.91-4.53h5.19v-.99c0-2.31-1.44-3.72-4.23-3.72-1.74 0-3.36.66-5.01 1.83l-.99-1.65c2.04-1.35 3.75-2.13 6.45-2.13 3.9 0 6.06 2.07 6.089 5.43l.03 10.439h-2.279zm-.031-5.429v-1.92h-4.92c-2.64 0-4.02.81-4.02 2.58 0 1.74 1.41 2.91 3.63 2.91 2.671 0 4.71-1.32 5.31-3.57M136.708 31.364v2.28c-3.33-.06-5.399 2.01-5.669 5.19v8.399h-2.34V31.454h2.34v3.51c1.05-2.31 3-3.57 5.669-3.6M142.528 26.924c0 .9-.66 1.59-1.53 1.59s-1.53-.69-1.53-1.59c0-.93.66-1.59 1.53-1.59.871 0 1.53.66 1.53 1.59m-.36 4.53v15.779h-2.31V31.454zM162.328 37.514v9.72h-2.34v-9.12c0-2.82-1.68-4.5-4.47-4.5-3.12.03-5.04 2.1-5.31 5.16v8.459h-2.34V31.454h2.34v3.48c1.11-2.4 3.24-3.54 6.12-3.57 3.78 0 6 2.31 6 6.15M181.317 31.454v14.129c0 4.62-3.15 7.53-7.95 7.53-2.49-.03-4.56-.84-6.479-2.31l1.08-1.71c1.56 1.29 3.209 1.98 5.31 2.01 3.45 0 5.7-2.13 5.7-5.459v-2.4c-1.11 2.1-3.15 3.3-5.82 3.3-4.26 0-7.2-3.15-7.2-7.62 0-4.44 2.91-7.53 7.14-7.56 2.7-.03 4.74 1.2 5.88 3.3v-3.21zm-2.339 7.53c0-3.3-2.25-5.67-5.399-5.67-3.18 0-5.4 2.37-5.43 5.67.03 3.27 2.25 5.64 5.43 5.64 3.149 0 5.399-2.371 5.399-5.64"/><path fill="#36A9E1" d="M188.218 45.943c0 .87-.63 1.53-1.44 1.53-.84 0-1.47-.66-1.47-1.53s.63-1.53 1.47-1.53c.81.001 1.44.66 1.44 1.53M207.027 39.313c0 4.71-3.33 8.01-8.01 8.01-4.709 0-8.01-3.3-8.01-8.01 0-4.68 3.3-7.949 8.01-7.949 4.68 0 8.01 3.27 8.01 7.949m-13.679.031c0 3.54 2.34 5.94 5.669 5.94 3.3 0 5.67-2.4 5.67-5.94 0-3.48-2.37-5.91-5.67-5.91-3.329 0-5.669 2.43-5.669 5.91M219.147 31.364v2.28c-3.33-.06-5.399 2.01-5.669 5.19v8.399h-2.34V31.454h2.34v3.51c1.049-2.31 2.999-3.57 5.669-3.6M236.066 31.454v14.129c0 4.62-3.15 7.53-7.95 7.53-2.49-.03-4.56-.84-6.479-2.31l1.08-1.71c1.56 1.29 3.209 1.98 5.31 2.01 3.45 0 5.7-2.13 5.7-5.459v-2.4c-1.11 2.1-3.15 3.3-5.82 3.3-4.26 0-7.2-3.15-7.2-7.62 0-4.44 2.91-7.53 7.14-7.56 2.7-.03 4.74 1.2 5.88 3.3v-3.21zm-2.339 7.53c0-3.3-2.25-5.67-5.399-5.67-3.18 0-5.4 2.37-5.43 5.67.03 3.27 2.25 5.64 5.43 5.64 3.149 0 5.399-2.371 5.399-5.64M53.282 63.396c-4.738 0-10.152-1.413-15.708-5.662-5.472-4.182-10.654-5.941-15.397-5.243-5.686.844-8.768 5.052-8.799 5.089a.724.724 0 0 1-1.006.17.716.716 0 0 1-.165-1.002c.135-.194 3.438-4.735 9.729-5.679 5.16-.772 10.708 1.083 16.514 5.519 15.691 11.987 30.115.146 30.262.024a.72.72 0 0 1 1.015.086.73.73 0 0 1-.088 1.02c-.102.084-6.915 5.678-16.357 5.678"/><path fill="#323E50" d="M24.241 63.431q-1.165 0-2.305-.168c-6.292-.947-9.595-5.488-9.729-5.684a.713.713 0 0 1 .165-.998.72.72 0 0 1 1.006.163c.031.044 3.113 4.251 8.799 5.093 4.743.708 9.926-1.056 15.397-5.25 16.599-12.672 31.909-.107 32.064.024a.722.722 0 0 1-.927 1.106c-.586-.496-14.596-11.945-30.262.017-4.952 3.789-9.72 5.697-14.208 5.697"/><path d="M78.136 58.654q-.424-.445-.424-.994 0-.633.521-1.093t1.45-.459q.618 0 1.168.225t.938.664l-.594.502a2.4 2.4 0 0 0-.688-.562 1.8 1.8 0 0 0-.812-.18q-.586 0-.89.252c-.304.252-.304.363-.304.585q0 .285.236.51.231.225 1.084.447 1.316.34 1.772.824.457.483.457 1.062 0 .691-.545 1.186-.544.494-1.485.494-.687 0-1.268-.258-.58-.258-1.225-.862l.674-.47q.483.483.907.69t.896.207q.601 0 .931-.288.33-.287.33-.674a.73.73 0 0 0-.247-.553q-.35-.327-1.402-.602a6 6 0 0 1-1.08-.381 1.6 1.6 0 0 1-.4-.272M84.022 54.121h.773v2.105h1.434v.714h-1.434v3.588q0 .446.236.695.237.25.634.25.215 0 .564-.086v.704a6 6 0 0 1-.677.048q-.827 0-1.179-.344t-.352-1.128V56.94h-1.01v-.714h1.01v-2.105zM87.39 57.225a3.6 3.6 0 0 1 1.198-.846 3.2 3.2 0 0 1 1.262-.271q.715 0 1.216.317.502.317.696.784.145.36.145.961v2.449q0 .73.167 1.38h-.8a4 4 0 0 1-.156-.967 4 4 0 0 1-1.093.813q-.555.271-1.136.271-.736 0-1.187-.443c-.451-.443-.451-.667-.451-1.115q0-.548.349-1.027t1.085-.752q.537-.2 2.433-.612v-.359q0-.456-.32-.761a1.12 1.12 0 0 0-.808-.306q-.44 0-.916.217-.476.219-1.109.755zm3.728 3.356v-1.839q-1.305.312-1.719.457-.66.226-.969.583t-.309.761a.83.83 0 0 0 .266.632q.266.25.711.25.425 0 .929-.212c.504-.212.701-.352 1.091-.632M94.652 56.892a6.7 6.7 0 0 1 1.228-.58q.594-.204.964-.204.414 0 .766.174.352.175.609.602.258.428.258 1.061V62h-.784v-3.996q0-.596-.263-.886c-.263-.29-.414-.29-.714-.29q-.413 0-.929.177c-.516.177-.722.297-1.133.537V62h-.784v-5.774h.784v.666zM104.325 53.857h.779V60.2q0 .494.064 1.023.064.53.145.776h-.806a3 3 0 0 1-.134-.8q-.52.457-1.029.688a2.4 2.4 0 0 1-1.001.231q-.978 0-1.678-.792-.702-.792-.701-2.194 0-1.434.706-2.229t1.684-.795q.5 0 .972.212t.999.674zm0 3.814a3.8 3.8 0 0 0-.951-.642 2.2 2.2 0 0 0-.918-.212q-.736 0-1.225.572t-.489 1.695q0 1.177.5 1.759.5.583 1.219.583.44 0 .908-.217.468-.218.956-.653zM106.887 57.225a3.6 3.6 0 0 1 1.198-.846 3.2 3.2 0 0 1 1.262-.271q.715 0 1.216.317.502.317.696.784.145.36.145.961v2.449q0 .73.167 1.38h-.8a4 4 0 0 1-.156-.967 4 4 0 0 1-1.093.813q-.555.271-1.136.271-.736 0-1.187-.443c-.451-.443-.451-.667-.451-1.115q0-.548.349-1.027t1.085-.752q.537-.2 2.433-.612v-.359q0-.456-.32-.761a1.12 1.12 0 0 0-.808-.306q-.44 0-.916.217-.476.219-1.109.755zm3.728 3.356v-1.839q-1.305.312-1.719.457-.66.226-.969.583t-.309.761a.83.83 0 0 0 .266.632q.266.25.711.25.425 0 .929-.212c.504-.212.701-.352 1.091-.632M114.187 57.531q.483-.741 1.012-1.085a2.17 2.17 0 0 1 1.206-.344q.075 0 .215.005l-.113.865-.285-.016q-.311-.016-.698.148a1.86 1.86 0 0 0-.69.518q-.303.354-.475.881c-.172.527-.172.661-.172.929V62h-.784v-5.774h.784zM121.529 53.857h.779V60.2q0 .494.064 1.023.064.53.145.776h-.806a3 3 0 0 1-.134-.8q-.52.457-1.029.688a2.4 2.4 0 0 1-1.001.231q-.978 0-1.678-.792-.701-.792-.701-2.194 0-1.434.706-2.229t1.684-.795q.5 0 .972.212t.999.674zm0 3.814a3.8 3.8 0 0 0-.951-.642 2.2 2.2 0 0 0-.918-.212q-.736 0-1.225.572t-.489 1.695q0 1.177.5 1.759.5.583 1.219.583.44 0 .908-.217.468-.218.956-.653zM124.461 58.654q-.424-.445-.424-.994 0-.633.521-1.093t1.45-.459q.618 0 1.168.225t.938.664l-.594.502a2.4 2.4 0 0 0-.688-.562 1.8 1.8 0 0 0-.812-.18q-.586 0-.89.252c-.304.252-.304.363-.304.585q0 .285.236.51.231.225 1.084.447 1.316.34 1.772.824.457.483.457 1.062 0 .691-.545 1.186-.545.494-1.485.494-.687 0-1.268-.258-.58-.258-1.225-.862l.674-.47q.483.483.907.69t.896.207q.601 0 .931-.288.33-.287.33-.674a.73.73 0 0 0-.247-.553q-.35-.327-1.402-.602a6 6 0 0 1-1.08-.381 1.6 1.6 0 0 1-.4-.272M130.053 60.765h1.053V62l-.806 1.622h-.447l.715-1.622h-.516zM140.677 53.857h.779V60.2q0 .494.064 1.023.064.53.145.776h-.806a3 3 0 0 1-.134-.8q-.52.457-1.029.688a2.4 2.4 0 0 1-1.001.231q-.978 0-1.678-.792-.702-.792-.701-2.194 0-1.434.706-2.229t1.684-.795q.5 0 .972.212t.999.674zm0 3.814a3.8 3.8 0 0 0-.951-.642 2.2 2.2 0 0 0-.918-.212q-.736 0-1.225.572t-.489 1.695q0 1.177.5 1.759.5.583 1.219.583.44 0 .908-.217.468-.218.956-.653zM143.239 57.225a3.6 3.6 0 0 1 1.198-.846 3.2 3.2 0 0 1 1.262-.271q.714 0 1.216.317t.696.784q.145.36.145.961v2.449q0 .73.167 1.38h-.8a4 4 0 0 1-.156-.967 4 4 0 0 1-1.093.813q-.555.271-1.136.271-.736 0-1.187-.443c-.451-.443-.451-.667-.451-1.115q0-.548.349-1.027t1.085-.752q.537-.2 2.433-.612v-.359q0-.456-.32-.761a1.12 1.12 0 0 0-.808-.306q-.44 0-.916.217-.476.219-1.109.755zm3.727 3.356v-1.839q-1.305.312-1.719.457-.66.226-.969.583t-.309.761a.83.83 0 0 0 .266.632q.265.25.711.25.425 0 .929-.212c.504-.212.701-.352 1.091-.632M150.082 54.121h.773v2.105h1.434v.714h-1.434v3.588q0 .446.236.695.237.25.634.25.214 0 .564-.086v.704a6 6 0 0 1-.677.048q-.827 0-1.179-.344t-.352-1.128V56.94h-1.01v-.714h1.01v-2.105zM153.449 57.225a3.6 3.6 0 0 1 1.198-.846 3.2 3.2 0 0 1 1.262-.271q.715 0 1.216.317.503.317.696.784.145.36.145.961v2.449q0 .73.167 1.38h-.8a4 4 0 0 1-.156-.967 4 4 0 0 1-1.093.813q-.555.271-1.136.271-.736 0-1.187-.443c-.451-.443-.451-.667-.451-1.115q0-.548.349-1.027t1.085-.752q.537-.2 2.433-.612v-.359q0-.456-.32-.761a1.12 1.12 0 0 0-.808-.306q-.44 0-.916.217-.476.219-1.109.755zm3.728 3.356v-1.839q-1.305.312-1.719.457-.66.226-.969.583t-.309.761a.83.83 0 0 0 .266.632q.265.25.711.25.425 0 .929-.212c.504-.212.701-.352 1.091-.632M159.841 53.857h.779v3.104q.381-.387.924-.62a2.6 2.6 0 0 1 1.047-.234q.978 0 1.689.806t.711 2.197q0 .88-.32 1.593-.32.712-.896 1.063a2.3 2.3 0 0 1-1.211.352 2.3 2.3 0 0 1-.94-.201q-.456-.202-1.004-.674V62h-.779zm.779 6.704q.601.478 1.029.658.426.18.856.18.709 0 1.208-.585c.499-.585.5-.967.5-1.729q0-1.123-.505-1.703c-.505-.58-.755-.58-1.257-.58a2.2 2.2 0 0 0-.916.212 3.5 3.5 0 0 0-.916.642v2.905zM166.302 57.225a3.6 3.6 0 0 1 1.198-.846 3.2 3.2 0 0 1 1.262-.271q.714 0 1.216.317t.696.784q.145.36.145.961v2.449q0 .73.167 1.38h-.8a4 4 0 0 1-.156-.967 4 4 0 0 1-1.093.813q-.555.271-1.136.271-.736 0-1.187-.443c-.451-.443-.451-.667-.451-1.115q0-.548.349-1.027t1.085-.752q.537-.2 2.433-.612v-.359q0-.456-.32-.761a1.12 1.12 0 0 0-.808-.306q-.44 0-.916.217-.476.219-1.109.755zm3.728 3.356v-1.839q-1.305.312-1.719.457-.66.226-.969.583t-.309.761a.83.83 0 0 0 .266.632q.266.25.711.25.425 0 .929-.212c.504-.212.701-.352 1.091-.632M172.866 58.654q-.424-.445-.424-.994 0-.633.521-1.093t1.45-.459q.618 0 1.168.225t.938.664l-.594.502a2.4 2.4 0 0 0-.688-.562 1.8 1.8 0 0 0-.812-.18q-.586 0-.89.252c-.304.252-.304.363-.304.585q0 .285.236.51.231.225 1.084.447 1.316.34 1.772.824.457.483.457 1.062 0 .691-.545 1.186-.544.494-1.485.494-.687 0-1.268-.258-.58-.258-1.225-.862l.674-.47q.483.483.907.69t.896.207q.601 0 .931-.288.33-.287.33-.674a.73.73 0 0 0-.247-.553q-.35-.327-1.402-.602a6 6 0 0 1-1.08-.381 1.6 1.6 0 0 1-.4-.272M182.818 60.706q-.531.715-1.133 1.063c-.602.348-.816.349-1.246.349q-1.02 0-1.751-.803t-.73-2.237q0-1.38.723-2.175.721-.795 1.689-.795.645 0 1.241.378.595.38.895 1.023.297.644.314 1.676h-4.077q.027.687.209 1.128.242.58.65.846t.79.266q.955 0 1.789-1.171zm-.816-2.224q-.086-.816-.556-1.281t-1.061-.465q-.72 0-1.152.551a2.04 2.04 0 0 0-.459 1.195zM184.435 58.654q-.424-.445-.424-.994 0-.633.521-1.093t1.45-.459q.618 0 1.168.225t.938.664l-.594.502a2.4 2.4 0 0 0-.688-.562 1.8 1.8 0 0 0-.812-.18q-.586 0-.89.252c-.304.252-.304.363-.304.585q0 .285.236.51.232.225 1.084.447 1.316.34 1.772.824.457.483.457 1.062 0 .691-.545 1.186-.544.494-1.485.494-.687 0-1.268-.258-.58-.258-1.225-.862l.674-.47q.483.483.907.69t.896.207q.601 0 .931-.288.33-.287.33-.674a.73.73 0 0 0-.247-.553q-.35-.327-1.402-.602a6 6 0 0 1-1.08-.381 1.6 1.6 0 0 1-.4-.272M190.026 60.765h1.053V62l-.806 1.622h-.447l.716-1.622h-.516zM197.524 56.957a3.6 3.6 0 0 1 .964-.636 2.5 2.5 0 0 1 1.002-.212q.64 0 1.217.365.577.366.883 1.08c.306.714.306.999.306 1.568q0 .897-.317 1.598t-.894 1.05a2.3 2.3 0 0 1-1.195.349q-.51 0-1.002-.22a3.6 3.6 0 0 1-.964-.655v2.954h-.779v-7.971h.779zm0 3.604q.51.419.988.628c.478.209.628.209.929.209q.683 0 1.179-.585.497-.585.497-1.751 0-1.117-.507-1.695-.508-.577-1.228-.577-.424 0-.889.212t-.97.642v2.917zM205.705 62.118q-1.112 0-1.869-.811c-.757-.811-.757-1.268-.757-2.181q0-.913.336-1.62.336-.706.937-1.053a2.53 2.53 0 0 1 1.278-.346q.656 0 1.254.357.599.357.948 1.08.35.722.349 1.614 0 1.358-.736 2.159c-.736.801-1.071.801-1.74.801m-.07-.666q.71 0 1.232-.612.525-.613.524-1.756 0-1.128-.51-1.719c-.51-.591-.75-.591-1.23-.591q-.763 0-1.281.602-.519.602-.519 1.719 0 1.144.521 1.751c.521.607.769.606 1.263.606M209.937 53.857h.784V62h-.784zM213.025 53.933h.784v.94h-.784zm0 2.293h.784V62h-.784zM220.319 60.598q-.392.703-.859 1.053a2.28 2.28 0 0 1-1.402.467q-.677 0-1.27-.365a2.4 2.4 0 0 1-.919-1.058q-.325-.693-.325-1.59 0-1.38.739-2.189.738-.808 1.78-.808.704 0 1.278.371c.574.371.709.618.978 1.112l-.682.371q-.327-.607-.709-.905a1.4 1.4 0 0 0-.875-.298q-.704 0-1.217.602t-.513 1.794q0 1.053.519 1.665.518.612 1.189.612 1.015 0 1.606-1.208zM221.952 53.933h.784v.94h-.784zm0 2.293h.784V62h-.784zM229.337 60.706q-.531.715-1.133 1.063c-.602.348-.816.349-1.246.349q-1.02 0-1.751-.803t-.73-2.237q0-1.38.723-2.175.721-.795 1.689-.795.644 0 1.241.378.595.38.895 1.023.297.644.314 1.676h-4.077q.027.687.209 1.128.242.58.65.846t.79.266q.955 0 1.789-1.171zm-.816-2.224q-.086-.816-.556-1.281t-1.061-.465q-.72 0-1.152.551a2.04 2.04 0 0 0-.459 1.195zM230.954 58.654q-.424-.445-.424-.994 0-.633.521-1.093t1.45-.459q.618 0 1.168.225t.938.664l-.594.502a2.4 2.4 0 0 0-.688-.562 1.8 1.8 0 0 0-.812-.18q-.586 0-.89.252c-.304.252-.304.363-.304.585q0 .285.236.51.232.225 1.084.447 1.316.34 1.772.824.457.483.457 1.062 0 .691-.545 1.186-.544.494-1.485.494-.687 0-1.268-.258-.58-.258-1.225-.862l.674-.47q.483.483.907.69t.896.207q.601 0 .931-.288.33-.287.33-.674a.73.73 0 0 0-.247-.553q-.35-.327-1.402-.602a6 6 0 0 1-1.08-.381 1.6 1.6 0 0 1-.4-.272"/></svg>