<?xml version="1.0" encoding="utf-8"?>
<!-- Generator: Adobe Illustrator 25.2.0, SVG Export Plug-In . SVG Version: 6.00 Build 0)  -->
<svg version="1.1"
	 id="svg2" inkscape:version="0.92.4 (70224e8, 2019-12-23, custom)" xmlns:cc="http://creativecommons.org/ns#" xmlns:dc="http://purl.org/dc/elements/1.1/" xmlns:inkscape="http://www.inkscape.org/namespaces/inkscape" xmlns:rdf="http://www.w3.org/1999/02/22-rdf-syntax-ns#" xmlns:sodipodi="http://sodipodi.sourceforge.net/DTD/sodipodi-0.dtd" xmlns:svg="http://www.w3.org/2000/svg"
	 xmlns="http://www.w3.org/2000/svg" xmlns:xlink="http://www.w3.org/1999/xlink" x="0px" y="0px" viewBox="0 0 420.6 321.6"
	 style="enable-background:new 0 0 420.6 321.6;" xml:space="preserve">
<style type="text/css">
	.st0{fill:#FFFFFF;}
	.st1{fill:#D21F15;}
	.st2{fill:#231F20;}
	.st3{fill:none;stroke:#CCCCCC;stroke-width:4.1907;stroke-linecap:round;stroke-linejoin:round;}
	.st4{fill:none;stroke:#3B3A3C;stroke-width:3.5401;stroke-linecap:round;stroke-linejoin:round;stroke-miterlimit:3.6764;}
	.st5{fill:none;stroke:#3B3A3C;stroke-width:3.8517;stroke-linecap:round;stroke-linejoin:round;}
	.st6{fill:none;stroke:#3B3A3C;stroke-width:3.9959;stroke-linecap:round;stroke-linejoin:round;stroke-miterlimit:4.1497;}
	.st7{fill:#3C3738;stroke:#000000;stroke-width:0.25;stroke-miterlimit:10;}
</style>
<sodipodi:namedview  bordercolor="#666666" borderopacity="1" fit-margin-bottom="0" fit-margin-left="0" fit-margin-right="0" fit-margin-top="0" gridtolerance="10" guidetolerance="10" id="namedview27" inkscape:current-layer="layer1" inkscape:cx="-53.093697" inkscape:cy="108.72504" inkscape:pageopacity="0" inkscape:pageshadow="2" inkscape:snap-text-baseline="true" inkscape:window-height="1172" inkscape:window-maximized="0" inkscape:window-width="2478" inkscape:window-x="86" inkscape:window-y="94" inkscape:zoom="0.87209835" objecttolerance="10" pagecolor="#ffffff" showgrid="false">
	</sodipodi:namedview>
<path id="path4" inkscape:connector-curvature="0" class="st0" d="M30.8,143.7v-26h4.8l8.9,13.3l8.9-13.3h4.8v26h-5.4v-15.9
	l-8.3,12.3l-8.4-12.3v15.9L30.8,143.7z M72.3,134.8h7.6l-3.8-9.4L72.3,134.8z M62.8,143.7l10.8-26h5.1l10.8,26h-6.1l-1.8-4.4H70.7
	l-1.8,4.4H62.8z M96.4,143.7v-20.8h-7.1v-5.2H109v5.2h-6.9v20.8H96.4z M113.6,143.7v-26h17.8v5.2h-12v4.9h11.2v5.1h-11.2v5.6h12.3
	v5.2H113.6z M143.7,130h4.6c2.2,0,3.7-1.4,3.7-3.6c0-2-1.4-3.4-3.2-3.4h-5L143.7,130z M138,143.7v-26h10.9c2.4,0,4.5,0.8,6.2,2.5
	c1.8,1.6,2.6,3.7,2.6,6.1c0,3.3-1.8,6.2-4.6,7.4l6.3,10h-6.5l-5.4-8.7h-3.8v8.7H138z M164.2,117.7h5.7v26h-5.8L164.2,117.7z
	 M184,134.8h7.6l-3.8-9.4L184,134.8z M174.5,143.7l10.7-26h5.1l10.8,26H195l-1.8-4.4h-10.9l-1.8,4.4H174.5z M205.6,143.7v-26h5.8
	v20.8h10.2v5.2H205.6z M229.3,135.5c1.4,2.3,3.5,3.4,6.5,3.4c2.6,0,3.9-1.2,3.9-2.6c0-1-0.6-1.6-1.4-2.2c-0.5-0.3-1.5-0.8-2.2-1
	c-0.6-0.3-2.1-0.8-2.9-1c-4.1-1.5-6.3-3.6-6.3-7.5c0-2.2,0.8-4,2.5-5.3s3.7-2,6.2-2c3.8,0,6.6,1.4,8.7,4.3l-3.8,2.9
	c-1-1.3-2.6-2-4.7-2c-1.9,0-3.1,0.9-3.1,2.1c0,0.9,0.2,1.4,1,1.9c0.4,0.2,0.8,0.4,1.2,0.6l1.9,0.6c0.9,0.3,1.6,0.6,2.2,0.8
	c4.7,1.8,6.6,4,6.6,7.7c0,4.8-3.3,8-9.7,8c-5.3,0-8.9-2.4-10.7-5.8L229.3,135.5z M273.1,121.6l-2,1.8c-2-2.4-4.7-3.5-8-3.5
	c-3.1,0-5.6,1-7.6,3.1s-3,4.6-3,7.7c0,3.1,1,5.7,3,7.8s4.6,3.1,7.6,3.1c3.4,0,6-1.2,8.1-3.7l2,1.8c-2.6,3-6,4.6-10,4.6
	c-3.8,0-7-1.3-9.6-3.8c-2.6-2.6-3.9-5.8-3.9-9.7c0-3.9,1.3-7.1,3.9-9.6c2.6-2.6,5.9-3.9,9.6-3.9
	C267.2,117.2,270.5,118.7,273.1,121.6 M279.1,143.7v-26h2.9V141h10.7v2.7H279.1z M298.6,130.7c0,3.1,1,5.7,3,7.8
	c2.1,2.1,4.6,3.1,7.6,3.1c3.1,0,5.6-1,7.6-3.1s3-4.7,3-7.8c0-3.1-1-5.7-3-7.7c-2-2.1-4.6-3.1-7.6-3.1c-3.1,0-5.6,1-7.6,3.1
	S298.6,127.6,298.6,130.7 M295.7,130.7c0-3.9,1.3-7.1,3.9-9.6c2.7-2.6,5.9-3.9,9.6-3.9c3.8,0,7,1.3,9.6,3.9c2.7,2.6,4,5.8,4,9.6
	c0,3.8-1.3,7.1-4,9.7c-2.6,2.6-5.8,3.8-9.6,3.8s-7-1.3-9.6-3.8C297.1,137.8,295.7,134.6,295.7,130.7 M329.4,117.7h2.9v16.6
	c0,4.7,2.6,7.2,6.8,7.2c4.2,0,6.8-2.5,6.8-7.2v-16.6h2.9v16.9c0,3.1-0.9,5.4-2.7,7.1c-1.8,1.6-4.1,2.5-7.1,2.5
	c-2.9,0-5.3-0.8-7.1-2.5c-1.8-1.7-2.7-4-2.7-7.1L329.4,117.7z M360.1,141h5.3c7,0,10.7-4,10.7-10.3s-3.7-10.3-10.8-10.3h-5.2V141z
	 M357.2,143.7v-26h8.4c4.1,0,7.4,1.2,9.8,3.6s3.6,5.5,3.6,9.4c0,3.9-1.2,7.1-3.6,9.4c-2.4,2.4-5.7,3.5-9.8,3.5L357.2,143.7z"/>
<path id="path6" inkscape:connector-curvature="0" class="st1" d="M235.1,80.8h-18.6c-3.9-0.2-5.1-3-3.5-6l19.4-32
	c0.4-0.6,0.9-0.8,2-0.7l0,0l0,0c3.5,0.5,6.3-1.6,7.6-3.3c0.9-1.2,2.3-0.9,2.9-0.7c7.6,3.7,12.6,11.5,12.6,20.2
	C257.6,70.7,247.5,80.8,235.1,80.8 M209.8,69.8c-1.4,2.4-3,4.7-5.2,4.7s-3.8-2.4-5.2-4.7l-16.6-27.5c-2.3-3.8,0.1-6.5,3-6.5h37.8
	c2.8,0,5.2,2.6,3,6.3L209.8,69.8z M204.6,87.3c-2.1,0-3.8-1.7-3.8-3.8c0-2.1,1.7-3.8,3.8-3.8s3.8,1.7,3.8,3.8S206.7,87.3,204.6,87.3
	 M192.1,80.8h-18c-12.4,0-22.5-10.1-22.5-22.5c0-8.7,5-16.5,12.6-20.2c0.6-0.2,2-0.5,2.8,0.5c1.4,1.8,3,3,5.8,3.4
	c1,0.1,1.9,0.1,1.9,0.1c1.4-0.2,2,0.6,2.3,1l18.8,31C198.1,77.5,196.8,80.8,192.1,80.8 M174.1,29.3c2.1,0,3.8,1.7,3.8,3.8
	s-1.7,3.8-3.8,3.8s-3.8-1.7-3.8-3.8S172,29.3,174.1,29.3 M178.6,23c4.1-10.5,14.4-17.7,25.9-17.7s21.8,7.2,25.9,17.7
	c0.7,2.1-0.6,2.8-0.6,2.8c-2,1.3-2.6,2.8-2.8,3.3l0,0c-0.2,0.4-0.6,1.4-1.7,1.4h-41.5c-1.1,0-1.4-0.7-1.7-1.4
	c-0.1-0.2-0.5-1.8-2.9-3.3C178.7,25.4,178,24.7,178.6,23 M235,29.3c2.1,0,3.8,1.7,3.8,3.8s-1.7,3.8-3.8,3.8s-3.8-1.7-3.8-3.8
	S232.9,29.3,235,29.3 M245.4,32.5L245.4,32.5c-1.1-0.4-1.6-1.2-1.9-2.4c-0.9-2.6-2.9-4.5-5.3-5.4c-1.3-0.5-2.1-1.8-2.3-2.3l0,0
	C231.4,9.2,218.8,0,204.6,0s-26.9,9.2-31.4,22.5l0,0c-0.2,0.5-1,1.8-2.4,2.3c-2.5,1-4.3,2.5-5.2,5.5c-0.4,1.2-0.8,1.8-1.8,2.2h-0.1
	c-10.4,4.2-17.4,14.3-17.4,25.8c0,15.3,12.5,27.8,27.8,27.8H193c2.7,0,3.1,0.7,4,2.3c1.5,2.5,4.4,4.1,7.5,4.1c3.4,0,6.4-1.9,7.9-4.7
	c0.5-0.8,1.3-1.6,3.6-1.6h19c15.3,0,27.8-12.5,27.8-27.8C262.9,46.8,255.9,36.7,245.4,32.5"/>
<path id="path8" inkscape:connector-curvature="0" class="st2" d="M30.8,143.7v-26h4.8l8.9,13.3l8.9-13.3h4.8v26h-5.4v-15.9
	l-8.3,12.3l-8.4-12.3v15.9L30.8,143.7z M72.3,134.8h7.6l-3.8-9.4L72.3,134.8z M62.8,143.7l10.8-26h5.1l10.8,26h-6.1l-1.8-4.4H70.7
	l-1.8,4.4H62.8z M96.4,143.7v-20.8h-7.1v-5.2H109v5.2h-6.9v20.8H96.4z M113.6,143.7v-26h17.8v5.2h-12v4.9h11.2v5.1h-11.2v5.6h12.3
	v5.2H113.6z M143.7,130h4.6c2.2,0,3.7-1.4,3.7-3.6c0-2-1.4-3.4-3.2-3.4h-5L143.7,130z M138,143.7v-26h10.9c2.4,0,4.5,0.8,6.2,2.5
	c1.8,1.6,2.6,3.7,2.6,6.1c0,3.3-1.8,6.2-4.6,7.4l6.3,10h-6.5l-5.4-8.7h-3.8v8.7H138z M164.2,117.7h5.7v26h-5.8L164.2,117.7z
	 M184,134.8h7.6l-3.8-9.4L184,134.8z M174.5,143.7l10.7-26h5.1l10.8,26H195l-1.8-4.4h-10.9l-1.8,4.4H174.5z M205.6,143.7v-26h5.8
	v20.8h10.2v5.2H205.6z M229.3,135.5c1.4,2.3,3.5,3.4,6.5,3.4c2.6,0,3.9-1.2,3.9-2.6c0-1-0.6-1.6-1.4-2.2c-0.5-0.3-1.5-0.8-2.2-1
	c-0.6-0.3-2.1-0.8-2.9-1c-4.1-1.5-6.3-3.6-6.3-7.5c0-2.2,0.8-4,2.5-5.3s3.7-2,6.2-2c3.8,0,6.6,1.4,8.7,4.3l-3.8,2.9
	c-1-1.3-2.6-2-4.7-2c-1.9,0-3.1,0.9-3.1,2.1c0,0.9,0.2,1.4,1,1.9c0.4,0.2,0.8,0.4,1.2,0.6l1.9,0.6c0.9,0.3,1.6,0.6,2.2,0.8
	c4.7,1.8,6.6,4,6.6,7.7c0,4.8-3.3,8-9.7,8c-5.3,0-8.9-2.4-10.7-5.8L229.3,135.5z M273.1,121.6l-2,1.8c-2-2.4-4.7-3.5-8-3.5
	c-3.1,0-5.6,1-7.6,3.1s-3,4.6-3,7.7c0,3.1,1,5.7,3,7.8s4.6,3.1,7.6,3.1c3.4,0,6-1.2,8.1-3.7l2,1.8c-2.6,3-6,4.6-10,4.6
	c-3.8,0-7-1.3-9.6-3.8c-2.6-2.6-3.9-5.8-3.9-9.7c0-3.9,1.3-7.1,3.9-9.6c2.6-2.6,5.9-3.9,9.6-3.9
	C267.2,117.2,270.5,118.7,273.1,121.6 M279.1,143.7v-26h2.9V141h10.7v2.7H279.1z M298.6,130.7c0,3.1,1,5.7,3,7.8
	c2.1,2.1,4.6,3.1,7.6,3.1c3.1,0,5.6-1,7.6-3.1s3-4.7,3-7.8c0-3.1-1-5.7-3-7.7c-2-2.1-4.6-3.1-7.6-3.1c-3.1,0-5.6,1-7.6,3.1
	S298.6,127.6,298.6,130.7 M295.7,130.7c0-3.9,1.3-7.1,3.9-9.6c2.7-2.6,5.9-3.9,9.6-3.9c3.8,0,7,1.3,9.6,3.9c2.7,2.6,4,5.8,4,9.6
	c0,3.8-1.3,7.1-4,9.7c-2.6,2.6-5.8,3.8-9.6,3.8s-7-1.3-9.6-3.8C297.1,137.8,295.7,134.6,295.7,130.7 M329.4,117.7h2.9v16.6
	c0,4.7,2.6,7.2,6.8,7.2c4.2,0,6.8-2.5,6.8-7.2v-16.6h2.9v16.9c0,3.1-0.9,5.4-2.7,7.1c-1.8,1.6-4.1,2.5-7.1,2.5
	c-2.9,0-5.3-0.8-7.1-2.5c-1.8-1.7-2.7-4-2.7-7.1L329.4,117.7z M360.1,141h5.3c7,0,10.7-4,10.7-10.3s-3.7-10.3-10.8-10.3h-5.2V141z
	 M357.2,143.7v-26h8.4c4.1,0,7.4,1.2,9.8,3.6s3.6,5.5,3.6,9.4c0,3.9-1.2,7.1-3.6,9.4c-2.4,2.4-5.7,3.5-9.8,3.5L357.2,143.7z"/>
<path id="path10" inkscape:connector-curvature="0" class="st1" d="M235.1,80.8h-18.6c-3.9-0.2-5.1-3-3.5-6l19.4-32
	c0.4-0.6,0.9-0.8,2-0.7l0,0l0,0c3.5,0.5,6.3-1.6,7.6-3.3c0.9-1.2,2.3-0.9,2.9-0.7c7.6,3.7,12.6,11.5,12.6,20.2
	C257.6,70.7,247.5,80.8,235.1,80.8 M209.8,69.8c-1.4,2.4-3,4.7-5.2,4.7s-3.8-2.4-5.2-4.7l-16.6-27.5c-2.3-3.8,0.1-6.5,3-6.5h37.8
	c2.8,0,5.2,2.6,3,6.3L209.8,69.8z M204.6,87.3c-2.1,0-3.8-1.7-3.8-3.8c0-2.1,1.7-3.8,3.8-3.8s3.8,1.7,3.8,3.8S206.7,87.3,204.6,87.3
	 M192.1,80.8h-18c-12.4,0-22.5-10.1-22.5-22.5c0-8.7,5-16.5,12.6-20.2c0.6-0.2,2-0.5,2.8,0.5c1.4,1.8,3,3,5.8,3.4
	c1,0.1,1.9,0.1,1.9,0.1c1.4-0.2,2,0.6,2.3,1l18.8,31C198.1,77.5,196.8,80.8,192.1,80.8 M174.1,29.3c2.1,0,3.8,1.7,3.8,3.8
	s-1.7,3.8-3.8,3.8s-3.8-1.7-3.8-3.8S172,29.3,174.1,29.3 M178.6,23c4.1-10.5,14.4-17.7,25.9-17.7s21.8,7.2,25.9,17.7
	c0.7,2.1-0.6,2.8-0.6,2.8c-2,1.3-2.6,2.8-2.8,3.3l0,0c-0.2,0.4-0.6,1.4-1.7,1.4h-41.5c-1.1,0-1.4-0.7-1.7-1.4
	c-0.1-0.2-0.5-1.8-2.9-3.3C178.7,25.4,178,24.7,178.6,23 M235,29.3c2.1,0,3.8,1.7,3.8,3.8s-1.7,3.8-3.8,3.8s-3.8-1.7-3.8-3.8
	S232.9,29.3,235,29.3 M245.4,32.5L245.4,32.5c-1.1-0.4-1.6-1.2-1.9-2.4c-0.9-2.6-2.9-4.5-5.3-5.4c-1.3-0.5-2.1-1.8-2.3-2.3l0,0
	C231.4,9.2,218.8,0,204.6,0s-26.9,9.2-31.4,22.5l0,0c-0.2,0.5-1,1.8-2.4,2.3c-2.5,1-4.3,2.5-5.2,5.5c-0.4,1.2-0.8,1.8-1.8,2.2h-0.1
	c-10.4,4.2-17.4,14.3-17.4,25.8c0,15.3,12.5,27.8,27.8,27.8H193c2.7,0,3.1,0.7,4,2.3c1.5,2.5,4.4,4.1,7.5,4.1c3.4,0,6.4-1.9,7.9-4.7
	c0.5-0.8,1.3-1.6,3.6-1.6h19c15.3,0,27.8-12.5,27.8-27.8C262.9,46.8,255.9,36.7,245.4,32.5"/>
<path id="path59" inkscape:connector-curvature="0" class="st3" d="M503.6,334c-8.6,0-15.6,7-15.6,15.6s7,15.6,15.6,15.6"/>
<path id="path57" inkscape:connector-curvature="0" class="st3" d="M539.8,319.8c8.6,0,15.6,7,15.6,15.6s-7,15.6-15.6,15.6"/>
<g id="flowRoot4156" transform="translate(-1.0681153e-4)">
</g>
<text transform="matrix(1 0 0 1 -136.7743 192.3996)" style="font-family:'ArialMT'; font-size:15px;">ENTER</text>
<path id="path63" inkscape:connector-curvature="0" class="st3" d="M497.9,319.9c0-11.3,9.4-20.4,21-20.4c11.6,0,21,9.1,21,20.4"/>
<g id="g120" transform="matrix(0.91911111,0,0,0.91911111,162.58015,-48.787539)">
	<path id="path16" inkscape:connector-curvature="0" sodipodi:nodetypes="cc" class="st4" d="M124.8,316.9h36.7"/>
	<path id="path101" inkscape:connector-curvature="0" class="st4" d="M114.5,316.9c0,2.8,2.2,5,5,5s5-2.2,5-5s-2.2-5-5-5
		S114.5,314.2,114.5,316.9L114.5,316.9z"/>
	<path id="path18" inkscape:connector-curvature="0" class="st4" d="M162.1,316.9c0,2.8,2.2,5,5,5s5-2.2,5-5s-2.2-5-5-5
		S162.1,314.2,162.1,316.9L162.1,316.9z"/>
</g>
<path id="path20" inkscape:connector-curvature="0" class="st5" d="M365.8,237.3c0-10.4,8.6-18.8,19.3-18.8
	c10.6,0,19.3,8.4,19.3,18.8 M365.8,237.8c-7.9,0-14.3,6.4-14.3,14.3c0,7.9,6.4,14.3,14.3,14.3 M404.3,237.8
	c7.9,0,14.3,6.4,14.3,14.3c0,7.9-6.4,14.3-14.3,14.3 M365.7,266.5h38.7"/>
<path id="path86" inkscape:connector-curvature="0" class="st5" d="M180.7,223.5l11.4,19l11.4,19l11.4-19l11.4-19H180.7z"/>
<g id="g94" transform="matrix(1.0374354,0,0,1.0374354,-234.57415,-172.59483)">
	<path id="path90" inkscape:connector-curvature="0" class="st6" d="M228.2,410.3c0-11.3,9.4-20.4,21-20.4c11.6,0,21,9.1,21,20.4"/>
	<path id="path92" inkscape:connector-curvature="0" class="st6" d="M228.2,410.3h42.1"/>
</g>
<g id="text98" transform="matrix(0.95248649,0,0,0.95248649,1.4198392,-62.225687)">
	<path id="path3991" inkscape:connector-curvature="0" class="st7" d="M5.4,383.8v-1.2H0.6v-10.4h-1.3v11.6H5.4z"/>
	<path id="path3993" inkscape:connector-curvature="0" class="st7" d="M14.2,383.8v-1.2H8.9v-4.3h4.9v-1.2H8.9v-3.7h5.3v-1.2H7.6
		v11.6L14.2,383.8L14.2,383.8z"/>
	<path id="path3995" inkscape:connector-curvature="0" class="st7" d="M17.1,383.8l1.2-2.9h5.6l1.2,2.9h1.4l-4.9-11.6h-1l-4.9,11.6
		H17.1z M21.1,374.2l2.3,5.5h-4.6L21.1,374.2z"/>
	<path id="path3997" inkscape:connector-curvature="0" class="st7" d="M29.9,383.8v-4.6h2.6l0,0l2.6,4.6h1.5l-2.8-4.9
		c1.3-0.5,2.2-1.8,2.2-3.3c0-1-0.3-1.8-1-2.5s-1.5-1-2.5-1h-4v11.6L29.9,383.8L29.9,383.8z M29.9,373.4h2.6c1.3,0,2.2,1,2.2,2.3
		c0,0.7-0.2,1.2-0.7,1.7c-0.4,0.5-1,0.7-1.6,0.7h-2.5L29.9,373.4z"/>
	<path id="path3999" inkscape:connector-curvature="0" class="st7" d="M40,383.8v-9.4l7.1,9.4h1v-11.6h-1.3v9.3l-7-9.3h-1.1v11.6H40
		z"/>
</g>
<g id="g127" transform="matrix(0.91911111,0,0,0.91911111,91.210593,-48.787999)">
	<path id="path89" inkscape:connector-curvature="0" class="st4" d="M-4.3,296.9c0,2.8,2.2,5,5,5s5-2.2,5-5s-2.2-5-5-5
		C-2,291.9-4.3,294.1-4.3,296.9L-4.3,296.9z"/>
	<path id="path93" inkscape:connector-curvature="0" class="st4" d="M43.3,296.9c0,2.8,2.2,5,5,5s5-2.2,5-5s-2.2-5-5-5
		S43.3,294.1,43.3,296.9L43.3,296.9z"/>
	<path id="path122" inkscape:connector-curvature="0" class="st4" d="M19.5,337c0,2.8,2.2,5,5,5s5-2.2,5-5s-2.2-5-5-5
		C21.8,332,19.5,334.2,19.5,337L19.5,337z"/>
</g>
<g id="text102" transform="matrix(0.95248649,0,0,0.95248649,5.6828324,-62.225687)">
	<path id="path4002" inkscape:connector-curvature="0" class="st7" d="M93.5,383.8l3-9l3,9h0.8l3.4-11.6h-1.3l-2.6,8.8l-2.9-8.8H96
		l-2.9,8.8l-2.6-8.8h-1.3l3.4,11.6H93.5z"/>
	<path id="path4004" inkscape:connector-curvature="0" class="st7" d="M106.2,382.3c1.2,1.1,2.6,1.7,4.3,1.7c1.7,0,3.1-0.6,4.3-1.7
		c1.2-1.1,1.8-2.6,1.8-4.3c0-1.7-0.6-3.1-1.8-4.3c-1.2-1.1-2.6-1.7-4.3-1.7c-1.7,0-3.1,0.6-4.3,1.7c-1.2,1.1-1.8,2.6-1.8,4.3
		S105.1,381.2,106.2,382.3z M107.1,374.6c0.9-0.9,2.1-1.4,3.4-1.4c1.4,0,2.5,0.5,3.4,1.4s1.3,2.1,1.3,3.5s-0.4,2.5-1.3,3.5
		c-0.9,0.9-2,1.4-3.4,1.4s-2.5-0.5-3.4-1.4s-1.3-2.1-1.3-3.5C105.8,376.6,106.2,375.5,107.1,374.6z"/>
	<path id="path4006" inkscape:connector-curvature="0" class="st7" d="M120.2,383.8v-4.6h2.6l0,0l2.6,4.6h1.5l-2.8-4.9
		c1.3-0.5,2.2-1.8,2.2-3.3c0-1-0.3-1.8-1-2.5s-1.5-1-2.5-1h-4v11.6L120.2,383.8L120.2,383.8z M120.2,373.4h2.6c1.3,0,2.2,1,2.2,2.3
		c0,0.7-0.2,1.2-0.7,1.7c-0.4,0.5-1,0.7-1.6,0.7h-2.5V373.4z"/>
	<path id="path4008" inkscape:connector-curvature="0" class="st7" d="M130.3,383.8V380l1.7-1.8l4.1,5.6h1.6l-4.8-6.5l4.6-5.1h-1.6
		l-5.6,6.2v-6.2H129v11.6L130.3,383.8L130.3,383.8z"/>
</g>
<g id="text106" transform="matrix(0.95248649,0,0,0.95248649,14.260215,-62.225687)">
	<path id="path4028" inkscape:connector-curvature="0" class="st7" d="M266.9,383.8v-1.2h-5.4v-4.3h5v-1.2h-5v-3.7h5.3v-1.2h-6.6
		v11.6L266.9,383.8L266.9,383.8z"/>
	<path id="path4030" inkscape:connector-curvature="0" class="st7" d="M269.8,383.8l3.3-5.1l3.3,5.1h1.5l-3.9-6l3.6-5.6h-1.4l-3,4.7
		l-3.1-4.7h-1.5l3.7,5.6l-3.9,6H269.8z"/>
	<path id="path4032" inkscape:connector-curvature="0" class="st7" d="M281.4,383.8v-4.5h2.4c1,0,1.8-0.3,2.5-1s1-1.5,1-2.5
		s-0.4-1.9-1-2.5c-0.7-0.7-1.5-1-2.5-1h-3.7v11.6h1.3V383.8z M281.4,373.4h2.4c0.6,0,1.2,0.2,1.6,0.7c0.5,0.5,0.7,1,0.7,1.7
		s-0.2,1.2-0.7,1.7c-0.4,0.5-1,0.7-1.6,0.7h-2.4V373.4z"/>
	<path id="path4034" inkscape:connector-curvature="0" class="st7" d="M295.8,383.8v-1.2H291v-10.4h-1.3v11.6H295.8z"/>
	<path id="path4036" inkscape:connector-curvature="0" class="st7" d="M298.3,382.3c1.2,1.1,2.6,1.7,4.3,1.7c1.7,0,3.1-0.6,4.3-1.7
		c1.2-1.1,1.8-2.6,1.8-4.3c0-1.7-0.6-3.1-1.8-4.3c-1.2-1.1-2.6-1.7-4.3-1.7c-1.7,0-3.1,0.6-4.3,1.7c-1.2,1.1-1.8,2.6-1.8,4.3
		S297.1,381.2,298.3,382.3z M299.2,374.6c0.9-0.9,2-1.4,3.4-1.4s2.5,0.5,3.4,1.4s1.4,2.1,1.4,3.5s-0.5,2.5-1.4,3.5
		c-0.9,0.9-2,1.4-3.4,1.4s-2.5-0.5-3.4-1.4s-1.4-2.1-1.4-3.5C297.8,376.6,298.3,375.5,299.2,374.6z"/>
	<path id="path4038" inkscape:connector-curvature="0" class="st7" d="M312.3,383.8v-4.6h2.6l0,0l2.6,4.6h1.5l-2.8-4.9
		c1.3-0.5,2.2-1.8,2.2-3.3c0-1-0.3-1.8-1-2.5s-1.5-1-2.5-1h-4v11.6L312.3,383.8L312.3,383.8z M312.3,373.4h2.6c1.3,0,2.2,1,2.2,2.3
		c0,0.7-0.2,1.2-0.7,1.7c-0.4,0.5-1,0.7-1.6,0.7h-2.5V373.4z"/>
	<path id="path4040" inkscape:connector-curvature="0" class="st7" d="M327.7,383.8v-1.2h-5.4v-4.3h5v-1.2h-5v-3.7h5.3v-1.2H321
		v11.6L327.7,383.8L327.7,383.8z"/>
</g>
<g id="text110" transform="matrix(0.95248649,0,0,0.95248649,9.9457929,-62.225687)">
	<path id="path4011" inkscape:connector-curvature="0" class="st7" d="M167.1,383.8c1.9,0,3.3-0.5,4.4-1.6c1.1-1.1,1.6-2.5,1.6-4.2
		c0-1.8-0.5-3.1-1.6-4.2s-2.5-1.6-4.4-1.6h-3.7v11.6L167.1,383.8L167.1,383.8z M164.7,373.4h2.3c3.1,0,4.8,1.8,4.8,4.6
		c0,2.8-1.6,4.6-4.8,4.6h-2.4L164.7,373.4L164.7,373.4z"/>
	<path id="path4013" inkscape:connector-curvature="0" class="st7" d="M176.9,383.8v-11.6h-1.3v11.6H176.9z"/>
	<path id="path4015" inkscape:connector-curvature="0" class="st7" d="M179.1,381.3c0.7,1.9,2.2,2.8,4,2.8c1.1,0,2.1-0.3,2.7-0.9
		c0.6-0.6,1-1.4,1-2.4c0-0.9-0.2-1.6-0.8-2.1c-0.5-0.5-1.3-1-2.5-1.5l-1-0.5c-0.2-0.1-0.4-0.2-0.7-0.4c-0.5-0.4-0.7-0.8-0.7-1.4
		c0-1,0.8-1.6,1.9-1.6c0.9,0,1.6,0.4,2,1.2l1.1-0.6c-0.7-1.2-1.7-1.9-3.1-1.9c-0.9,0-1.7,0.3-2.3,0.8s-0.9,1.2-0.9,2.1
		s0.2,1.5,0.7,2s1.3,0.9,2.3,1.4c0.9,0.4,1.6,0.8,2,1.1c0.4,0.3,0.6,0.8,0.6,1.5c0,0.4-0.1,0.8-0.4,1.2c-0.3,0.5-1,0.8-2,0.8
		c-1.4,0-2.3-0.7-2.9-2.1L179.1,381.3z"/>
	<path id="path4017" inkscape:connector-curvature="0" class="st7" d="M194.5,372c-1.7,0-3.1,0.6-4.3,1.7s-1.8,2.6-1.8,4.3
		s0.6,3.2,1.8,4.3c1.2,1.1,2.6,1.7,4.3,1.7c1.8,0,3.3-0.7,4.5-2l-0.9-0.8c-0.9,1.1-2.1,1.6-3.6,1.6c-1.4,0-2.5-0.5-3.4-1.4
		s-1.4-2.1-1.4-3.5s0.4-2.5,1.4-3.5c0.9-0.9,2-1.4,3.4-1.4c1.5,0,2.6,0.5,3.6,1.6l0.9-0.8C197.7,372.6,196.3,372,194.5,372
		L194.5,372z"/>
	<path id="path4019" inkscape:connector-curvature="0" class="st7" d="M202,382.3c1.2,1.1,2.6,1.7,4.3,1.7s3.1-0.6,4.3-1.7
		s1.8-2.6,1.8-4.3c0-1.7-0.6-3.1-1.8-4.3c-1.2-1.1-2.6-1.7-4.3-1.7s-3.1,0.6-4.3,1.7s-1.8,2.6-1.8,4.3S200.9,381.2,202,382.3z
		 M202.9,374.6c0.9-0.9,2.1-1.4,3.4-1.4c1.4,0,2.5,0.5,3.4,1.4s1.4,2.1,1.4,3.5s-0.4,2.5-1.4,3.5c-0.9,0.9-2,1.4-3.4,1.4
		s-2.5-0.5-3.4-1.4s-1.4-2.1-1.4-3.5C201.6,376.6,202,375.5,202.9,374.6z"/>
	<path id="path4021" inkscape:connector-curvature="0" class="st7" d="M218.8,383.8l4.9-11.6h-1.4l-3.9,9.4l-3.9-9.4H213l4.9,11.6
		H218.8z"/>
	<path id="path4023" inkscape:connector-curvature="0" class="st7" d="M232.4,383.8v-1.2H227v-4.3h4.9v-1.2H227v-3.7h5.3v-1.2h-6.6
		v11.6L232.4,383.8L232.4,383.8z"/>
	<path id="path4025" inkscape:connector-curvature="0" class="st7" d="M236.2,383.8v-4.6h2.6l0,0l2.6,4.6h1.5l-2.8-4.9
		c1.3-0.5,2.2-1.8,2.2-3.3c0-1-0.3-1.8-1-2.5s-1.5-1-2.5-1h-4v11.6L236.2,383.8L236.2,383.8z M236.2,373.4h2.6c1.3,0,2.2,1,2.2,2.3
		c0,0.7-0.2,1.2-0.7,1.7c-0.4,0.5-1,0.7-1.6,0.7h-2.5V373.4z"/>
</g>
<g id="text118" transform="matrix(0.95248649,0,0,0.95248649,18.574625,-62.225687)">
	<path id="path4043" inkscape:connector-curvature="0" class="st7" d="M351.2,383.8l1.2-2.9h5.6l1.2,2.9h1.4l-4.9-11.6h-1l-4.9,11.6
		H351.2z M355.2,374.2l2.3,5.5h-4.6L355.2,374.2z"/>
	<path id="path4045" inkscape:connector-curvature="0" class="st7" d="M364,383.8v-4.6h2.6l0,0l2.6,4.6h1.5L368,379
		c1.3-0.5,2.2-1.8,2.2-3.3c0-1-0.3-1.8-1-2.5s-1.5-1-2.5-1h-4v11.6L364,383.8L364,383.8z M364,373.4h2.6c1.3,0,2.2,1,2.2,2.3
		c0,0.7-0.2,1.2-0.7,1.7c-0.4,0.5-1,0.7-1.6,0.7H364V373.4z"/>
	<path id="path4047" inkscape:connector-curvature="0" class="st7" d="M378.1,372c-1.7,0-3.1,0.6-4.3,1.7c-1.2,1.1-1.8,2.6-1.8,4.3
		s0.6,3.2,1.8,4.3c1.2,1.1,2.6,1.7,4.3,1.7c1.8,0,3.3-0.7,4.5-2l-0.9-0.8c-0.9,1.1-2.1,1.6-3.6,1.6c-1.4,0-2.5-0.5-3.4-1.4
		s-1.4-2.1-1.4-3.5s0.5-2.5,1.4-3.5c0.9-0.9,2-1.4,3.4-1.4c1.5,0,2.6,0.5,3.5,1.6l0.9-0.8C381.4,372.6,379.9,372,378.1,372
		L378.1,372z"/>
	<path id="path4049" inkscape:connector-curvature="0" class="st7" d="M386,383.8v-5.6h6.5v5.6h1.3v-11.6h-1.3v4.9H386v-4.9h-1.3
		v11.6H386z"/>
	<path id="path4051" inkscape:connector-curvature="0" class="st7" d="M398.2,383.8v-11.6h-1.3v11.6H398.2z"/>
	<path id="path4053" inkscape:connector-curvature="0" class="st7" d="M406.1,383.8l4.9-11.6h-1.4l-3.9,9.4l-3.9-9.4h-1.4l4.9,11.6
		H406.1z"/>
	<path id="path4055" inkscape:connector-curvature="0" class="st7" d="M419.8,383.8v-1.2h-5.4v-4.3h5v-1.2h-5v-3.7h5.3v-1.2h-6.6
		v11.6L419.8,383.8L419.8,383.8z"/>
</g>
<text transform="matrix(1 0 0 1 3.2119 466.4825)" style="fill:#CCCCCC; font-family:'ArialMT'; font-size:16.6667px;">LEARN</text>
<text transform="matrix(1 0 0 1 94.2987 466.4825)" style="fill:#CCCCCC; font-family:'ArialMT'; font-size:16.6667px;">WORK</text>
<text transform="matrix(1 0 0 1 264.1325 466.4825)" style="fill:#CCCCCC; font-family:'ArialMT'; font-size:16.6667px;">EXPLORE</text>
<text transform="matrix(1 0 0 1 167.3153 466.4825)" style="fill:#CCCCCC; font-family:'ArialMT'; font-size:16.6667px;">DISCOVER</text>
<text transform="matrix(1 0 0 1 354.6461 466.4825)" style="fill:#CCCCCC; font-family:'ArialMT'; font-size:16.6667px;">ARCHIVE</text>
</svg>
